<?xml version="1.0" encoding="iso-8859-1"?>
<!DOCTYPE svg PUBLIC "-//W3C//DTD SVG 1.0//EN" "http://www.w3.org/TR/2001/REC-SVG-20010904/DTD/svg10.dtd">
<svg width="4096" height="200" xmlns="http://www.w3.org/2000/svg" xmlns:xlink="http://www.w3.org/1999/xlink" onload="init(evt)" onmousemove="msMove(evt)">
<path stroke="none" fill="black" d="M0,0 H4096 V200 H0 V0"/>
<path stroke="none" fill="#400040" d="M   0,0 H   0 V200 H 300  V0"/>
<path stroke="#404040" d="M0,   0 H4096"/>
<path stroke="#404040" d="M0,  25 H4096"/>
<path stroke="#404040" d="M0,  50 H4096"/>
<path stroke="#404040" d="M0,  75 H4096"/>
<path stroke="#404040" d="M0, 100 H4096"/>
<path stroke="#404040" d="M0, 125 H4096"/>
<path stroke="#404040" d="M0, 150 H4096"/>
<path stroke="#404040" d="M0, 175 H4096"/>
<path stroke="#404040" d="M0, 200 H4096"/>
<path stroke="#404040" d="M   0,0 V200"/>
<path stroke="#404040" d="M  25,0 V200"/>
<path stroke="#404040" d="M  50,0 V200"/>
<path stroke="#404040" d="M  75,0 V200"/>
<path stroke="#404040" d="M 100,0 V200"/>
<path stroke="#404040" d="M 125,0 V200"/>
<path stroke="#404040" d="M 150,0 V200"/>
<path stroke="#404040" d="M 175,0 V200"/>
<path stroke="#404040" d="M 200,0 V200"/>
<path stroke="#404040" d="M 225,0 V200"/>
<path stroke="#404040" d="M 250,0 V200"/>
<path stroke="#404040" d="M 275,0 V200"/>
<path stroke="#404040" d="M 300,0 V200"/>
<path stroke="#404040" d="M 325,0 V200"/>
<path stroke="#404040" d="M 350,0 V200"/>
<path stroke="#404040" d="M 375,0 V200"/>
<path stroke="#404040" d="M 400,0 V200"/>
<path stroke="#404040" d="M 425,0 V200"/>
<path stroke="#404040" d="M 450,0 V200"/>
<path stroke="#404040" d="M 475,0 V200"/>
<path stroke="#404040" d="M 500,0 V200"/>
<path stroke="#404040" d="M 525,0 V200"/>
<path stroke="#404040" d="M 550,0 V200"/>
<path stroke="#404040" d="M 575,0 V200"/>
<path stroke="#404040" d="M 600,0 V200"/>
<path stroke="#404040" d="M 625,0 V200"/>
<path stroke="#404040" d="M 650,0 V200"/>
<path stroke="#404040" d="M 675,0 V200"/>
<path stroke="#404040" d="M 700,0 V200"/>
<path stroke="#404040" d="M 725,0 V200"/>
<path stroke="#404040" d="M 750,0 V200"/>
<path stroke="#404040" d="M 775,0 V200"/>
<path stroke="#404040" d="M 800,0 V200"/>
<path stroke="#404040" d="M 825,0 V200"/>
<path stroke="#404040" d="M 850,0 V200"/>
<path stroke="#404040" d="M 875,0 V200"/>
<path stroke="#404040" d="M 900,0 V200"/>
<path stroke="#404040" d="M 925,0 V200"/>
<path stroke="#404040" d="M 950,0 V200"/>
<path stroke="#404040" d="M 975,0 V200"/>
<path stroke="#404040" d="M1000,0 V200"/>
<path stroke="#404040" d="M1025,0 V200"/>
<path stroke="#404040" d="M1050,0 V200"/>
<path stroke="#404040" d="M1075,0 V200"/>
<path stroke="#404040" d="M1100,0 V200"/>
<path stroke="#404040" d="M1125,0 V200"/>
<path stroke="#404040" d="M1150,0 V200"/>
<path stroke="#404040" d="M1175,0 V200"/>
<path stroke="#404040" d="M1200,0 V200"/>
<path stroke="#404040" d="M1225,0 V200"/>
<path stroke="#404040" d="M1250,0 V200"/>
<path stroke="#404040" d="M1275,0 V200"/>
<path stroke="#404040" d="M1300,0 V200"/>
<path stroke="#404040" d="M1325,0 V200"/>
<path stroke="#404040" d="M1350,0 V200"/>
<path stroke="#404040" d="M1375,0 V200"/>
<path stroke="#404040" d="M1400,0 V200"/>
<path stroke="#404040" d="M1425,0 V200"/>
<path stroke="#404040" d="M1450,0 V200"/>
<path stroke="#404040" d="M1475,0 V200"/>
<path stroke="#404040" d="M1500,0 V200"/>
<path stroke="#404040" d="M1525,0 V200"/>
<path stroke="#404040" d="M1550,0 V200"/>
<path stroke="#404040" d="M1575,0 V200"/>
<path stroke="#404040" d="M1600,0 V200"/>
<path stroke="#404040" d="M1625,0 V200"/>
<path stroke="#404040" d="M1650,0 V200"/>
<path stroke="#404040" d="M1675,0 V200"/>
<path stroke="#404040" d="M1700,0 V200"/>
<path stroke="#404040" d="M1725,0 V200"/>
<path stroke="#404040" d="M1750,0 V200"/>
<path stroke="#404040" d="M1775,0 V200"/>
<path stroke="#404040" d="M1800,0 V200"/>
<path stroke="#404040" d="M1825,0 V200"/>
<path stroke="#404040" d="M1850,0 V200"/>
<path stroke="#404040" d="M1875,0 V200"/>
<path stroke="#404040" d="M1900,0 V200"/>
<path stroke="#404040" d="M1925,0 V200"/>
<path stroke="#404040" d="M1950,0 V200"/>
<path stroke="#404040" d="M1975,0 V200"/>
<path stroke="#404040" d="M2000,0 V200"/>
<path stroke="#404040" d="M2025,0 V200"/>
<path stroke="#404040" d="M2050,0 V200"/>
<path stroke="#404040" d="M2075,0 V200"/>
<path stroke="#404040" d="M2100,0 V200"/>
<path stroke="#404040" d="M2125,0 V200"/>
<path stroke="#404040" d="M2150,0 V200"/>
<path stroke="#404040" d="M2175,0 V200"/>
<path stroke="#404040" d="M2200,0 V200"/>
<path stroke="#404040" d="M2225,0 V200"/>
<path stroke="#404040" d="M2250,0 V200"/>
<path stroke="#404040" d="M2275,0 V200"/>
<path stroke="#404040" d="M2300,0 V200"/>
<path stroke="#404040" d="M2325,0 V200"/>
<path stroke="#404040" d="M2350,0 V200"/>
<path stroke="#404040" d="M2375,0 V200"/>
<path stroke="#404040" d="M2400,0 V200"/>
<path stroke="#404040" d="M2425,0 V200"/>
<path stroke="#404040" d="M2450,0 V200"/>
<path stroke="#404040" d="M2475,0 V200"/>
<path stroke="#404040" d="M2500,0 V200"/>
<path stroke="#404040" d="M2525,0 V200"/>
<path stroke="#404040" d="M2550,0 V200"/>
<path stroke="#404040" d="M2575,0 V200"/>
<path stroke="#404040" d="M2600,0 V200"/>
<path stroke="#404040" d="M2625,0 V200"/>
<path stroke="#404040" d="M2650,0 V200"/>
<path stroke="#404040" d="M2675,0 V200"/>
<path stroke="#404040" d="M2700,0 V200"/>
<path stroke="#404040" d="M2725,0 V200"/>
<path stroke="#404040" d="M2750,0 V200"/>
<path stroke="#404040" d="M2775,0 V200"/>
<path stroke="#404040" d="M2800,0 V200"/>
<path stroke="#404040" d="M2825,0 V200"/>
<path stroke="#404040" d="M2850,0 V200"/>
<path stroke="#404040" d="M2875,0 V200"/>
<path stroke="#404040" d="M2900,0 V200"/>
<path stroke="#404040" d="M2925,0 V200"/>
<path stroke="#404040" d="M2950,0 V200"/>
<path stroke="#404040" d="M2975,0 V200"/>
<path stroke="#404040" d="M3000,0 V200"/>
<path stroke="#404040" d="M3025,0 V200"/>
<path stroke="#404040" d="M3050,0 V200"/>
<path stroke="#404040" d="M3075,0 V200"/>
<path stroke="#404040" d="M3100,0 V200"/>
<path stroke="#404040" d="M3125,0 V200"/>
<path stroke="#404040" d="M3150,0 V200"/>
<path stroke="#404040" d="M3175,0 V200"/>
<path stroke="#404040" d="M3200,0 V200"/>
<path stroke="#404040" d="M3225,0 V200"/>
<path stroke="#404040" d="M3250,0 V200"/>
<path stroke="#404040" d="M3275,0 V200"/>
<path stroke="#404040" d="M3300,0 V200"/>
<path stroke="#404040" d="M3325,0 V200"/>
<path stroke="#404040" d="M3350,0 V200"/>
<path stroke="#404040" d="M3375,0 V200"/>
<path stroke="#404040" d="M3400,0 V200"/>
<path stroke="#404040" d="M3425,0 V200"/>
<path stroke="#404040" d="M3450,0 V200"/>
<path stroke="#404040" d="M3475,0 V200"/>
<path stroke="#404040" d="M3500,0 V200"/>
<path stroke="#404040" d="M3525,0 V200"/>
<path stroke="#404040" d="M3550,0 V200"/>
<path stroke="#404040" d="M3575,0 V200"/>
<path stroke="#404040" d="M3600,0 V200"/>
<path stroke="#404040" d="M3625,0 V200"/>
<path stroke="#404040" d="M3650,0 V200"/>
<path stroke="#404040" d="M3675,0 V200"/>
<path stroke="#404040" d="M3700,0 V200"/>
<path stroke="#404040" d="M3725,0 V200"/>
<path stroke="#404040" d="M3750,0 V200"/>
<path stroke="#404040" d="M3775,0 V200"/>
<path stroke="#404040" d="M3800,0 V200"/>
<path stroke="#404040" d="M3825,0 V200"/>
<path stroke="#404040" d="M3850,0 V200"/>
<path stroke="#404040" d="M3875,0 V200"/>
<path stroke="#404040" d="M3900,0 V200"/>
<path stroke="#404040" d="M3925,0 V200"/>
<path stroke="#404040" d="M3950,0 V200"/>
<path stroke="#404040" d="M3975,0 V200"/>
<path stroke="#404040" d="M4000,0 V200"/>
<path stroke="#404040" d="M4025,0 V200"/>
<path stroke="#404040" d="M4050,0 V200"/>
<path stroke="#404040" d="M4075,0 V200"/>
<path stroke="cyan" fill="none" stroke-width="1" d="M   0, 100 L   1,  72 L   2,  99 L   3,  99 L   4,  99 L   5,  99 L   6,  72 L   7,  99 L   8,  99 L   9, 100 L  10, 100 L  11,  72 L  12,  99 L  13,  99 L  14, 100 L  15,  99 L  16,  72 L  17,  99 L  18,  99 L  19, 100 L  20, 100 L  21,  72 L  22,  99 L  23,  98 L  24, 100 L  25,  99 L  26,  72 L  27, 100 L  28,  99 L  29, 100 L  30, 100 L  31,  72 L  32,  99 L  33,  99 L  34, 100 L  35,  99 L  36,  73 L  37, 100 L  38,  99 L  39, 100 L  40,  99 L  41,  72 L  42, 100 L  43, 100 L  44, 100 L  45,  99 L  46,  72 L  47,  99 L  48,  99 L  49, 100 L  50, 100 L  51,  72 L  52,  99 L  53, 100 L  54, 100 L  55, 100 L  56,  72 L  57,  99 L  58,  99 L  59, 100 L  60,  99 L  61,  72 L  62,  99 L  63,  99 L  64,  99 L  65,  99 L  66,  73 L  67,  99 L  68,  99 L  69, 100 L  70, 100 L  71,  72 L  72,  99 L  73,  99 L  74,  99 L  75, 100 L  76,  72 L  77,  99 L  78,  99 L  79,  99 L  80,  99 L  81,  72 L  82,  99 L  83, 100 L  84, 100 L  85, 100 L  86,  72 L  87,  99 L  88,  99 L  89, 100 L  90, 100 L  91,  72 L  92,  99 L  93,  99 L  94,  99 L  95,  99 L  96,  72 L  97,  99 L  98,  99 L  99,  99 L 100,  99 L 101,  72 L 102,  99 L 103,  99 L 104, 100 L 105, 100 L 106,  72 L 107,  99 L 108,  99 L 109, 100 L 110,  99 L 111,  72 L 112,  99 L 113,  99 L 114,  99 L 115,  99 L 116,  72 L 117,  99 L 118,  99 L 119,  99 L 120,  99 L 121,  73 L 122,  99 L 123,  99 L 124,  99 L 125, 100 L 126,  73 L 127,  99 L 128,  99 L 129,  99 L 130,  99 L 131,  72 L 132,  99 L 133,  99 L 134,  99 L 135, 100 L 136,  72 L 137, 100 L 138,  99 L 139,  99 L 140, 100 L 141,  72 L 142,  99 L 143,  99 L 144, 100 L 145,  99 L 146,  72 L 147,  99 L 148,  99 L 149, 100 L 150,  99 L 151,  73 L 152,  99 L 153,  99 L 154,  99 L 155, 100 L 156,  72 L 157,  99 L 158,  99 L 159,  99 L 160, 100 L 161,  72 L 162,  99 L 163,  99 L 164,  99 L 165,  99 L 166,  72 L 167, 100 L 168,  99 L 169,  99 L 170,  99 L 171,  72 L 172,  99 L 173,  99 L 174,  99 L 175,  99 L 176,  73 L 177,  99 L 178,  99 L 179,  99 L 180, 100 L 181,  72 L 182,  99 L 183,  99 L 184, 100 L 185, 100 L 186,  72 L 187,  99 L 188,  99 L 189, 100 L 190,  99 L 191,  74 L 192,  99 L 193,  99 L 194, 101 L 195, 100 L 196,  75 L 197,  99 L 198,  99 L 199,  99 L 200, 100 L 201,  76 L 202,  99 L 203,  99 L 204, 100 L 205, 100 L 206,  78 L 207,  99 L 208,  99 L 209,  99 L 210,  99 L 211,  79 L 212,  99 L 213,  99 L 214,  99 L 215,  99 L 216,  80 L 217,  99 L 218,  99 L 219,  99 L 220, 100 L 221,  81 L 222,  99 L 223,  99 L 224, 100 L 225, 100 L 226,  82 L 227,  99 L 228,  99 L 229,  99 L 230,  99 L 231,  84 L 232,  99 L 233,  99 L 234,  99 L 235, 100 L 236,  84 L 237,  99 L 238,  99 L 239, 100 L 240, 100 L 241,  85 L 242,  99 L 243,  99 L 244, 100 L 245,  99 L 246,  87 L 247,  98 L 248,  99 L 249, 100 L 250,  98 L 251,  88 L 252, 100 L 253,  99 L 254, 100 L 255,  99 L 256,  89 L 257,  99 L 258,  99 L 259, 100 L 260, 100 L 261,  90 L 262,  99 L 263,  99 L 264,  99 L 265, 100 L 266,  92 L 267,  99 L 268,  99 L 269, 100 L 270,  99 L 271,  93 L 272,  99 L 273,  99 L 274, 100 L 275, 100 L 276,  94 L 277,  99 L 278,  99 L 279, 100 L 280, 100 L 281,  95 L 282,  99 L 283,  99 L 284, 100 L 285,  99 L 286,  96 L 287,  99 L 288, 100 L 289,  99 L 290, 100 L 291,  97 L 292, 100 L 293,  99 L 294, 100 L 295, 100 L 296,  99 L 297,  99 L 298,  99 L 299, 100 L 300, 100 L 301,  99 L 302, 100 L 303,  99 L 304,  99 L 305, 100 L 306,  99 L 307,  99 L 308, 100 L 309, 100 L 310, 100 L 311,  99 L 312,  99 L 313,  99 L 314,  99 L 315, 100 L 316, 100 L 317,  99 L 318,  99 L 319, 100 L 320, 100 L 321,  99 L 322,  99 L 323,  99 L 324,  99 L 325,  99 L 326, 100 L 327,  99 L 328,  99 L 329, 100 L 330,  99 L 331, 100 L 332,  98 L 333, 100 L 334,  99 L 335,  99 L 336, 100 L 337,  99 L 338, 100 L 339, 100 L 340, 100 L 341,  99 L 342,  99 L 343,  99 L 344, 100 L 345, 100 L 346,  99 L 347,  99 L 348,  99 L 349, 100 L 350, 100 L 351,  99 L 352,  99 L 353,  99 L 354,  99 L 355,  99 L 356, 100 L 357,  99 L 358, 100 L 359, 100 L 360, 100 L 361,  99 L 362,  99 L 363,  99 L 364,  99 L 365, 100 L 366,  99 L 367,  99 L 368,  99 L 369,  99 L 370,  99 L 371,  99 L 372,  99 L 373,  99 L 374, 101 L 375, 100 L 376,  99 L 377,  99 L 378,  99 L 379, 100 L 380,  99 L 381, 100 L 382,  99 L 383,  99 L 384, 100 L 385, 100 L 386, 100 L 387,  99 L 388, 100 L 389,  99 L 390, 100 L 391, 100 L 392,  99 L 393,  99 L 394,  99 L 395, 100 L 396,  99 L 397,  99 L 398,  99 L 399, 100 L 400,  99 L 401,  99 L 402,  99 L 403,  99 L 404, 100 L 405, 100 L 406,  99 L 407, 100 L 408,  99 L 409, 100 L 410, 100 L 411, 100 L 412,  99 L 413,  99 L 414, 100 L 415,  99 L 416, 100 L 417,  99 L 418,  99 L 419, 100 L 420, 100 L 421,  99 L 422,  99 L 423,  99 L 424,  99 L 425, 100 L 426,  99 L 427, 100 L 428,  99 L 429, 100 L 430,  99 L 431,  99 L 432,  99 L 433,  99 L 434, 100 L 435,  99 L 436,  99 L 437,  99 L 438,  99 L 439,  99 L 440,  99 L 441, 100 L 442,  99 L 443,  99 L 444,  99 L 445, 100 L 446,  99 L 447,  99 L 448,  99 L 449,  99 L 450, 100 L 451,  99 L 452,  98 L 453,  99 L 454, 100 L 455, 100 L 456,  99 L 457,  99 L 458,  99 L 459, 100 L 460,  99 L 461, 100 L 462,  99 L 463,  99 L 464, 100 L 465,  99 L 466,  99 L 467, 100 L 468,  99 L 469,  99 L 470, 100 L 471, 100 L 472,  99 L 473, 100 L 474, 100 L 475, 100 L 476, 100 L 477,  99 L 478,  99 L 479,  99 L 480, 100 L 481,  99 L 482,  99 L 483,  99 L 484, 100 L 485,  99 L 486,  99 L 487,  99 L 488,  99 L 489,  99 L 490,  99 L 491, 100 L 492,  99 L 493,  99 L 494, 100 L 495, 100 L 496,  99 L 497,  99 L 498,  99 L 499,  99 L 500,  99 L 501,  99 L 502,  99 L 503, 100 L 504, 100 L 505, 100 L 506,  99 L 507,  99 L 508,  99 L 509, 100 L 510,  99 L 511, 100 L 512,  99 L 513,  99 L 514, 100 L 515,  99 L 516,  99 L 517,  99 L 518,  99 L 519,  99 L 520,  99 L 521,  99 L 522,  99 L 523, 100 L 524, 100 L 525,  99 L 526,  99 L 527,  99 L 528,  99 L 529, 100 L 530, 100 L 531,  99 L 532, 100 L 533,  99 L 534, 100 L 535, 100 L 536, 100 L 537,  99 L 538,  99 L 539, 100 L 540,  99 L 541, 100 L 542,  99 L 543,  99 L 544, 100 L 545, 100 L 546, 100 L 547,  99 L 548,  99 L 549,  99 L 550,  99 L 551, 100 L 552,  99 L 553,  99 L 554,  99 L 555, 100 L 556,  99 L 557,  99 L 558,  99 L 559,  99 L 560,  99 L 561,  99 L 562,  99 L 563,  99 L 564, 101 L 565, 100 L 566,  99 L 567,  99 L 568, 100 L 569, 100 L 570, 100 L 571,  99 L 572,  99 L 573, 100 L 574, 100 L 575,  99 L 576, 100 L 577,  99 L 578,  99 L 579,  99 L 580, 100 L 581, 100 L 582,  99 L 583,  99 L 584,  99 L 585,  99 L 586,  99 L 587,  99 L 588,  99 L 589, 100 L 590, 100 L 591, 100 L 592,  99 L 593,  99 L 594, 100 L 595,  99 L 596, 100 L 597,  99 L 598,  99 L 599,  99 L 600,  99 L 601,  99 L 602,  99 L 603,  99 L 604,  99 L 605, 100 L 606,  98 L 607,  99 L 608,  99 L 609,  99 L 610, 100 L 611,  97 L 612,  99 L 613,  99 L 614, 100 L 615, 100 L 616,  96 L 617,  99 L 618,  99 L 619,  99 L 620, 100 L 621,  94 L 622,  99 L 623,  99 L 624, 100 L 625, 100 L 626,  93 L 627,  99 L 628,  99 L 629,  99 L 630, 100 L 631,  92 L 632,  99 L 633,  99 L 634,  99 L 635, 100 L 636,  91 L 637,  99 L 638,  99 L 639,  99 L 640, 100 L 641,  90 L 642,  99 L 643,  99 L 644, 100 L 645, 100 L 646,  88 L 647,  99 L 648,  99 L 649,  99 L 650,  99 L 651,  88 L 652,  99 L 653,  99 L 654, 100 L 655, 100 L 656,  86 L 657,  99 L 658, 100 L 659,  99 L 660, 100 L 661,  85 L 662,  99 L 663,  99 L 664, 100 L 665,  99 L 666,  84 L 667,  99 L 668,  99 L 669, 100 L 670, 100 L 671,  82 L 672,  99 L 673,  99 L 674, 100 L 675,  99 L 676,  81 L 677,  99 L 678,  99 L 679,  99 L 680,  99 L 681,  80 L 682,  99 L 683, 100 L 684,  99 L 685,  99 L 686,  79 L 687,  99 L 688,  99 L 689,  99 L 690,  99 L 691,  78 L 692,  99 L 693,  99 L 694, 100 L 695, 100 L 696,  77 L 697,  99 L 698,  99 L 699,  99 L 700,  99 L 701,  75 L 702,  99 L 703,  99 L 704, 100 L 705,  99 L 706,  74 L 707,  99 L 708,  99 L 709, 100 L 710, 100 L 711,  73 L 712,  99 L 713,  99 L 714,  99 L 715, 100 L 716,  72 L 717,  99 L 718,  99 L 719,  99 L 720,  99 L 721,  72 L 722,  99 L 723,  99 L 724, 100 L 725,  99 L 726,  72 L 727,  99 L 728,  99 L 729, 100 L 730, 100 L 731,  72 L 732,  99 L 733,  99 L 734, 100 L 735,  99 L 736,  72 L 737,  99 L 738,  99 L 739,  99 L 740,  99 L 741,  72 L 742,  99 L 743,  99 L 744,  99 L 745, 100 L 746,  72 L 747,  99 L 748,  99 L 749,  99 L 750, 100 L 751,  72 L 752,  99 L 753,  99 L 754, 100 L 755, 100 L 756,  72 L 757,  99 L 758,  99 L 759,  99 L 760, 100 L 761,  72 L 762,  99 L 763,  99 L 764, 100 L 765, 100 L 766,  73 L 767,  99 L 768,  99 L 769, 100 L 770, 100 L 771,  72 L 772,  99 L 773,  99 L 774,  99 L 775,  99 L 776,  72 L 777, 100 L 778,  99 L 779, 100 L 780,  99 L 781,  72 L 782,  99 L 783,  99 L 784, 100 L 785,  99 L 786,  72 L 787,  99 L 788,  99 L 789,  99 L 790,  99 L 791,  72 L 792,  99 L 793,  99 L 794, 100 L 795, 100 L 796,  72 L 797,  99 L 798,  99 L 799,  99 L 800,  99 L 801,  72 L 802,  99 L 803,  99 L 804, 100 L 805, 100 L 806,  72 L 807,  99 L 808,  99 L 809, 100 L 810,  99 L 811,  72 L 812,  99 L 813,  99 L 814,  99 L 815, 100 L 816,  73 L 817,  99 L 818,  99 L 819,  99 L 820,  99 L 821,  72 L 822,  99 L 823,  99 L 824,  99 L 825,  99 L 826,  72 L 827,  99 L 828,  99 L 829,  99 L 830, 100 L 831,  88 L 832,  99 L 833,  72 L 834, 100 L 835,  99 L 836,  99 L 837,  99 L 838,  72 L 839, 100 L 840,  99 L 841,  99 L 842,  99 L 843,  72 L 844,  99 L 845, 100 L 846,  99 L 847,  99 L 848,  72 L 849, 100 L 850, 100 L 851,  99 L 852,  98 L 853,  72 L 854, 100 L 855, 100 L 856,  99 L 857,  99 L 858,  72 L 859, 100 L 860, 100 L 861, 100 L 862,  99 L 863,  72 L 864, 100 L 865,  99 L 866, 100 L 867,  99 L 868,  72 L 869,  99 L 870,  99 L 871,  99 L 872,  99 L 873,  72 L 874,  99 L 875,  99 L 876,  99 L 877,  99 L 878,  72 L 879,  99 L 880, 100 L 881, 100 L 882,  99 L 883,  72 L 884, 100 L 885, 100 L 886,  99 L 887,  99 L 888,  72 L 889, 100 L 890,  99 L 891, 100 L 892,  99 L 893,  72 L 894,  99 L 895,  99 L 896, 100 L 897,  99 L 898,  72 L 899,  99 L 900,  99 L 901,  99 L 902,  99 L 903,  72 L 904,  99 L 905, 100 L 906, 100 L 907,  99 L 908,  72 L 909, 100 L 910,  99 L 911, 100 L 912, 100 L 913,  72 L 914,  99 L 915,  99 L 916,  99 L 917, 100 L 918,  72 L 919, 100 L 920,  99 L 921,  99 L 922,  99 L 923,  73 L 924,  99 L 925,  99 L 926,  99 L 927,  99 L 928,  75 L 929,  99 L 930,  99 L 931,  99 L 932,  99 L 933,  76 L 934,  99 L 935,  99 L 936,  99 L 937,  99 L 938,  77 L 939, 100 L 940,  99 L 941,  99 L 942,  99 L 943,  78 L 944, 100 L 945,  99 L 946, 100 L 947,  99 L 948,  79 L 949,  99 L 950,  99 L 951, 100 L 952,  99 L 953,  80 L 954,  99 L 955,  99 L 956,  99 L 957,  99 L 958,  82 L 959,  99 L 960, 100 L 961,  99 L 962,  99 L 963,  82 L 964,  99 L 965,  99 L 966, 100 L 967,  99 L 968,  84 L 969,  99 L 970, 100 L 971, 100 L 972,  99 L 973,  85 L 974,  99 L 975,  99 L 976,  99 L 977,  99 L 978,  87 L 979,  99 L 980,  99 L 981,  99 L 982,  99 L 983,  88 L 984,  99 L 985,  99 L 986,  99 L 987,  99 L 988,  89 L 989, 100 L 990,  99 L 991,  99 L 992,  99 L 993,  90 L 994, 100 L 995,  99 L 996,  99 L 997,  99 L 998,  91 L 999,  99 L1000,  99 L1001, 100 L1002, 100 L1003,  93 L1004, 100 L1005,  99 L1006, 100 L1007,  99 L1008,  94 L1009,  99 L1010, 100 L1011,  99 L1012,  99 L1013,  95 L1014,  99 L1015, 100 L1016, 100 L1017,  99 L1018,  96 L1019, 100 L1020,  99 L1021, 100 L1022,  99 L1023,  97 L1024, 100 L1025,  99 L1026, 100 L1027,  99 L1028,  98 L1029,  99 L1030, 100 L1031,  99 L1032,  99 L1033,  99 L1034,  99 L1035, 100 L1036, 100 L1037,  99 L1038,  99 L1039,  99 L1040, 100 L1041,  99 L1042,  99 L1043,  99 L1044, 100 L1045,  99 L1046,  99 L1047,  99 L1048,  99 L1049, 100 L1050,  99 L1051, 100 L1052,  99 L1053,  99 L1054,  99 L1055,  99 L1056,  99 L1057,  99 L1058,  99 L1059,  99 L1060,  99 L1061,  99 L1062,  99 L1063,  99 L1064,  99 L1065,  99 L1066,  99 L1067,  99 L1068,  99 L1069, 100 L1070,  99 L1071,  99 L1072,  99 L1073,  99 L1074,  99 L1075,  99 L1076, 100 L1077,  99 L1078,  99 L1079,  99 L1080,  99 L1081, 100 L1082,  99 L1083,  99 L1084,  99 L1085, 100 L1086, 100 L1087,  99 L1088,  99 L1089,  99 L1090, 100 L1091, 100 L1092, 100 L1093,  99 L1094,  99 L1095, 100 L1096,  99 L1097, 100 L1098,  99 L1099, 100 L1100,  99 L1101, 100 L1102,  99 L1103,  99 L1104, 100 L1105,  99 L1106, 100 L1107,  99 L1108,  99 L1109,  99 L1110,  99 L1111, 100 L1112,  99 L1113,  99 L1114, 100 L1115, 100 L1116, 100 L1117,  99 L1118,  99 L1119, 100 L1120, 100 L1121,  99 L1122,  99 L1123,  99 L1124,  99 L1125, 100 L1126, 100 L1127, 100 L1128, 100 L1129, 100 L1130,  99 L1131, 100 L1132,  99 L1133,  99 L1134,  99 L1135,  99 L1136,  99 L1137,  99 L1138,  99 L1139,  99 L1140, 100 L1141, 100 L1142,  99 L1143,  99 L1144,  99 L1145, 100 L1146,  99 L1147,  99 L1148,  99 L1149, 100 L1150, 100 L1151, 100 L1152, 100 L1153,  99 L1154, 100 L1155,  99 L1156,  99 L1157,  99 L1158,  99 L1159,  99 L1160,  99 L1161, 100 L1162,  99 L1163,  99 L1164, 100 L1165,  99 L1166, 100 L1167,  99 L1168, 100 L1169, 100 L1170,  99 L1171,  99 L1172,  99 L1173,  99 L1174, 100 L1175, 100 L1176,  99 L1177,  99 L1178,  99 L1179, 100 L1180,  99 L1181,  99 L1182, 100 L1183,  99 L1184, 100 L1185,  99 L1186, 100 L1187,  99 L1188,  99 L1189, 100 L1190,  99 L1191,  99 L1192,  99 L1193,  99 L1194,  99 L1195, 100 L1196,  99 L1197, 100 L1198,  99 L1199,  99 L1200, 100 L1201,  99 L1202,  99 L1203,  99 L1204,  99 L1205,  99 L1206, 100 L1207,  99 L1208,  99 L1209,  99 L1210, 100 L1211, 100 L1212,  99 L1213,  99 L1214,  99 L1215,  99 L1216,  99 L1217,  99 L1218,  99 L1219,  99 L1220, 100 L1221,  99 L1222,  99 L1223, 100 L1224,  99 L1225,  99 L1226,  99 L1227,  99 L1228,  99 L1229, 100 L1230,  99 L1231, 100 L1232,  99 L1233,  99 L1234, 100 L1235, 100 L1236, 100 L1237,  99 L1238,  99 L1239,  99 L1240, 100 L1241, 100 L1242,  99 L1243, 100 L1244,  99 L1245,  99 L1246, 100 L1247,  99 L1248,  99 L1249,  99 L1250, 100 L1251,  99 L1252,  99 L1253,  99 L1254,  99 L1255, 100 L1256,  99 L1257,  99 L1258,  99 L1259,  99 L1260,  99 L1261,  99 L1262,  99 L1263,  99 L1264,  99 L1265,  99 L1266, 100 L1267,  99 L1268, 100 L1269,  99 L1270,  99 L1271, 100 L1272,  99 L1273,  99 L1274,  99 L1275, 100 L1276,  99 L1277,  99 L1278,  99 L1279,  99 L1280, 100 L1281, 100 L1282,  99 L1283,  99 L1284, 100 L1285, 100 L1286,  99 L1287,  99 L1288,  99 L1289, 100 L1290, 100 L1291, 100 L1292,  99 L1293,  99 L1294,  99 L1295,  99 L1296, 100 L1297,  99 L1298, 100 L1299, 100 L1300,  99 L1301,  99 L1302,  99 L1303,  99 L1304,  99 L1305,  99 L1306,  99 L1307,  99 L1308,  99 L1309, 100 L1310,  99 L1311,  99 L1312,  99 L1313,  99 L1314,  99 L1315,  99 L1316,  99 L1317,  99 L1318,  99 L1319, 100 L1320,  99 L1321,  99 L1322,  99 L1323,  99 L1324,  99 L1325, 100 L1326,  99 L1327,  99 L1328,  99 L1329,  99 L1330, 100 L1331, 100 L1332,  99 L1333,  99 L1334,  99 L1335, 100 L1336,  99 L1337,  99 L1338,  98 L1339, 100 L1340,  99 L1341,  99 L1342,  99 L1343,  97 L1344, 100 L1345,  99 L1346,  99 L1347,  99 L1348,  96 L1349,  99 L1350,  99 L1351,  99 L1352, 100 L1353, 100 L1354,  72 L1355, 100 L1356,  99 L1357,  99 L1358, 100 L1359, 100 L1360, 100 L1361, 100 L1362,  73 L1363,  72 L1364,  99 L1365, 100 L1366,  99 L1367, 100 L1368,  99 L1369,  99 L1370,  72 L1371,  73 L1372,  99 L1373,  99 L1374, 100 L1375,  99 L1376, 100 L1377,  99 L1378, 100 L1379,  72 L1380, 100 L1381, 100 L1382, 100 L1383, 100 L1384,  99 L1385, 100 L1386,  99 L1387,  72 L1388,  72 L1389,  99 L1390, 100 L1391, 100 L1392, 100 L1393,  99 L1394, 100 L1395,  72 L1396,  73 L1397,  99 L1398,  99 L1399, 100 L1400, 100 L1401, 100 L1402, 100 L1403, 100 L1404,  72 L1405, 100 L1406, 100 L1407, 100 L1408,  99 L1409,  99 L1410, 100 L1411,  99 L1412,  73 L1413,  72 L1414,  99 L1415, 100 L1416,  99 L1417,  99 L1418,  99 L1419, 100 L1420,  72 L1421,  72 L1422, 100 L1423,  99 L1424, 100 L1425, 100 L1426, 100 L1427, 100 L1428, 100 L1429,  72 L1430,  99 L1431,  99 L1432, 100 L1433, 100 L1434,  99 L1435,  99 L1436,  99 L1437,  72 L1438,  73 L1439, 100 L1440,  99 L1441, 100 L1442, 100 L1443,  99 L1444, 100 L1445,  72 L1446,  73 L1447, 100 L1448, 100 L1449, 100 L1450, 100 L1451, 100 L1452,  99 L1453, 100 L1454,  72 L1455,  99 L1456,  99 L1457, 100 L1458, 100 L1459, 100 L1460, 100 L1461,  98 L1462,  72 L1463,  72 L1464,  99 L1465,  99 L1466, 100 L1467, 100 L1468,  99 L1469, 100 L1470,  72 L1471,  72 L1472, 100 L1473,  99 L1474, 100 L1475,  99 L1476, 100 L1477,  99 L1478, 100 L1479,  72 L1480,  96 L1481, 100 L1482,  99 L1483, 100 L1484,  99 L1485,  99 L1486,  99 L1487,  72 L1488,  72 L1489,  99 L1490,  99 L1491,  99 L1492, 100 L1493, 100 L1494,  99 L1495,  99 L1496,  72 L1497, 100 L1498,  99 L1499, 100 L1500,  99 L1501,  99 L1502, 100 L1503, 100 L1504,  72 L1505,  72 L1506, 100 L1507,  99 L1508, 100 L1509,  99 L1510, 100 L1511, 100 L1512,  73 L1513,  72 L1514,  99 L1515, 100 L1516, 100 L1517, 100 L1518, 100 L1519, 100 L1520, 100 L1521,  73 L1522,  99 L1523,  99 L1524, 100 L1525,  99 L1526,  99 L1527,  99 L1528, 100 L1529,  72 L1530,  73 L1531, 100 L1532,  99 L1533,  99 L1534, 100 L1535, 100 L1536,  99 L1537,  73 L1538,  72 L1539,  99 L1540,  99 L1541, 100 L1542, 100 L1543, 100 L1544,  99 L1545,  99 L1546,  72 L1547, 100 L1548,  99 L1549, 100 L1550, 100 L1551, 100 L1552,  99 L1553, 100 L1554,  72 L1555,  72 L1556, 100 L1557, 100 L1558, 100 L1559,  99 L1560, 100 L1561, 100 L1562,  72 L1563,  72 L1564, 100 L1565, 100 L1566,  99 L1567, 100 L1568,  99 L1569,  99 L1570, 100 L1571,  72 L1572, 100 L1573, 100 L1574, 100 L1575,  99 L1576, 100 L1577,  99 L1578, 100 L1579,  72 L1580,  72 L1581, 100 L1582, 100 L1583, 100 L1584,  99 L1585, 100 L1586, 100 L1587,  72 L1588,  72 L1589,  99 L1590, 100 L1591,  99 L1592, 100 L1593,  99 L1594, 100 L1595,  99 L1596,  73 L1597, 100 L1598, 100 L1599, 100 L1600,  99 L1601, 100 L1602,  99 L1603,  99 L1604,  72 L1605,  72 L1606, 100 L1607,  99 L1608,  99 L1609,  99 L1610,  99 L1611,  99 L1612,  72 L1613,  72 L1614, 100 L1615,  99 L1616, 100 L1617, 100 L1618,  99 L1619, 100 L1620,  99 L1621,  73 L1622, 100 L1623,  99 L1624, 100 L1625,  99 L1626, 100 L1627, 100 L1628, 100 L1629,  72 L1630,  72 L1631, 100 L1632,  99 L1633, 100 L1634, 100 L1635, 100 L1636, 100 L1637,  72 L1638,  72 L1639, 100 L1640, 100 L1641,  99 L1642,  99 L1643, 100 L1644, 100 L1645, 100 L1646,  72 L1647,  99 L1648,  99 L1649, 100 L1650,  99 L1651, 100 L1652,  99 L1653, 100 L1654,  72 L1655,  72 L1656, 100 L1657,  99 L1658, 100 L1659, 100 L1660,  99 L1661,  99 L1662,  72 L1663,  72 L1664,  99 L1665, 100 L1666,  99 L1667, 100 L1668, 100 L1669, 100 L1670,  99 L1671,  73 L1672, 100 L1673,  99 L1674, 100 L1675, 100 L1676,  99 L1677, 100 L1678, 100 L1679,  72 L1680,  72 L1681, 100 L1682,  99 L1683, 100 L1684,  99 L1685, 100 L1686,  99 L1687,  72 L1688,  72 L1689,  99 L1690, 100 L1691, 100 L1692, 100 L1693,  99 L1694, 100 L1695,  99 L1696,  72 L1697, 100 L1698,  99 L1699,  99 L1700,  99 L1701,  99 L1702,  99 L1703, 100 L1704,  72 L1705,  72 L1706, 100 L1707, 100 L1708,  99 L1709, 100 L1710, 100 L1711,  99 L1712,  72 L1713,  72 L1714,  99 L1715, 100 L1716,  99 L1717,  99 L1718,  99 L1719, 100 L1720,  99 L1721,  72 L1722, 100 L1723,  99 L1724, 100 L1725,  99 L1726, 100 L1727,  99 L1728, 100 L1729,  72 L1730,  72 L1731,  99 L1732,  99 L1733, 100 L1734, 100 L1735, 100 L1736, 100 L1737,  72 L1738,  72 L1739,  99 L1740, 100 L1741,  99 L1742, 100 L1743,  99 L1744,  99 L1745,  99 L1746,  72 L1747, 100 L1748, 100 L1749,  99 L1750,  99 L1751, 100 L1752,  99 L1753,  99 L1754,  72 L1755,  72 L1756, 100 L1757,  99 L1758, 100 L1759,  99 L1760,  99 L1761, 100 L1762,  72 L1763,  72 L1764,  99 L1765, 100 L1766,  99 L1767, 100 L1768,  99 L1769,  99 L1770,  99 L1771,  73 L1772,  99 L1773,  99 L1774, 100 L1775,  99 L1776,  99 L1777, 100 L1778,  99 L1779,  72 L1780,  72 L1781,  99 L1782,  99 L1783, 100 L1784,  99 L1785,  99 L1786, 100 L1787,  73 L1788,  72 L1789,  99 L1790, 100 L1791,  99 L1792,  99 L1793, 100 L1794, 100 L1795,  99 L1796,  73 L1797, 100 L1798,  99 L1799, 100 L1800, 100 L1801,  99 L1802,  99 L1803, 100 L1804,  72 L1805,  72 L1806, 100 L1807, 100 L1808, 100 L1809,  99 L1810,  99 L1811,  99 L1812,  72 L1813,  73 L1814,  99 L1815, 100 L1816, 100 L1817,  99 L1818,  99 L1819, 100 L1820,  99 L1821,  72 L1822, 100 L1823,  99 L1824,  99 L1825, 100 L1826, 100 L1827,  99 L1828, 100 L1829,  72 L1830,  72 L1831, 100 L1832,  99 L1833, 100 L1834, 100 L1835, 100 L1836,  99 L1837,  73 L1838,  73 L1839,  99 L1840,  99 L1841, 100 L1842, 100 L1843,  99 L1844, 100 L1845,  99 L1846,  72 L1847, 100 L1848,  99 L1849, 100 L1850,  99 L1851, 100 L1852,  99 L1853,  99 L1854,  72 L1855,  72 L1856, 100 L1857, 100 L1858, 100 L1859,  99 L1860, 100 L1861,  99 L1862,  72 L1863,  72 L1864, 100 L1865,  99 L1866,  99 L1867, 100 L1868,  99 L1869,  99 L1870, 100 L1871,  72 L1872,  99 L1873, 100 L1874, 100 L1875,  99 L1876, 100 L1877, 100 L1878,  99 L1879,  73 L1880,  73 L1881, 100 L1882, 100 L1883, 100 L1884,  99 L1885,  99 L1886, 100 L1887,  73 L1888,  73 L1889, 100 L1890, 100 L1891,  99 L1892, 100 L1893, 100 L1894, 100 L1895,  99 L1896,  74 L1897, 100 L1898, 100 L1899,  99 L1900,  99 L1901, 100 L1902, 100 L1903, 100 L1904,  74 L1905,  74 L1906, 100 L1907,  99 L1908, 100 L1909,  99 L1910,  99 L1911,  99 L1912,  74 L1913,  74 L1914,  99 L1915, 100 L1916,  99 L1917,  99 L1918,  99 L1919,  99 L1920,  99 L1921,  75 L1922, 100 L1923,  99 L1924, 100 L1925,  99 L1926, 100 L1927,  99 L1928, 100 L1929,  75 L1930,  74 L1931, 100 L1932,  99 L1933, 100 L1934, 100 L1935,  99 L1936,  99 L1937,  76 L1938,  76 L1939,  99 L1940, 100 L1941,  99 L1942,  99 L1943,  99 L1944, 100 L1945,  99 L1946,  76 L1947, 100 L1948,  99 L1949, 100 L1950,  99 L1951, 100 L1952,  99 L1953, 100 L1954,  76 L1955,  76 L1956, 100 L1957, 100 L1958,  99 L1959,  99 L1960,  99 L1961,  99 L1962,  77 L1963,  77 L1964,  99 L1965,  99 L1966,  99 L1967,  99 L1968,  99 L1969, 100 L1970,  99 L1971,  77 L1972, 100 L1973, 100 L1974,  99 L1975, 100 L1976, 100 L1977,  99 L1978,  99 L1979,  78 L1980,  77 L1981, 100 L1982,  99 L1983, 100 L1984, 100 L1985, 100 L1986,  99 L1987,  78 L1988,  78 L1989,  99 L1990,  99 L1991,  99 L1992, 100 L1993,  99 L1994, 100 L1995,  98 L1996,  78 L1997,  99 L1998, 100 L1999, 100 L2000,  99 L2001, 100 L2002,  99 L2003, 100 L2004,  79 L2005,  79 L2006, 100 L2007, 100 L2008,  99 L2009,  99 L2010,  99 L2011,  99 L2012,  79 L2013,  78 L2014,  99 L2015,  99 L2016,  99 L2017, 100 L2018,  99 L2019,  99 L2020, 100 L2021,  79 L2022, 100 L2023, 100 L2024, 100 L2025, 100 L2026, 100 L2027, 100 L2028,  99 L2029,  80 L2030,  80 L2031,  99 L2032, 100 L2033, 100 L2034,  99 L2035,  99 L2036,  99 L2037,  80 L2038,  80 L2039, 100 L2040, 100 L2041,  99 L2042,  99 L2043, 100 L2044, 100 L2045, 101 L2046,  81 L2047, 100 L2048,  99 L2049, 100 L2050,  99 L2051,  99 L2052,  99 L2053, 100 L2054,  81 L2055,  81 L2056, 100 L2057,  99 L2058, 100 L2059, 100 L2060, 100 L2061,  99 L2062,  81 L2063,  81 L2064,  99 L2065, 100 L2066, 100 L2067,  99 L2068,  99 L2069, 100 L2070,  99 L2071,  82 L2072, 100 L2073,  99 L2074,  99 L2075,  99 L2076, 100 L2077,  99 L2078, 100 L2079,  82 L2080,  82 L2081, 100 L2082, 100 L2083,  99 L2084, 100 L2085, 100 L2086,  99 L2087,  82 L2088,  82 L2089,  99 L2090, 100 L2091, 100 L2092, 100 L2093,  99 L2094, 100 L2095, 100 L2096,  83 L2097,  99 L2098,  99 L2099,  99 L2100,  99 L2101, 100 L2102,  99 L2103, 100 L2104,  83 L2105,  83 L2106, 100 L2107, 100 L2108, 100 L2109,  99 L2110, 100 L2111,  99 L2112,  84 L2113,  84 L2114,  99 L2115, 100 L2116, 100 L2117,  99 L2118,  99 L2119,  99 L2120, 100 L2121,  84 L2122, 100 L2123, 100 L2124, 100 L2125,  99 L2126, 100 L2127,  99 L2128, 100 L2129,  84 L2130,  84 L2131, 100 L2132, 100 L2133, 100 L2134,  99 L2135, 100 L2136,  99 L2137,  85 L2138,  85 L2139,  99 L2140, 100 L2141,  99 L2142, 100 L2143,  99 L2144, 100 L2145, 100 L2146,  85 L2147, 100 L2148, 100 L2149, 100 L2150,  99 L2151, 100 L2152,  99 L2153, 100 L2154,  85 L2155,  86 L2156,  99 L2157,  99 L2158, 100 L2159, 100 L2160, 100 L2161, 100 L2162,  86 L2163,  86 L2164, 100 L2165, 100 L2166,  99 L2167, 100 L2168, 100 L2169, 100 L2170,  99 L2171,  87 L2172, 100 L2173,  99 L2174, 100 L2175,  99 L2176,  99 L2177,  99 L2178, 100 L2179,  87 L2180,  87 L2181, 100 L2182,  99 L2183, 100 L2184, 100 L2185,  99 L2186,  99 L2187,  87 L2188,  87 L2189,  99 L2190, 100 L2191,  99 L2192,  99 L2193,  99 L2194,  99 L2195,  99 L2196,  88 L2197, 100 L2198,  99 L2199, 100 L2200,  99 L2201,  98 L2202,  99 L2203, 100 L2204,  88 L2205,  88 L2206,  99 L2207, 100 L2208, 100 L2209, 100 L2210, 100 L2211,  99 L2212,  88 L2213,  88 L2214,  99 L2215, 100 L2216, 100 L2217,  99 L2218, 100 L2219, 100 L2220, 100 L2221,  89 L2222, 100 L2223, 100 L2224, 100 L2225,  99 L2226, 100 L2227,  99 L2228, 100 L2229,  89 L2230,  89 L2231, 100 L2232,  99 L2233, 100 L2234,  99 L2235, 100 L2236,  99 L2237,  90 L2238,  90 L2239,  99 L2240, 100 L2241,  99 L2242, 100 L2243, 100 L2244, 100 L2245, 100 L2246,  90 L2247, 100 L2248, 100 L2249, 100 L2250,  99 L2251, 100 L2252,  99 L2253, 100 L2254,  90 L2255,  90 L2256, 100 L2257, 100 L2258, 100 L2259,  99 L2260, 100 L2261,  99 L2262,  91 L2263,  91 L2264, 100 L2265, 100 L2266,  99 L2267, 100 L2268, 100 L2269, 100 L2270,  99 L2271,  91 L2272, 100 L2273, 100 L2274, 100 L2275,  99 L2276, 100 L2277, 100 L2278,  99 L2279,  91 L2280,  92 L2281,  99 L2282,  99 L2283, 100 L2284, 100 L2285, 100 L2286, 100 L2287,  92 L2288,  92 L2289, 100 L2290, 100 L2291,  99 L2292,  99 L2293,  99 L2294, 100 L2295, 100 L2296,  92 L2297, 100 L2298,  99 L2299, 100 L2300,  99 L2301, 100 L2302,  99 L2303,  99 L2304,  93 L2305,  93 L2306, 100 L2307,  99 L2308, 100 L2309, 100 L2310,  99 L2311, 100 L2312,  93 L2313,  93 L2314,  99 L2315, 100 L2316,  99 L2317,  99 L2318, 100 L2319, 101 L2320,  99 L2321,  94 L2322, 100 L2323, 100 L2324, 100 L2325, 100 L2326, 100 L2327,  99 L2328, 100 L2329,  94 L2330,  94 L2331, 100 L2332,  99 L2333, 100 L2334, 100 L2335, 100 L2336,  99 L2337,  94 L2338,  94 L2339,  99 L2340, 100 L2341,  99 L2342, 100 L2343, 100 L2344, 100 L2345,  99 L2346,  95 L2347, 100 L2348,  99 L2349, 100 L2350, 100 L2351,  99 L2352,  99 L2353, 100 L2354,  95 L2355,  95 L2356, 100 L2357,  99 L2358,  99 L2359, 100 L2360, 100 L2361,  99 L2362,  96 L2363,  96 L2364, 100 L2365, 100 L2366,  99 L2367, 100 L2368,  99 L2369, 100 L2370,  99 L2371,  96 L2372, 100 L2373,  99 L2374, 100 L2375,  99 L2376, 100 L2377,  99 L2378, 100 L2379,  96 L2380,  96 L2381, 100 L2382,  99 L2383, 100 L2384,  99 L2385, 100 L2386,  99 L2387,  96 L2388,  96 L2389, 100 L2390,  99 L2391, 100 L2392, 100 L2393,  99 L2394, 100 L2395,  99 L2396,  97 L2397, 100 L2398, 100 L2399,  99 L2400,  99 L2401, 100 L2402, 100 L2403, 100 L2404,  97 L2405,  97 L2406, 100 L2407, 100 L2408, 100 L2409,  99 L2410, 100 L2411,  99 L2412,  97 L2413,  97 L2414,  99 L2415,  99 L2416,  99 L2417, 100 L2418,  99 L2419, 100 L2420, 100 L2421,  99 L2422, 100 L2423,  99 L2424,  99 L2425,  99 L2426, 100 L2427, 100 L2428, 100 L2429,  99 L2430,  99 L2431, 100 L2432,  99 L2433, 100 L2434,  99 L2435,  99 L2436,  99 L2437,  99 L2438,  99 L2439, 100 L2440, 100 L2441,  99 L2442, 100 L2443,  99 L2444, 100 L2445,  99 L2446,  99 L2447,  99 L2448,  99 L2449, 100 L2450,  99 L2451,  99 L2452,  99 L2453, 100 L2454, 100 L2455,  99 L2456, 100 L2457,  99 L2458, 100 L2459, 100 L2460, 100 L2461, 100 L2462, 100 L2463,  99 L2464,  99 L2465, 100 L2466, 100 L2467,  99 L2468, 100 L2469, 100 L2470,  99 L2471, 100 L2472, 100 L2473, 100 L2474,  99 L2475, 100 L2476, 100 L2477, 100 L2478, 100 L2479,  99 L2480,  99 L2481, 100 L2482, 100 L2483, 100 L2484,  99 L2485, 100 L2486,  99 L2487, 100 L2488, 100 L2489,  99 L2490, 100 L2491,  99 L2492,  99 L2493,  99 L2494, 100 L2495, 100 L2496, 100 L2497, 100 L2498,  99 L2499, 100 L2500, 100 L2501, 100 L2502,  99 L2503, 100 L2504, 100 L2505, 100 L2506, 100 L2507,  99 L2508, 100 L2509, 100 L2510, 100 L2511,  99 L2512, 100 L2513, 100 L2514, 100 L2515, 100 L2516,  99 L2517,  99 L2518,  99 L2519, 100 L2520,  99 L2521,  99 L2522,  99 L2523, 100 L2524,  99 L2525,  99 L2526, 100 L2527,  99 L2528,  99 L2529, 100 L2530, 100 L2531, 100 L2532, 100 L2533, 100 L2534,  99 L2535, 100 L2536, 100 L2537, 100 L2538, 100 L2539,  99 L2540,  99 L2541,  99 L2542, 100 L2543,  99 L2544, 100 L2545, 100 L2546,  99 L2547, 100 L2548,  99 L2549, 100 L2550,  99 L2551,  99 L2552, 100 L2553, 100 L2554,  99 L2555,  99 L2556,  99 L2557,  99 L2558, 100 L2559, 100 L2560, 100 L2561,  99 L2562, 100 L2563, 100 L2564, 100 L2565, 100 L2566,  99 L2567, 100 L2568, 100 L2569, 100 L2570, 100 L2571, 100 L2572,  99 L2573,  99 L2574, 100 L2575,  99 L2576,  99 L2577, 100 L2578, 100 L2579,  99 L2580, 100 L2581, 100 L2582,  99 L2583, 100 L2584, 100 L2585, 100 L2586,  99 L2587, 100 L2588, 100 L2589,  99 L2590, 100 L2591,  99 L2592, 100 L2593, 100 L2594, 100 L2595,  99 L2596, 100 L2597, 100 L2598,  99 L2599, 100 L2600, 100 L2601, 100 L2602,  99 L2603, 100 L2604,  99 L2605,  99 L2606, 100 L2607,  99 L2608,  99 L2609, 100 L2610, 100 L2611, 100 L2612, 100 L2613,  99 L2614,  99 L2615, 100 L2616,  99 L2617, 100 L2618,  99 L2619, 100 L2620, 100 L2621,  99 L2622, 100 L2623,  99 L2624, 100 L2625, 100 L2626, 100 L2627,  99 L2628, 100 L2629,  99 L2630,  99 L2631,  99 L2632,  99 L2633, 100 L2634,  99 L2635, 100 L2636,  99 L2637, 100 L2638, 100 L2639, 100 L2640,  99 L2641, 100 L2642, 100 L2643,  99 L2644, 100 L2645, 100 L2646, 100 L2647, 100 L2648,  99 L2649, 100 L2650,  99 L2651, 100 L2652,  99 L2653, 100 L2654,  99 L2655,  99 L2656,  99 L2657,  99 L2658, 100 L2659,  99 L2660, 100 L2661,  99 L2662, 100 L2663, 100 L2664,  99 L2665, 100 L2666,  99 L2667, 100 L2668,  99 L2669, 100 L2670,  99 L2671, 100 L2672, 100 L2673, 100 L2674,  99 L2675,  99 L2676,  99 L2677,  99 L2678, 100 L2679, 100 L2680,  99 L2681, 100 L2682,  99 L2683, 100 L2684,  99 L2685, 100 L2686,  99 L2687, 100 L2688, 100 L2689,  99 L2690, 100 L2691, 100 L2692, 100 L2693,  99 L2694, 100 L2695,  99 L2696, 100 L2697, 100 L2698,  99 L2699, 100 L2700,  99 L2701, 100 L2702,  99 L2703, 100 L2704,  99 L2705,  99 L2706, 100 L2707,  99 L2708, 100 L2709, 100 L2710, 100 L2711,  99 L2712, 100 L2713,  99 L2714,  99 L2715, 100 L2716,  99 L2717, 100 L2718, 100 L2719, 100 L2720,  99 L2721, 100 L2722, 100 L2723,  99 L2724, 100 L2725,  99 L2726,  99 L2727, 100 L2728, 100 L2729,  99 L2730,  99 L2731, 100 L2732,  99 L2733, 100 L2734,  99 L2735, 100 L2736, 100 L2737, 100 L2738, 100 L2739, 100 L2740, 100 L2741,  99 L2742, 100 L2743,  99 L2744, 100 L2745, 100 L2746, 100 L2747, 100 L2748,  99 L2749, 100 L2750,  99 L2751, 100 L2752,  99 L2753, 100 L2754,  99 L2755,  99 L2756, 100 L2757,  99 L2758, 100 L2759,  99 L2760, 100 L2761,  99 L2762, 100 L2763, 100 L2764, 100 L2765,  99 L2766,  99 L2767, 100 L2768,  99 L2769, 100 L2770,  99 L2771,  99 L2772, 100 L2773,  99 L2774,  99 L2775,  99 L2776, 100 L2777,  99 L2778, 100 L2779,  99 L2780,  99 L2781, 100 L2782, 100 L2783, 100 L2784,  99 L2785, 100 L2786, 100 L2787, 100 L2788, 100 L2789, 100 L2790,  99 L2791,  99 L2792, 100 L2793,  99 L2794, 100 L2795,  99 L2796,  99 L2797,  99 L2798,  99 L2799,  99 L2800,  99 L2801, 100 L2802,  99 L2803,  99 L2804,  99 L2805,  99 L2806, 100 L2807,  99 L2808, 100 L2809,  99 L2810, 100 L2811,  99 L2812, 100 L2813,  99 L2814,  99 L2815,  99 L2816,  99 L2817, 100 L2818,  99 L2819, 100 L2820,  99 L2821, 100 L2822, 100 L2823, 100 L2824, 100 L2825, 100 L2826,  99 L2827,  99 L2828, 100 L2829,  99 L2830,  99 L2831, 100 L2832, 100 L2833, 100 L2834, 100 L2835,  99 L2836,  99 L2837, 100 L2838,  99 L2839, 100 L2840, 100 L2841,  99 L2842,  99 L2843, 100 L2844,  99 L2845,  99 L2846,  99 L2847,  99 L2848, 100 L2849, 100 L2850,  99 L2851, 100 L2852,  99 L2853,  99 L2854,  99 L2855,  99 L2856,  99 L2857,  99 L2858, 100 L2859, 100 L2860,  99 L2861, 100 L2862,  99 L2863,  99 L2864,  99 L2865,  99 L2866, 100 L2867, 100 L2868, 100 L2869,  99 L2870,  99 L2871,  99 L2872, 100 L2873, 100 L2874,  99 L2875, 100 L2876,  99 L2877,  99 L2878,  99 L2879,  99 L2880,  99 L2881, 100 L2882,  99 L2883, 100 L2884,  99 L2885,  99 L2886,  99 L2887,  99 L2888,  99 L2889,  99 L2890, 100 L2891, 100 L2892, 100 L2893, 100 L2894,  99 L2895,  99 L2896, 100 L2897,  99 L2898, 100 L2899,  99 L2900, 100 L2901, 100 L2902,  99 L2903,  99 L2904,  99 L2905,  99 L2906, 100 L2907,  99 L2908,  99 L2909, 100 L2910,  99 L2911,  99 L2912, 100 L2913,  99 L2914, 100 L2915, 100 L2916,  99 L2917,  99 L2918, 100 L2919,  99 L2920,  99 L2921, 100 L2922,  99 L2923, 100 L2924,  99 L2925, 100 L2926,  99 L2927,  99 L2928, 100 L2929,  99 L2930,  99 L2931, 100 L2932,  99 L2933, 100 L2934, 100 L2935,  99 L2936, 100 L2937,  99 L2938,  99 L2939, 100 L2940,  99 L2941, 100 L2942, 100 L2943, 100 L2944,  99 L2945,  99 L2946,  99 L2947, 100 L2948, 100 L2949, 100 L2950, 100 L2951, 100 L2952, 100 L2953,  99 L2954,  99 L2955, 100 L2956,  99 L2957, 100 L2958, 100 L2959,  99 L2960, 100 L2961,  99 L2962,  99 L2963, 100 L2964,  99 L2965, 100 L2966, 100 L2967,  99 L2968,  99 L2969,  99 L2970,  99 L2971,  99 L2972,  99 L2973, 100 L2974, 100 L2975,  99 L2976, 100 L2977,  99 L2978,  99 L2979,  99 L2980,  99 L2981,  99 L2982, 100 L2983, 100 L2984,  99 L2985,  99 L2986,  99 L2987,  99 L2988,  99 L2989,  99 L2990, 100 L2991,  99 L2992, 100 L2993,  99 L2994,  99 L2995,  99 L2996,  99 L2997,  99 L2998,  99 L2999, 100 L3000,  99 L3001, 100 L3002,  99 L3003, 100 L3004,  99 L3005,  99 L3006,  99 L3007,  99 L3008, 100 L3009, 100 L3010,  99 L3011,  99 L3012,  99 L3013,  99 L3014,  99 L3015,  99 L3016, 100 L3017, 100 L3018, 100 L3019, 100 L3020,  99 L3021,  99 L3022,  99 L3023,  99 L3024, 100 L3025, 100 L3026,  99 L3027,  99 L3028,  99 L3029,  99 L3030,  99 L3031,  99 L3032, 100 L3033, 100 L3034, 100 L3035,  99 L3036,  99 L3037,  99 L3038, 100 L3039,  99 L3040, 100 L3041,  99 L3042,  99 L3043,  99 L3044,  99 L3045, 100 L3046, 100 L3047,  99 L3048, 100 L3049,  99 L3050,  99 L3051, 100 L3052,  99 L3053,  99 L3054, 100 L3055,  99 L3056, 100 L3057, 100 L3058,  99 L3059, 100 L3060,  99 L3061,  99 L3062,  99 L3063,  99 L3064, 100 L3065, 100 L3066,  99 L3067, 100 L3068,  99 L3069,  99 L3070, 100 L3071,  99 L3072,  99 L3073,  99 L3074, 100 L3075, 100 L3076, 100 L3077,  99 L3078,  99 L3079,  99 L3080,  99 L3081,  99 L3082, 100 L3083, 100 L3084,  99 L3085, 100 L3086,  99 L3087,  99 L3088, 100 L3089,  98 L3090,  99 L3091, 100 L3092, 100 L3093,  99 L3094,  99 L3095,  99 L3096,  99 L3097,  99 L3098, 100 L3099, 100 L3100, 100 L3101, 100 L3102, 100 L3103, 100 L3104,  99 L3105,  99 L3106, 100 L3107, 100 L3108, 100 L3109, 100 L3110, 100 L3111,  99 L3112, 100 L3113,  99 L3114, 100 L3115, 100 L3116, 100 L3117, 100 L3118, 100 L3119,  99 L3120,  99 L3121,  99 L3122, 100 L3123, 100 L3124,  99 L3125, 100 L3126,  99 L3127, 100 L3128,  99 L3129,  99 L3130, 100 L3131, 100 L3132,  99 L3133, 100 L3134, 100 L3135,  99 L3136, 100 L3137,  99 L3138,  99 L3139,  99 L3140, 100 L3141,  99 L3142, 100 L3143, 100 L3144,  99 L3145, 100 L3146,  99 L3147,  99 L3148,  99 L3149,  99 L3150, 100 L3151, 100 L3152, 100 L3153,  99 L3154,  99 L3155, 100 L3156, 100 L3157, 100 L3158,  99 L3159,  99 L3160,  99 L3161, 100 L3162,  99 L3163,  99 L3164,  99 L3165,  99 L3166, 100 L3167,  99 L3168, 100 L3169,  99 L3170, 100 L3171, 100 L3172, 100 L3173,  99 L3174,  99 L3175, 100 L3176,  99 L3177,  99 L3178,  99 L3179,  99 L3180,  99 L3181, 100 L3182,  99 L3183,  99 L3184, 100 L3185,  99 L3186, 100 L3187, 100 L3188,  99 L3189,  99 L3190,  99 L3191,  98 L3192, 100 L3193,  99 L3194,  99 L3195, 100 L3196, 100 L3197, 100 L3198,  99 L3199,  99 L3200,  99 L3201, 100 L3202, 100 L3203,  99 L3204,  99 L3205, 100 L3206, 100 L3207,  99 L3208,  99 L3209,  99 L3210,  99 L3211, 100 L3212,  99 L3213, 100 L3214,  99 L3215,  99 L3216,  99 L3217, 100 L3218,  99 L3219,  99 L3220, 100 L3221,  99 L3222, 100 L3223, 100 L3224, 100 L3225, 100 L3226,  99 L3227, 100 L3228,  99 L3229,  99 L3230, 100 L3231,  99 L3232, 100 L3233,  99 L3234,  99 L3235,  98 L3236, 100 L3237,  99 L3238,  99 L3239,  99 L3240,  97 L3241,  99 L3242,  99 L3243,  99 L3244,  99 L3245,  96 L3246, 100 L3247,  99 L3248,  99 L3249,  99 L3250,  95 L3251,  99 L3252, 100 L3253,  99 L3254,  99 L3255,  94 L3256,  99 L3257, 100 L3258,  99 L3259, 100 L3260,  92 L3261,  99 L3262,  99 L3263,  99 L3264,  99 L3265,  91 L3266,  99 L3267,  99 L3268,  99 L3269,  99 L3270,  90 L3271,  99 L3272,  99 L3273,  99 L3274,  99 L3275,  89 L3276,  99 L3277, 100 L3278,  99 L3279,  99 L3280,  87 L3281,  99 L3282, 100 L3283,  99 L3284,  99 L3285,  87 L3286,  99 L3287, 100 L3288,  99 L3289,  99 L3290,  85 L3291,  99 L3292,  99 L3293,  99 L3294,  99 L3295,  84 L3296, 100 L3297, 100 L3298,  99 L3299,  99 L3300,  83 L3301,  99 L3302,  99 L3303, 100 L3304,  99 L3305,  82 L3306,  99 L3307, 100 L3308,  99 L3309,  99 L3310,  81 L3311,  99 L3312, 100 L3313,  99 L3314,  99 L3315,  80 L3316, 100 L3317,  99 L3318, 100 L3319,  99 L3320,  78 L3321, 100 L3322, 100 L3323,  99 L3324,  99 L3325,  77 L3326, 100 L3327,  99 L3328,  99 L3329,  99 L3330,  76 L3331,  99 L3332, 100 L3333,  99 L3334,  99 L3335,  75 L3336,  99 L3337, 100 L3338,  99 L3339, 100 L3340,  74 L3341, 100 L3342, 100 L3343,  99 L3344,  99 L3345,  73 L3346,  99 L3347,  99 L3348,  99 L3349,  99 L3350,  72 L3351,  99 L3352,  99 L3353,  99 L3354,  99 L3355,  72 L3356,  99 L3357, 100 L3358,  99 L3359,  99 L3360,  72 L3361,  99 L3362,  99 L3363,  99 L3364,  99 L3365,  72 L3366, 100 L3367, 100 L3368,  99 L3369,  99 L3370,  72 L3371,  99 L3372, 100 L3373,  99 L3374,  99 L3375,  72 L3376, 100 L3377,  99 L3378, 100 L3379,  99 L3380,  72 L3381,  99 L3382,  99 L3383,  99 L3384,  99 L3385,  72 L3386,  99 L3387, 100 L3388,  99 L3389,  99 L3390,  72 L3391, 100 L3392, 100 L3393,  99 L3394,  99 L3395,  73 L3396, 100 L3397,  99 L3398,  99 L3399,  99 L3400,  72 L3401, 100 L3402,  99 L3403,  99 L3404,  99 L3405,  72 L3406,  99 L3407,  99 L3408,  99 L3409,  99 L3410,  72 L3411,  99 L3412, 100 L3413,  99 L3414,  99 L3415,  72 L3416,  99 L3417,  99 L3418,  99 L3419,  99 L3420,  72 L3421, 100 L3422,  99 L3423,  99 L3424,  99 L3425,  72 L3426, 100 L3427,  99 L3428,  99 L3429,  99 L3430,  73 L3431,  99 L3432,  99 L3433,  99 L3434,  99 L3435,  72 L3436,  99 L3437, 100 L3438,  99 L3439,  99 L3440,  72 L3441,  99 L3442, 100 L3443,  99 L3444,  99 L3445,  72 L3446,  99 L3447,  99 L3448,  99 L3449,  99 L3450,  72 L3451,  99 L3452, 100 L3453,  99 L3454,  99 L3455,  72 L3456, 100 L3457, 100 L3458,  99 L3459,  99 L3460,  72 L3461,  99 L3462,  99 L3463,  99 L3464,  99 L3465,  72 L3466,  99 L3467,  99 L3468,  99 L3469,  99 L3470,  72 L3471,  99 L3472,  99 L3473,  99 L3474,  99 L3475,  72 L3476,  99 L3477,  99 L3478, 100 L3479,  99 L3480,  72 L3481,  99 L3482,  99 L3483,  99 L3484,  99 L3485,  72 L3486, 100 L3487,  99 L3488,  99 L3489,  99 L3490,  72 L3491, 100 L3492, 100 L3493,  99 L3494,  99 L3495,  72 L3496,  99 L3497, 100 L3498,  99 L3499,  99 L3500,  72 L3501,  99 L3502, 100 L3503,  99 L3504, 100 L3505,  72 L3506, 100 L3507,  99 L3508,  99 L3509,  99 L3510,  72 L3511, 100 L3512, 100 L3513, 100 L3514,  99 L3515,  72 L3516, 100 L3517, 100 L3518,  99 L3519,  99 L3520,  72 L3521,  99 L3522,  99 L3523,  99 L3524,  99 L3525,  72 L3526,  99 L3527, 100 L3528,  99 L3529,  99 L3530,  72 L3531,  99 L3532,  99 L3533,  99 L3534,  99 L3535,  72 L3536,  99 L3537,  99 L3538,  99 L3539,  99 L3540,  72 L3541, 100 L3542,  99 L3543,  99 L3544,  99 L3545,  73 L3546,  99 L3547, 100 L3548,  99 L3549,  99 L3550,  73 L3551,  99 L3552,  99 L3553,  99 L3554,  99 L3555,  74 L3556,  99 L3557,  99 L3558,  99 L3559,  99 L3560,  94 L3561,  99 L3562,  76 L3563,  99 L3564,  99 L3565, 100 L3566, 100 L3567,  77 L3568,  99 L3569,  99 L3570,  99 L3571, 100 L3572,  78 L3573,  99 L3574,  99 L3575,  99 L3576,  99 L3577,  79 L3578,  99 L3579,  99 L3580, 100 L3581, 100 L3582,  80 L3583,  99 L3584,  99 L3585,  99 L3586, 100 L3587,  81 L3588,  99 L3589,  99 L3590,  99 L3591,  99 L3592,  82 L3593, 100 L3594,  99 L3595, 100 L3596, 100 L3597,  84 L3598, 100 L3599,  99 L3600,  99 L3601,  99 L3602,  85 L3603,  99 L3604,  99 L3605, 100 L3606,  99 L3607,  86 L3608,  99 L3609,  99 L3610,  99 L3611, 100 L3612,  87 L3613,  99 L3614,  99 L3615, 100 L3616,  99 L3617,  88 L3618, 100 L3619,  99 L3620,  99 L3621,  99 L3622,  90 L3623,  99 L3624,  99 L3625, 100 L3626,  99 L3627,  91 L3628,  99 L3629,  99 L3630,  99 L3631, 100 L3632,  92 L3633,  99 L3634,  99 L3635,  99 L3636, 100 L3637,  93 L3638,  99 L3639,  99 L3640,  99 L3641, 100 L3642,  94 L3643, 100 L3644,  99 L3645, 100 L3646,  99 L3647,  96 L3648,  99 L3649,  99 L3650, 100 L3651,  99 L3652,  97 L3653,  99 L3654,  99 L3655, 100 L3656,  99 L3657,  98 L3658,  99 L3659,  99 L3660,  99 L3661,  99 L3662,  99 L3663,  99 L3664,  99 L3665,  99 L3666, 100 L3667,  99 L3668,  99 L3669,  99 L3670,  99 L3671,  99 L3672,  99 L3673,  99 L3674,  99 L3675, 100 L3676,  99 L3677,  99 L3678,  99 L3679,  99 L3680, 100 L3681,  99 L3682,  99 L3683,  99 L3684,  99 L3685,  99 L3686,  99 L3687, 100 L3688,  99 L3689, 100 L3690, 100 L3691,  99 L3692,  99 L3693,  99 L3694,  99 L3695, 100 L3696, 100 L3697, 100 L3698,  99 L3699,  99 L3700,  99 L3701,  99 L3702,  99 L3703,  99 L3704,  99 L3705,  99 L3706,  99 L3707, 100 L3708,  99 L3709,  99 L3710, 100 L3711,  99 L3712,  99 L3713,  99 L3714,  99 L3715, 100 L3716,  99 L3717, 100 L3718,  99 L3719,  99 L3720, 100 L3721,  99 L3722, 100 L3723,  99 L3724,  99 L3725, 100 L3726,  99 L3727,  99 L3728,  99 L3729,  99 L3730,  99 L3731,  99 L3732, 100 L3733,  99 L3734,  99 L3735, 100 L3736,  99 L3737, 100 L3738,  99 L3739, 100 L3740,  99 L3741, 100 L3742,  99 L3743,  99 L3744,  99 L3745,  99 L3746,  99 L3747,  99 L3748, 100 L3749,  99 L3750, 100 L3751,  99 L3752,  99 L3753,  99 L3754,  99 L3755, 100 L3756,  99 L3757, 100 L3758, 100 L3759, 100 L3760, 100 L3761, 100 L3762,  99 L3763,  99 L3764, 100 L3765,  99 L3766,  99 L3767, 100 L3768,  99 L3769,  99 L3770,  99 L3771, 100 L3772,  99 L3773,  99 L3774,  99 L3775, 100 L3776,  99 L3777,  99 L3778,  99 L3779,  99 L3780, 100 L3781,  99 L3782, 100 L3783, 100 L3784,  99 L3785,  99 L3786,  99 L3787,  99 L3788,  99 L3789,  99 L3790, 100 L3791, 100 L3792, 100 L3793,  99 L3794,  99 L3795,  99 L3796, 100 L3797,  99 L3798,  99 L3799, 100 L3800,  99 L3801, 100 L3802,  99 L3803, 100 L3804,  99 L3805,  99 L3806,  99 L3807,  99 L3808,  99 L3809,  99 L3810,  99 L3811, 100 L3812, 100 L3813,  99 L3814,  99 L3815, 100 L3816,  99 L3817, 100 L3818,  99 L3819,  99 L3820, 100 L3821, 100 L3822, 100 L3823,  99 L3824,  99 L3825,  99 L3826,  99 L3827,  99 L3828,  99 L3829,  99 L3830, 100 L3831,  99 L3832, 100 L3833,  99 L3834,  99 L3835, 100 L3836,  99 L3837,  99 L3838,  99 L3839,  99 L3840, 100 L3841, 100 L3842, 100 L3843,  99 L3844,  99 L3845, 100 L3846,  99 L3847, 100 L3848,  99 L3849, 100 L3850, 100 L3851, 100 L3852, 100 L3853, 100 L3854, 100 L3855, 100 L3856, 100 L3857, 100 L3858,  99 L3859,  99 L3860,  99 L3861,  99 L3862, 100 L3863,  99 L3864,  99 L3865, 100 L3866,  99 L3867, 100 L3868,  99 L3869,  99 L3870, 100 L3871, 100 L3872,  99 L3873,  99 L3874,  99 L3875,  99 L3876,  99 L3877,  99 L3878,  99 L3879, 100 L3880,  99 L3881, 100 L3882,  99 L3883,  99 L3884,  99 L3885, 100 L3886, 100 L3887,  99 L3888,  99 L3889,  99 L3890, 100 L3891, 100 L3892, 100 L3893,  99 L3894,  99 L3895,  99 L3896,  99 L3897, 100 L3898,  99 L3899,  99 L3900,  99 L3901, 100 L3902,  99 L3903,  99 L3904,  99 L3905,  99 L3906,  99 L3907, 100 L3908,  99 L3909,  99 L3910, 100 L3911, 100 L3912,  99 L3913,  99 L3914,  99 L3915, 100 L3916, 100 L3917, 100 L3918, 100 L3919,  99 L3920,  99 L3921,  99 L3922,  99 L3923,  99 L3924, 100 L3925, 100 L3926, 100 L3927, 100 L3928,  99 L3929,  99 L3930, 100 L3931,  99 L3932,  99 L3933,  99 L3934,  99 L3935, 100 L3936, 100 L3937,  99 L3938,  99 L3939, 100 L3940, 100 L3941, 100 L3942, 100 L3943, 100 L3944,  99 L3945,  99 L3946,  99 L3947, 100 L3948,  99 L3949, 100 L3950, 100 L3951, 100 L3952, 100 L3953,  99 L3954, 100 L3955, 100 L3956,  99 L3957,  99 L3958,  99 L3959,  99 L3960,  99 L3961, 100 L3962, 100 L3963, 100 L3964,  99 L3965, 100 L3966,  99 L3967,  99 L3968,  99 L3969,  99 L3970,  99 L3971,  99 L3972,  98 L3973, 100 L3974,  99 L3975,  99 L3976, 100 L3977,  97 L3978,  99 L3979, 100 L3980,  99 L3981,  99 L3982,  95 L3983,  99 L3984,  99 L3985, 100 L3986, 100 L3987,  94 L3988, 100 L3989,  99 L3990, 100 L3991, 100 L3992,  93 L3993,  99 L3994,  99 L3995, 100 L3996,  99 L3997,  92 L3998,  99 L3999,  99 L4000, 100 L4001,  99 L4002,  90 L4003,  99 L4004,  99 L4005,  99 L4006, 100 L4007,  90 L4008,  99 L4009,  99 L4010,  99 L4011, 100 L4012,  88 L4013,  99 L4014, 100 L4015,  99 L4016, 100 L4017,  87 L4018,  99 L4019,  99 L4020,  99 L4021,  99 L4022,  86 L4023,  99 L4024,  99 L4025, 100 L4026,  99 L4027,  84 L4028,  99 L4029,  99 L4030, 100 L4031,  99 L4032,  83 L4033,  99 L4034,  99 L4035,  99 L4036, 100 L4037,  82 L4038,  99 L4039,  99 L4040,  99 L4041, 100 L4042,  81 L4043,  99 L4044,  99 L4045, 100 L4046,  99 L4047,  80 L4048,  99 L4049,  99 L4050, 100 L4051,  99 L4052,  79 L4053, 100 L4054,  99 L4055,  99 L4056, 100 L4057,  78 L4058,  99 L4059,  99 L4060,  99 L4061, 100 L4062,  76 L4063,  99 L4064,  99 L4065, 100 L4066, 100 L4067,  75 L4068,  99 L4069,  99 L4070,  99 L4071,  99 L4072,  74 L4073,  99 L4074,  99 L4075, 100 L4076, 100 L4077,  73 L4078,  99 L4079, 100 L4080,  99 L4081,  99 L4082,  72 L4083,  99 L4084,  99 L4085,  99 L4086, 100 L4087,  73 L4088,  99 L4089,  99 L4090,  99 L4091, 100 L4092,  72 L4093,  99 L4094,  99 L4095,  99 L4096, 200"/>
<path stroke="yellow" fill="none" stroke-width="1" d="M   0, 111 L   1, 110 L   2, 110 L   3, 110 L   4, 110 L   5, 110 L   6, 110 L   7, 110 L   8, 110 L   9, 110 L  10, 111 L  11, 110 L  12, 110 L  13, 110 L  14, 111 L  15, 110 L  16, 110 L  17, 110 L  18, 110 L  19, 110 L  20, 111 L  21, 111 L  22, 110 L  23, 110 L  24, 111 L  25, 110 L  26, 110 L  27, 110 L  28, 110 L  29, 110 L  30, 110 L  31, 110 L  32, 110 L  33, 110 L  34, 111 L  35, 110 L  36, 110 L  37, 111 L  38, 110 L  39, 110 L  40, 110 L  41, 110 L  42, 111 L  43, 111 L  44, 110 L  45, 110 L  46, 110 L  47, 110 L  48, 110 L  49, 110 L  50, 111 L  51, 110 L  52, 110 L  53, 111 L  54, 110 L  55, 110 L  56, 110 L  57, 110 L  58, 110 L  59, 111 L  60, 110 L  61, 110 L  62, 110 L  63, 110 L  64, 110 L  65, 110 L  66, 110 L  67, 110 L  68, 110 L  69, 110 L  70, 110 L  71, 110 L  72, 110 L  73, 110 L  74, 110 L  75, 110 L  76, 110 L  77, 110 L  78, 110 L  79, 110 L  80, 111 L  81, 110 L  82, 110 L  83, 110 L  84, 110 L  85, 110 L  86, 110 L  87, 110 L  88, 110 L  89, 110 L  90, 110 L  91, 110 L  92, 110 L  93, 110 L  94, 111 L  95, 110 L  96, 111 L  97, 110 L  98, 111 L  99, 110 L 100, 110 L 101, 110 L 102, 110 L 103, 110 L 104, 110 L 105, 110 L 106, 110 L 107, 110 L 108, 110 L 109, 111 L 110, 110 L 111, 111 L 112, 110 L 113, 110 L 114, 110 L 115, 110 L 116, 110 L 117, 110 L 118, 110 L 119, 110 L 120, 110 L 121, 110 L 122, 110 L 123, 110 L 124, 110 L 125, 110 L 126, 110 L 127, 110 L 128, 110 L 129, 110 L 130, 110 L 131, 110 L 132, 110 L 133, 110 L 134, 110 L 135, 110 L 136, 110 L 137, 110 L 138, 110 L 139, 111 L 140, 110 L 141, 110 L 142, 110 L 143, 110 L 144, 110 L 145, 110 L 146, 111 L 147, 110 L 148, 110 L 149, 110 L 150, 110 L 151, 110 L 152, 110 L 153, 111 L 154, 110 L 155, 110 L 156, 110 L 157, 110 L 158, 110 L 159, 110 L 160, 110 L 161, 110 L 162, 110 L 163, 110 L 164, 111 L 165, 110 L 166, 110 L 167, 111 L 168, 110 L 169, 110 L 170, 110 L 171, 110 L 172, 110 L 173, 110 L 174, 110 L 175, 110 L 176, 110 L 177, 110 L 178, 110 L 179, 110 L 180, 110 L 181, 110 L 182, 110 L 183, 110 L 184, 110 L 185, 111 L 186, 110 L 187, 110 L 188, 110 L 189, 110 L 190, 110 L 191, 110 L 192, 110 L 193, 110 L 194, 111 L 195, 110 L 196, 110 L 197, 110 L 198, 110 L 199, 110 L 200, 110 L 201, 110 L 202, 110 L 203, 110 L 204, 110 L 205, 110 L 206, 110 L 207, 110 L 208, 111 L 209, 110 L 210, 110 L 211, 110 L 212, 110 L 213, 110 L 214, 110 L 215, 110 L 216, 110 L 217, 110 L 218, 110 L 219, 110 L 220, 110 L 221, 110 L 222, 110 L 223, 110 L 224, 110 L 225, 110 L 226, 110 L 227, 110 L 228, 111 L 229, 111 L 230, 110 L 231, 110 L 232, 110 L 233, 110 L 234, 110 L 235, 110 L 236, 110 L 237, 110 L 238, 110 L 239, 110 L 240, 110 L 241, 110 L 242, 111 L 243, 110 L 244, 111 L 245, 110 L 246, 110 L 247, 110 L 248, 110 L 249, 110 L 250, 110 L 251, 111 L 252, 110 L 253, 110 L 254, 110 L 255, 110 L 256, 110 L 257, 110 L 258, 110 L 259, 110 L 260, 110 L 261, 110 L 262, 110 L 263, 110 L 264, 110 L 265, 110 L 266, 110 L 267, 110 L 268, 110 L 269, 110 L 270, 110 L 271, 111 L 272, 110 L 273, 110 L 274, 111 L 275, 110 L 276, 111 L 277, 110 L 278, 110 L 279, 110 L 280, 110 L 281, 110 L 282, 110 L 283, 110 L 284, 110 L 285, 110 L 286, 110 L 287, 110 L 288, 110 L 289, 110 L 290, 110 L 291, 110 L 292, 110 L 293, 110 L 294, 110 L 295, 110 L 296, 110 L 297, 110 L 298, 111 L 299, 110 L 300, 110 L 301, 110 L 302, 110 L 303, 110 L 304, 110 L 305, 110 L 306, 110 L 307, 110 L 308, 110 L 309, 110 L 310, 110 L 311, 110 L 312, 110 L 313, 110 L 314, 110 L 315, 110 L 316, 110 L 317, 111 L 318, 110 L 319, 110 L 320, 110 L 321, 110 L 322, 110 L 323, 110 L 324, 110 L 325, 111 L 326, 110 L 327, 110 L 328, 110 L 329, 110 L 330, 110 L 331, 110 L 332, 110 L 333, 110 L 334, 111 L 335, 110 L 336, 110 L 337, 110 L 338, 111 L 339, 110 L 340, 110 L 341, 110 L 342, 110 L 343, 110 L 344, 110 L 345, 110 L 346, 110 L 347, 110 L 348, 110 L 349, 110 L 350, 110 L 351, 110 L 352, 110 L 353, 110 L 354, 111 L 355, 110 L 356, 110 L 357, 110 L 358, 111 L 359, 110 L 360, 110 L 361, 110 L 362, 110 L 363, 110 L 364, 110 L 365, 110 L 366, 110 L 367, 110 L 368, 110 L 369, 111 L 370, 110 L 371, 110 L 372, 110 L 373, 110 L 374, 111 L 375, 110 L 376, 110 L 377, 110 L 378, 110 L 379, 111 L 380, 110 L 381, 111 L 382, 110 L 383, 110 L 384, 110 L 385, 110 L 386, 111 L 387, 110 L 388, 111 L 389, 110 L 390, 110 L 391, 111 L 392, 110 L 393, 110 L 394, 110 L 395, 111 L 396, 110 L 397, 110 L 398, 110 L 399, 110 L 400, 110 L 401, 110 L 402, 111 L 403, 110 L 404, 110 L 405, 110 L 406, 110 L 407, 110 L 408, 110 L 409, 110 L 410, 110 L 411, 110 L 412, 110 L 413, 110 L 414, 111 L 415, 110 L 416, 111 L 417, 110 L 418, 110 L 419, 110 L 420, 110 L 421, 110 L 422, 110 L 423, 110 L 424, 110 L 425, 111 L 426, 110 L 427, 110 L 428, 110 L 429, 110 L 430, 110 L 431, 110 L 432, 110 L 433, 110 L 434, 110 L 435, 110 L 436, 110 L 437, 110 L 438, 110 L 439, 110 L 440, 110 L 441, 110 L 442, 110 L 443, 110 L 444, 110 L 445, 110 L 446, 110 L 447, 110 L 448, 110 L 449, 110 L 450, 110 L 451, 110 L 452, 110 L 453, 110 L 454, 110 L 455, 111 L 456, 110 L 457, 110 L 458, 110 L 459, 110 L 460, 110 L 461, 111 L 462, 110 L 463, 110 L 464, 110 L 465, 110 L 466, 110 L 467, 111 L 468, 110 L 469, 110 L 470, 111 L 471, 111 L 472, 110 L 473, 110 L 474, 110 L 475, 110 L 476, 110 L 477, 110 L 478, 110 L 479, 110 L 480, 110 L 481, 110 L 482, 110 L 483, 110 L 484, 110 L 485, 110 L 486, 110 L 487, 110 L 488, 111 L 489, 110 L 490, 110 L 491, 111 L 492, 110 L 493, 110 L 494, 110 L 495, 110 L 496, 110 L 497, 110 L 498, 110 L 499, 110 L 500, 111 L 501, 110 L 502, 110 L 503, 110 L 504, 110 L 505, 110 L 506, 110 L 507, 111 L 508, 110 L 509, 110 L 510, 111 L 511, 110 L 512, 110 L 513, 110 L 514, 110 L 515, 110 L 516, 110 L 517, 110 L 518, 110 L 519, 110 L 520, 110 L 521, 111 L 522, 110 L 523, 110 L 524, 110 L 525, 110 L 526, 110 L 527, 110 L 528, 111 L 529, 110 L 530, 110 L 531, 110 L 532, 110 L 533, 110 L 534, 110 L 535, 110 L 536, 110 L 537, 110 L 538, 110 L 539, 110 L 540, 110 L 541, 110 L 542, 110 L 543, 110 L 544, 110 L 545, 110 L 546, 110 L 547, 110 L 548, 111 L 549, 110 L 550, 110 L 551, 110 L 552, 110 L 553, 111 L 554, 110 L 555, 110 L 556, 110 L 557, 110 L 558, 110 L 559, 110 L 560, 110 L 561, 110 L 562, 110 L 563, 110 L 564, 111 L 565, 110 L 566, 110 L 567, 110 L 568, 110 L 569, 111 L 570, 110 L 571, 110 L 572, 110 L 573, 110 L 574, 110 L 575, 110 L 576, 111 L 577, 110 L 578, 110 L 579, 110 L 580, 110 L 581, 110 L 582, 110 L 583, 110 L 584, 110 L 585, 110 L 586, 110 L 587, 110 L 588, 110 L 589, 110 L 590, 111 L 591, 110 L 592, 110 L 593, 110 L 594, 110 L 595, 110 L 596, 110 L 597, 110 L 598, 110 L 599, 110 L 600, 110 L 601, 110 L 602, 110 L 603, 110 L 604, 110 L 605, 110 L 606, 110 L 607, 110 L 608, 111 L 609, 110 L 610, 111 L 611, 110 L 612, 110 L 613, 110 L 614, 110 L 615, 110 L 616, 110 L 617, 110 L 618, 110 L 619, 111 L 620, 111 L 621, 110 L 622, 110 L 623, 110 L 624, 110 L 625, 110 L 626, 110 L 627, 110 L 628, 110 L 629, 110 L 630, 110 L 631, 110 L 632, 110 L 633, 110 L 634, 110 L 635, 110 L 636, 110 L 637, 110 L 638, 110 L 639, 110 L 640, 111 L 641, 110 L 642, 110 L 643, 110 L 644, 110 L 645, 110 L 646, 110 L 647, 110 L 648, 110 L 649, 110 L 650, 110 L 651, 110 L 652, 110 L 653, 110 L 654, 111 L 655, 110 L 656, 110 L 657, 110 L 658, 110 L 659, 110 L 660, 110 L 661, 110 L 662, 110 L 663, 110 L 664, 110 L 665, 110 L 666, 110 L 667, 110 L 668, 110 L 669, 110 L 670, 110 L 671, 110 L 672, 110 L 673, 110 L 674, 110 L 675, 110 L 676, 110 L 677, 110 L 678, 110 L 679, 110 L 680, 110 L 681, 110 L 682, 110 L 683, 110 L 684, 110 L 685, 110 L 686, 110 L 687, 110 L 688, 110 L 689, 110 L 690, 111 L 691, 110 L 692, 110 L 693, 110 L 694, 110 L 695, 111 L 696, 110 L 697, 111 L 698, 110 L 699, 110 L 700, 110 L 701, 110 L 702, 110 L 703, 111 L 704, 110 L 705, 110 L 706, 110 L 707, 110 L 708, 110 L 709, 110 L 710, 110 L 711, 110 L 712, 110 L 713, 110 L 714, 110 L 715, 110 L 716, 110 L 717, 110 L 718, 110 L 719, 110 L 720, 111 L 721, 110 L 722, 110 L 723, 110 L 724, 110 L 725, 110 L 726, 110 L 727, 110 L 728, 110 L 729, 111 L 730, 110 L 731, 110 L 732, 110 L 733, 110 L 734, 110 L 735, 110 L 736, 110 L 737, 110 L 738, 110 L 739, 110 L 740, 111 L 741, 110 L 742, 110 L 743, 110 L 744, 110 L 745, 110 L 746, 110 L 747, 110 L 748, 110 L 749, 111 L 750, 110 L 751, 110 L 752, 110 L 753, 110 L 754, 110 L 755, 110 L 756, 110 L 757, 110 L 758, 110 L 759, 110 L 760, 110 L 761, 110 L 762, 110 L 763, 110 L 764, 110 L 765, 110 L 766, 111 L 767, 110 L 768, 110 L 769, 111 L 770, 110 L 771, 110 L 772, 110 L 773, 110 L 774, 110 L 775, 110 L 776, 110 L 777, 110 L 778, 110 L 779, 110 L 780, 110 L 781, 110 L 782, 110 L 783, 110 L 784, 110 L 785, 110 L 786, 110 L 787, 110 L 788, 110 L 789, 110 L 790, 110 L 791, 110 L 792, 110 L 793, 110 L 794, 110 L 795, 110 L 796, 110 L 797, 111 L 798, 110 L 799, 110 L 800, 110 L 801, 110 L 802, 110 L 803, 110 L 804, 110 L 805, 110 L 806, 110 L 807, 110 L 808, 110 L 809, 110 L 810, 110 L 811, 110 L 812, 110 L 813, 110 L 814, 110 L 815, 110 L 816, 110 L 817, 110 L 818, 110 L 819, 110 L 820, 110 L 821, 110 L 822, 110 L 823, 110 L 824, 110 L 825, 110 L 826, 110 L 827, 110 L 828, 110 L 829, 110 L 830, 110 L 831, 110 L 832, 110 L 833, 110 L 834, 110 L 835, 110 L 836, 110 L 837, 110 L 838, 110 L 839, 111 L 840, 110 L 841, 111 L 842, 110 L 843, 110 L 844, 110 L 845, 110 L 846, 110 L 847, 110 L 848, 110 L 849, 110 L 850, 111 L 851, 110 L 852, 110 L 853, 110 L 854, 110 L 855, 111 L 856, 110 L 857, 110 L 858, 110 L 859, 110 L 860, 111 L 861, 110 L 862, 110 L 863, 110 L 864, 110 L 865, 110 L 866, 110 L 867, 110 L 868, 110 L 869, 110 L 870, 110 L 871, 110 L 872, 110 L 873, 110 L 874, 110 L 875, 110 L 876, 110 L 877, 110 L 878, 110 L 879, 111 L 880, 111 L 881, 110 L 882, 110 L 883, 110 L 884, 110 L 885, 111 L 886, 110 L 887, 110 L 888, 111 L 889, 110 L 890, 110 L 891, 110 L 892, 110 L 893, 111 L 894, 111 L 895, 110 L 896, 110 L 897, 110 L 898, 110 L 899, 110 L 900, 110 L 901, 110 L 902, 110 L 903, 110 L 904, 110 L 905, 111 L 906, 110 L 907, 110 L 908, 110 L 909, 110 L 910, 110 L 911, 110 L 912, 110 L 913, 110 L 914, 110 L 915, 110 L 916, 110 L 917, 110 L 918, 110 L 919, 110 L 920, 110 L 921, 110 L 922, 110 L 923, 110 L 924, 110 L 925, 110 L 926, 110 L 927, 110 L 928, 110 L 929, 110 L 930, 110 L 931, 110 L 932, 110 L 933, 110 L 934, 110 L 935, 110 L 936, 110 L 937, 110 L 938, 110 L 939, 110 L 940, 110 L 941, 110 L 942, 110 L 943, 110 L 944, 110 L 945, 110 L 946, 110 L 947, 110 L 948, 110 L 949, 110 L 950, 110 L 951, 111 L 952, 110 L 953, 110 L 954, 110 L 955, 110 L 956, 110 L 957, 110 L 958, 110 L 959, 110 L 960, 110 L 961, 110 L 962, 110 L 963, 110 L 964, 110 L 965, 110 L 966, 110 L 967, 110 L 968, 110 L 969, 110 L 970, 110 L 971, 110 L 972, 110 L 973, 110 L 974, 110 L 975, 110 L 976, 110 L 977, 110 L 978, 110 L 979, 110 L 980, 110 L 981, 110 L 982, 110 L 983, 110 L 984, 110 L 985, 110 L 986, 111 L 987, 110 L 988, 110 L 989, 110 L 990, 110 L 991, 110 L 992, 110 L 993, 110 L 994, 110 L 995, 110 L 996, 110 L 997, 111 L 998, 110 L 999, 110 L1000, 110 L1001, 110 L1002, 110 L1003, 110 L1004, 110 L1005, 110 L1006, 110 L1007, 110 L1008, 110 L1009, 110 L1010, 110 L1011, 110 L1012, 110 L1013, 110 L1014, 110 L1015, 110 L1016, 110 L1017, 110 L1018, 110 L1019, 111 L1020, 110 L1021, 110 L1022, 110 L1023, 110 L1024, 110 L1025, 110 L1026, 110 L1027, 110 L1028, 111 L1029, 110 L1030, 110 L1031, 110 L1032, 110 L1033, 110 L1034, 110 L1035, 110 L1036, 110 L1037, 110 L1038, 110 L1039, 110 L1040, 110 L1041, 110 L1042, 110 L1043, 110 L1044, 110 L1045, 110 L1046, 110 L1047, 111 L1048, 110 L1049, 110 L1050, 110 L1051, 110 L1052, 110 L1053, 111 L1054, 110 L1055, 110 L1056, 110 L1057, 110 L1058, 110 L1059, 110 L1060, 111 L1061, 110 L1062, 110 L1063, 110 L1064, 110 L1065, 110 L1066, 110 L1067, 110 L1068, 110 L1069, 111 L1070, 110 L1071, 110 L1072, 110 L1073, 110 L1074, 110 L1075, 110 L1076, 110 L1077, 110 L1078, 110 L1079, 110 L1080, 110 L1081, 111 L1082, 110 L1083, 110 L1084, 111 L1085, 110 L1086, 110 L1087, 110 L1088, 111 L1089, 110 L1090, 111 L1091, 110 L1092, 110 L1093, 110 L1094, 110 L1095, 110 L1096, 110 L1097, 110 L1098, 110 L1099, 110 L1100, 111 L1101, 110 L1102, 110 L1103, 110 L1104, 110 L1105, 110 L1106, 110 L1107, 110 L1108, 110 L1109, 111 L1110, 110 L1111, 110 L1112, 110 L1113, 110 L1114, 110 L1115, 110 L1116, 110 L1117, 110 L1118, 110 L1119, 110 L1120, 110 L1121, 110 L1122, 110 L1123, 110 L1124, 110 L1125, 110 L1126, 110 L1127, 110 L1128, 110 L1129, 110 L1130, 110 L1131, 110 L1132, 110 L1133, 110 L1134, 110 L1135, 110 L1136, 110 L1137, 110 L1138, 110 L1139, 110 L1140, 110 L1141, 110 L1142, 110 L1143, 110 L1144, 110 L1145, 110 L1146, 110 L1147, 110 L1148, 110 L1149, 110 L1150, 110 L1151, 110 L1152, 110 L1153, 110 L1154, 110 L1155, 110 L1156, 110 L1157, 110 L1158, 110 L1159, 110 L1160, 110 L1161, 110 L1162, 111 L1163, 110 L1164, 110 L1165, 110 L1166, 110 L1167, 110 L1168, 110 L1169, 110 L1170, 110 L1171, 110 L1172, 110 L1173, 110 L1174, 110 L1175, 110 L1176, 110 L1177, 110 L1178, 110 L1179, 110 L1180, 110 L1181, 110 L1182, 110 L1183, 110 L1184, 111 L1185, 110 L1186, 110 L1187, 110 L1188, 110 L1189, 110 L1190, 110 L1191, 110 L1192, 110 L1193, 110 L1194, 110 L1195, 110 L1196, 110 L1197, 110 L1198, 110 L1199, 110 L1200, 110 L1201, 110 L1202, 110 L1203, 110 L1204, 110 L1205, 110 L1206, 110 L1207, 110 L1208, 110 L1209, 110 L1210, 110 L1211, 110 L1212, 110 L1213, 110 L1214, 110 L1215, 110 L1216, 110 L1217, 110 L1218, 110 L1219, 110 L1220, 110 L1221, 110 L1222, 110 L1223, 110 L1224, 110 L1225, 110 L1226, 110 L1227, 111 L1228, 110 L1229, 110 L1230, 110 L1231, 110 L1232, 110 L1233, 110 L1234, 110 L1235, 110 L1236, 110 L1237, 110 L1238, 110 L1239, 110 L1240, 110 L1241, 110 L1242, 110 L1243, 110 L1244, 110 L1245, 110 L1246, 110 L1247, 110 L1248, 110 L1249, 110 L1250, 110 L1251, 110 L1252, 110 L1253, 110 L1254, 110 L1255, 110 L1256, 110 L1257, 110 L1258, 110 L1259, 110 L1260, 110 L1261, 110 L1262, 110 L1263, 110 L1264, 110 L1265, 110 L1266, 110 L1267, 110 L1268, 110 L1269, 110 L1270, 110 L1271, 110 L1272, 110 L1273, 110 L1274, 110 L1275, 110 L1276, 110 L1277, 110 L1278, 110 L1279, 110 L1280, 110 L1281, 110 L1282, 110 L1283, 110 L1284, 110 L1285, 110 L1286, 110 L1287, 110 L1288, 110 L1289, 110 L1290, 110 L1291, 111 L1292, 110 L1293, 110 L1294, 111 L1295, 110 L1296, 110 L1297, 110 L1298, 111 L1299, 110 L1300, 110 L1301, 110 L1302, 110 L1303, 110 L1304, 111 L1305, 110 L1306, 110 L1307, 110 L1308, 110 L1309, 110 L1310, 110 L1311, 110 L1312, 110 L1313, 110 L1314, 110 L1315, 110 L1316, 110 L1317, 110 L1318, 110 L1319, 110 L1320, 110 L1321, 110 L1322, 110 L1323, 110 L1324, 110 L1325, 110 L1326, 110 L1327, 110 L1328, 110 L1329, 110 L1330, 110 L1331, 110 L1332, 110 L1333, 110 L1334, 110 L1335, 110 L1336, 110 L1337, 110 L1338, 110 L1339, 110 L1340, 110 L1341, 110 L1342, 110 L1343, 110 L1344, 110 L1345, 110 L1346, 110 L1347, 110 L1348, 110 L1349, 110 L1350, 110 L1351, 110 L1352, 110 L1353, 110 L1354, 110 L1355, 110 L1356, 110 L1357, 110 L1358, 110 L1359, 110 L1360, 110 L1361, 110 L1362, 110 L1363, 110 L1364, 110 L1365, 110 L1366, 110 L1367, 110 L1368, 110 L1369, 110 L1370, 110 L1371, 110 L1372, 110 L1373, 110 L1374, 110 L1375, 110 L1376, 110 L1377, 110 L1378, 110 L1379, 110 L1380, 110 L1381, 110 L1382, 110 L1383, 110 L1384, 110 L1385, 110 L1386, 110 L1387, 110 L1388, 110 L1389, 110 L1390, 110 L1391, 110 L1392, 110 L1393, 110 L1394, 110 L1395, 110 L1396, 110 L1397, 110 L1398, 110 L1399, 110 L1400, 110 L1401, 110 L1402, 110 L1403, 110 L1404, 110 L1405, 110 L1406, 110 L1407, 110 L1408, 110 L1409, 110 L1410, 110 L1411, 110 L1412, 110 L1413, 110 L1414, 110 L1415, 110 L1416, 110 L1417, 110 L1418, 110 L1419, 110 L1420, 110 L1421, 110 L1422, 110 L1423, 110 L1424, 110 L1425, 110 L1426, 110 L1427, 110 L1428, 110 L1429, 110 L1430, 110 L1431, 110 L1432, 111 L1433, 110 L1434, 110 L1435, 110 L1436, 110 L1437, 111 L1438, 111 L1439, 110 L1440, 111 L1441, 111 L1442, 110 L1443, 110 L1444, 110 L1445, 110 L1446, 110 L1447, 111 L1448, 111 L1449, 110 L1450, 111 L1451, 110 L1452, 110 L1453, 110 L1454, 110 L1455, 110 L1456, 110 L1457, 111 L1458, 110 L1459, 110 L1460, 110 L1461, 110 L1462, 110 L1463, 111 L1464, 110 L1465, 110 L1466, 110 L1467, 111 L1468, 110 L1469, 110 L1470, 110 L1471, 110 L1472, 110 L1473, 111 L1474, 110 L1475, 110 L1476, 110 L1477, 110 L1478, 110 L1479, 111 L1480, 110 L1481, 110 L1482, 110 L1483, 111 L1484, 110 L1485, 110 L1486, 110 L1487, 110 L1488, 110 L1489, 111 L1490, 110 L1491, 110 L1492, 110 L1493, 110 L1494, 110 L1495, 110 L1496, 110 L1497, 110 L1498, 111 L1499, 111 L1500, 110 L1501, 110 L1502, 110 L1503, 110 L1504, 110 L1505, 111 L1506, 111 L1507, 110 L1508, 110 L1509, 111 L1510, 110 L1511, 110 L1512, 110 L1513, 110 L1514, 110 L1515, 111 L1516, 110 L1517, 110 L1518, 110 L1519, 110 L1520, 110 L1521, 110 L1522, 111 L1523, 110 L1524, 111 L1525, 111 L1526, 111 L1527, 111 L1528, 110 L1529, 110 L1530, 111 L1531, 111 L1532, 110 L1533, 110 L1534, 111 L1535, 111 L1536, 110 L1537, 111 L1538, 111 L1539, 110 L1540, 110 L1541, 110 L1542, 110 L1543, 110 L1544, 111 L1545, 110 L1546, 111 L1547, 110 L1548, 110 L1549, 110 L1550, 111 L1551, 110 L1552, 110 L1553, 110 L1554, 110 L1555, 110 L1556, 110 L1557, 111 L1558, 110 L1559, 110 L1560, 110 L1561, 110 L1562, 111 L1563, 111 L1564, 111 L1565, 110 L1566, 110 L1567, 110 L1568, 111 L1569, 110 L1570, 110 L1571, 110 L1572, 111 L1573, 110 L1574, 111 L1575, 110 L1576, 110 L1577, 110 L1578, 110 L1579, 111 L1580, 111 L1581, 110 L1582, 111 L1583, 111 L1584, 110 L1585, 110 L1586, 110 L1587, 110 L1588, 110 L1589, 110 L1590, 110 L1591, 110 L1592, 110 L1593, 110 L1594, 110 L1595, 110 L1596, 110 L1597, 110 L1598, 110 L1599, 110 L1600, 110 L1601, 110 L1602, 110 L1603, 111 L1604, 110 L1605, 110 L1606, 111 L1607, 111 L1608, 111 L1609, 110 L1610, 110 L1611, 110 L1612, 111 L1613, 111 L1614, 111 L1615, 110 L1616, 110 L1617, 110 L1618, 111 L1619, 110 L1620, 110 L1621, 110 L1622, 110 L1623, 110 L1624, 110 L1625, 110 L1626, 110 L1627, 111 L1628, 111 L1629, 110 L1630, 110 L1631, 110 L1632, 111 L1633, 110 L1634, 110 L1635, 110 L1636, 111 L1637, 110 L1638, 111 L1639, 111 L1640, 110 L1641, 110 L1642, 110 L1643, 110 L1644, 110 L1645, 110 L1646, 110 L1647, 110 L1648, 111 L1649, 111 L1650, 111 L1651, 110 L1652, 110 L1653, 111 L1654, 110 L1655, 110 L1656, 110 L1657, 110 L1658, 110 L1659, 111 L1660, 110 L1661, 110 L1662, 111 L1663, 110 L1664, 111 L1665, 111 L1666, 111 L1667, 110 L1668, 110 L1669, 110 L1670, 110 L1671, 111 L1672, 110 L1673, 110 L1674, 110 L1675, 110 L1676, 110 L1677, 110 L1678, 110 L1679, 110 L1680, 110 L1681, 111 L1682, 111 L1683, 110 L1684, 110 L1685, 111 L1686, 110 L1687, 110 L1688, 111 L1689, 110 L1690, 110 L1691, 111 L1692, 111 L1693, 110 L1694, 110 L1695, 111 L1696, 111 L1697, 110 L1698, 110 L1699, 110 L1700, 110 L1701, 111 L1702, 110 L1703, 110 L1704, 110 L1705, 111 L1706, 111 L1707, 110 L1708, 110 L1709, 110 L1710, 111 L1711, 110 L1712, 110 L1713, 110 L1714, 110 L1715, 111 L1716, 111 L1717, 111 L1718, 110 L1719, 111 L1720, 110 L1721, 110 L1722, 110 L1723, 111 L1724, 110 L1725, 110 L1726, 110 L1727, 110 L1728, 110 L1729, 111 L1730, 110 L1731, 111 L1732, 110 L1733, 110 L1734, 110 L1735, 110 L1736, 111 L1737, 110 L1738, 111 L1739, 110 L1740, 110 L1741, 110 L1742, 111 L1743, 110 L1744, 110 L1745, 111 L1746, 110 L1747, 110 L1748, 110 L1749, 110 L1750, 110 L1751, 111 L1752, 110 L1753, 110 L1754, 110 L1755, 111 L1756, 110 L1757, 110 L1758, 111 L1759, 110 L1760, 110 L1761, 110 L1762, 110 L1763, 110 L1764, 110 L1765, 110 L1766, 110 L1767, 111 L1768, 110 L1769, 110 L1770, 110 L1771, 111 L1772, 111 L1773, 110 L1774, 110 L1775, 110 L1776, 110 L1777, 110 L1778, 110 L1779, 110 L1780, 111 L1781, 110 L1782, 110 L1783, 110 L1784, 110 L1785, 110 L1786, 111 L1787, 110 L1788, 110 L1789, 110 L1790, 111 L1791, 110 L1792, 110 L1793, 111 L1794, 111 L1795, 110 L1796, 110 L1797, 110 L1798, 110 L1799, 110 L1800, 111 L1801, 110 L1802, 110 L1803, 110 L1804, 110 L1805, 110 L1806, 111 L1807, 111 L1808, 110 L1809, 111 L1810, 110 L1811, 110 L1812, 111 L1813, 111 L1814, 110 L1815, 110 L1816, 110 L1817, 110 L1818, 110 L1819, 111 L1820, 110 L1821, 111 L1822, 111 L1823, 110 L1824, 110 L1825, 111 L1826, 110 L1827, 111 L1828, 110 L1829, 110 L1830, 110 L1831, 110 L1832, 111 L1833, 110 L1834, 111 L1835, 111 L1836, 110 L1837, 110 L1838, 110 L1839, 110 L1840, 110 L1841, 111 L1842, 110 L1843, 110 L1844, 110 L1845, 110 L1846, 110 L1847, 110 L1848, 111 L1849, 111 L1850, 110 L1851, 110 L1852, 110 L1853, 110 L1854, 110 L1855, 110 L1856, 111 L1857, 111 L1858, 111 L1859, 110 L1860, 110 L1861, 111 L1862, 110 L1863, 110 L1864, 110 L1865, 110 L1866, 111 L1867, 110 L1868, 110 L1869, 111 L1870, 110 L1871, 110 L1872, 110 L1873, 110 L1874, 110 L1875, 110 L1876, 111 L1877, 110 L1878, 110 L1879, 110 L1880, 110 L1881, 110 L1882, 110 L1883, 111 L1884, 110 L1885, 110 L1886, 111 L1887, 111 L1888, 110 L1889, 110 L1890, 111 L1891, 110 L1892, 111 L1893, 110 L1894, 110 L1895, 110 L1896, 111 L1897, 110 L1898, 110 L1899, 110 L1900, 110 L1901, 111 L1902, 111 L1903, 110 L1904, 110 L1905, 111 L1906, 110 L1907, 111 L1908, 111 L1909, 111 L1910, 110 L1911, 110 L1912, 111 L1913, 110 L1914, 111 L1915, 111 L1916, 110 L1917, 111 L1918, 110 L1919, 110 L1920, 110 L1921, 111 L1922, 110 L1923, 110 L1924, 110 L1925, 110 L1926, 110 L1927, 110 L1928, 110 L1929, 110 L1930, 110 L1931, 110 L1932, 110 L1933, 110 L1934, 110 L1935, 110 L1936, 110 L1937, 110 L1938, 110 L1939, 110 L1940, 110 L1941, 110 L1942, 110 L1943, 110 L1944, 110 L1945, 110 L1946, 110 L1947, 111 L1948, 110 L1949, 110 L1950, 110 L1951, 110 L1952, 110 L1953, 111 L1954, 110 L1955, 110 L1956, 111 L1957, 111 L1958, 110 L1959, 111 L1960, 110 L1961, 110 L1962, 110 L1963, 111 L1964, 110 L1965, 110 L1966, 110 L1967, 111 L1968, 110 L1969, 110 L1970, 110 L1971, 110 L1972, 111 L1973, 110 L1974, 110 L1975, 110 L1976, 111 L1977, 110 L1978, 110 L1979, 110 L1980, 111 L1981, 110 L1982, 110 L1983, 110 L1984, 110 L1985, 111 L1986, 110 L1987, 110 L1988, 111 L1989, 110 L1990, 110 L1991, 111 L1992, 110 L1993, 110 L1994, 111 L1995, 110 L1996, 110 L1997, 110 L1998, 111 L1999, 111 L2000, 110 L2001, 110 L2002, 110 L2003, 111 L2004, 111 L2005, 111 L2006, 110 L2007, 110 L2008, 110 L2009, 110 L2010, 111 L2011, 110 L2012, 111 L2013, 110 L2014, 110 L2015, 110 L2016, 110 L2017, 111 L2018, 110 L2019, 110 L2020, 110 L2021, 110 L2022, 110 L2023, 111 L2024, 110 L2025, 110 L2026, 110 L2027, 111 L2028, 110 L2029, 110 L2030, 111 L2031, 111 L2032, 111 L2033, 111 L2034, 111 L2035, 110 L2036, 110 L2037, 110 L2038, 110 L2039, 110 L2040, 110 L2041, 110 L2042, 110 L2043, 111 L2044, 110 L2045, 111 L2046, 110 L2047, 110 L2048, 111 L2049, 111 L2050, 110 L2051, 110 L2052, 111 L2053, 111 L2054, 110 L2055, 111 L2056, 111 L2057, 110 L2058, 110 L2059, 111 L2060, 110 L2061, 110 L2062, 110 L2063, 110 L2064, 110 L2065, 111 L2066, 111 L2067, 110 L2068, 110 L2069, 110 L2070, 110 L2071, 110 L2072, 111 L2073, 110 L2074, 110 L2075, 110 L2076, 110 L2077, 110 L2078, 110 L2079, 110 L2080, 110 L2081, 110 L2082, 111 L2083, 110 L2084, 110 L2085, 111 L2086, 110 L2087, 111 L2088, 110 L2089, 110 L2090, 110 L2091, 111 L2092, 110 L2093, 110 L2094, 111 L2095, 110 L2096, 110 L2097, 110 L2098, 111 L2099, 110 L2100, 110 L2101, 111 L2102, 110 L2103, 110 L2104, 110 L2105, 111 L2106, 110 L2107, 111 L2108, 110 L2109, 110 L2110, 111 L2111, 110 L2112, 110 L2113, 111 L2114, 111 L2115, 110 L2116, 110 L2117, 110 L2118, 110 L2119, 110 L2120, 110 L2121, 111 L2122, 110 L2123, 111 L2124, 110 L2125, 110 L2126, 111 L2127, 110 L2128, 110 L2129, 111 L2130, 110 L2131, 110 L2132, 110 L2133, 110 L2134, 110 L2135, 111 L2136, 111 L2137, 111 L2138, 110 L2139, 110 L2140, 110 L2141, 110 L2142, 111 L2143, 110 L2144, 110 L2145, 110 L2146, 110 L2147, 110 L2148, 110 L2149, 110 L2150, 110 L2151, 111 L2152, 111 L2153, 110 L2154, 110 L2155, 110 L2156, 111 L2157, 110 L2158, 110 L2159, 110 L2160, 110 L2161, 110 L2162, 110 L2163, 110 L2164, 111 L2165, 110 L2166, 110 L2167, 110 L2168, 110 L2169, 110 L2170, 110 L2171, 111 L2172, 110 L2173, 110 L2174, 110 L2175, 110 L2176, 110 L2177, 110 L2178, 110 L2179, 110 L2180, 111 L2181, 110 L2182, 110 L2183, 111 L2184, 111 L2185, 110 L2186, 110 L2187, 111 L2188, 110 L2189, 111 L2190, 110 L2191, 110 L2192, 110 L2193, 110 L2194, 110 L2195, 110 L2196, 111 L2197, 111 L2198, 110 L2199, 111 L2200, 110 L2201, 110 L2202, 110 L2203, 111 L2204, 110 L2205, 111 L2206, 110 L2207, 110 L2208, 110 L2209, 110 L2210, 110 L2211, 110 L2212, 111 L2213, 111 L2214, 110 L2215, 110 L2216, 111 L2217, 110 L2218, 111 L2219, 110 L2220, 111 L2221, 110 L2222, 110 L2223, 110 L2224, 110 L2225, 110 L2226, 110 L2227, 110 L2228, 111 L2229, 110 L2230, 111 L2231, 110 L2232, 110 L2233, 110 L2234, 110 L2235, 111 L2236, 110 L2237, 110 L2238, 111 L2239, 110 L2240, 110 L2241, 110 L2242, 110 L2243, 111 L2244, 110 L2245, 110 L2246, 110 L2247, 110 L2248, 110 L2249, 110 L2250, 110 L2251, 111 L2252, 110 L2253, 110 L2254, 110 L2255, 111 L2256, 110 L2257, 110 L2258, 110 L2259, 110 L2260, 110 L2261, 110 L2262, 110 L2263, 111 L2264, 110 L2265, 110 L2266, 110 L2267, 110 L2268, 110 L2269, 110 L2270, 110 L2271, 110 L2272, 110 L2273, 111 L2274, 110 L2275, 110 L2276, 110 L2277, 110 L2278, 110 L2279, 110 L2280, 110 L2281, 110 L2282, 110 L2283, 111 L2284, 110 L2285, 110 L2286, 110 L2287, 110 L2288, 110 L2289, 110 L2290, 111 L2291, 110 L2292, 111 L2293, 110 L2294, 110 L2295, 110 L2296, 110 L2297, 110 L2298, 110 L2299, 111 L2300, 110 L2301, 111 L2302, 110 L2303, 111 L2304, 110 L2305, 111 L2306, 110 L2307, 110 L2308, 111 L2309, 110 L2310, 110 L2311, 111 L2312, 110 L2313, 110 L2314, 110 L2315, 111 L2316, 110 L2317, 110 L2318, 110 L2319, 111 L2320, 110 L2321, 110 L2322, 111 L2323, 111 L2324, 111 L2325, 111 L2326, 110 L2327, 110 L2328, 110 L2329, 110 L2330, 110 L2331, 110 L2332, 110 L2333, 110 L2334, 110 L2335, 110 L2336, 111 L2337, 111 L2338, 110 L2339, 110 L2340, 111 L2341, 110 L2342, 110 L2343, 111 L2344, 111 L2345, 110 L2346, 111 L2347, 110 L2348, 110 L2349, 110 L2350, 110 L2351, 110 L2352, 110 L2353, 110 L2354, 110 L2355, 110 L2356, 110 L2357, 110 L2358, 110 L2359, 110 L2360, 110 L2361, 110 L2362, 110 L2363, 110 L2364, 110 L2365, 110 L2366, 111 L2367, 110 L2368, 110 L2369, 111 L2370, 110 L2371, 110 L2372, 111 L2373, 111 L2374, 110 L2375, 110 L2376, 110 L2377, 110 L2378, 111 L2379, 110 L2380, 110 L2381, 111 L2382, 110 L2383, 110 L2384, 110 L2385, 111 L2386, 110 L2387, 110 L2388, 111 L2389, 110 L2390, 110 L2391, 110 L2392, 111 L2393, 110 L2394, 110 L2395, 110 L2396, 110 L2397, 110 L2398, 110 L2399, 111 L2400, 111 L2401, 111 L2402, 110 L2403, 110 L2404, 111 L2405, 110 L2406, 110 L2407, 111 L2408, 111 L2409, 110 L2410, 110 L2411, 110 L2412, 110 L2413, 110 L2414, 110 L2415, 110 L2416, 110 L2417, 110 L2418, 111 L2419, 110 L2420, 110 L2421, 110 L2422, 111 L2423, 111 L2424, 110 L2425, 110 L2426, 111 L2427, 110 L2428, 110 L2429, 111 L2430, 111 L2431, 110 L2432, 110 L2433, 111 L2434, 110 L2435, 110 L2436, 110 L2437, 110 L2438, 110 L2439, 111 L2440, 110 L2441, 110 L2442, 110 L2443, 111 L2444, 110 L2445, 110 L2446, 110 L2447, 110 L2448, 111 L2449, 110 L2450, 110 L2451, 110 L2452, 110 L2453, 111 L2454, 110 L2455, 110 L2456, 110 L2457, 110 L2458, 111 L2459, 110 L2460, 110 L2461, 110 L2462, 110 L2463, 110 L2464, 110 L2465, 110 L2466, 110 L2467, 110 L2468, 111 L2469, 111 L2470, 111 L2471, 110 L2472, 110 L2473, 110 L2474, 110 L2475, 111 L2476, 110 L2477, 110 L2478, 111 L2479, 110 L2480, 110 L2481, 110 L2482, 110 L2483, 111 L2484, 110 L2485, 111 L2486, 110 L2487, 111 L2488, 110 L2489, 110 L2490, 110 L2491, 110 L2492, 110 L2493, 111 L2494, 111 L2495, 111 L2496, 110 L2497, 110 L2498, 110 L2499, 111 L2500, 111 L2501, 110 L2502, 110 L2503, 110 L2504, 110 L2505, 110 L2506, 111 L2507, 111 L2508, 110 L2509, 110 L2510, 111 L2511, 110 L2512, 110 L2513, 111 L2514, 110 L2515, 110 L2516, 110 L2517, 110 L2518, 110 L2519, 111 L2520, 110 L2521, 110 L2522, 110 L2523, 111 L2524, 110 L2525, 110 L2526, 110 L2527, 110 L2528, 110 L2529, 110 L2530, 110 L2531, 110 L2532, 110 L2533, 110 L2534, 110 L2535, 111 L2536, 111 L2537, 110 L2538, 110 L2539, 110 L2540, 110 L2541, 110 L2542, 111 L2543, 111 L2544, 110 L2545, 110 L2546, 110 L2547, 110 L2548, 110 L2549, 110 L2550, 110 L2551, 110 L2552, 110 L2553, 111 L2554, 110 L2555, 110 L2556, 110 L2557, 110 L2558, 110 L2559, 110 L2560, 111 L2561, 110 L2562, 110 L2563, 110 L2564, 111 L2565, 110 L2566, 111 L2567, 110 L2568, 110 L2569, 110 L2570, 111 L2571, 110 L2572, 110 L2573, 110 L2574, 111 L2575, 110 L2576, 110 L2577, 111 L2578, 111 L2579, 110 L2580, 111 L2581, 110 L2582, 110 L2583, 110 L2584, 111 L2585, 111 L2586, 110 L2587, 110 L2588, 110 L2589, 110 L2590, 111 L2591, 110 L2592, 110 L2593, 110 L2594, 110 L2595, 110 L2596, 111 L2597, 110 L2598, 110 L2599, 111 L2600, 111 L2601, 110 L2602, 110 L2603, 111 L2604, 110 L2605, 110 L2606, 110 L2607, 110 L2608, 110 L2609, 111 L2610, 110 L2611, 110 L2612, 110 L2613, 110 L2614, 110 L2615, 110 L2616, 111 L2617, 110 L2618, 110 L2619, 110 L2620, 110 L2621, 111 L2622, 111 L2623, 110 L2624, 110 L2625, 111 L2626, 111 L2627, 110 L2628, 110 L2629, 111 L2630, 110 L2631, 110 L2632, 110 L2633, 111 L2634, 110 L2635, 111 L2636, 110 L2637, 110 L2638, 111 L2639, 111 L2640, 110 L2641, 110 L2642, 110 L2643, 110 L2644, 110 L2645, 110 L2646, 110 L2647, 110 L2648, 111 L2649, 111 L2650, 110 L2651, 111 L2652, 110 L2653, 110 L2654, 110 L2655, 110 L2656, 110 L2657, 110 L2658, 111 L2659, 110 L2660, 111 L2661, 110 L2662, 110 L2663, 110 L2664, 110 L2665, 110 L2666, 110 L2667, 110 L2668, 110 L2669, 110 L2670, 110 L2671, 110 L2672, 110 L2673, 110 L2674, 110 L2675, 110 L2676, 111 L2677, 110 L2678, 110 L2679, 110 L2680, 110 L2681, 110 L2682, 110 L2683, 111 L2684, 110 L2685, 110 L2686, 110 L2687, 110 L2688, 110 L2689, 110 L2690, 110 L2691, 110 L2692, 110 L2693, 111 L2694, 110 L2695, 110 L2696, 111 L2697, 110 L2698, 110 L2699, 110 L2700, 110 L2701, 110 L2702, 110 L2703, 110 L2704, 110 L2705, 110 L2706, 110 L2707, 110 L2708, 110 L2709, 110 L2710, 110 L2711, 110 L2712, 111 L2713, 110 L2714, 110 L2715, 110 L2716, 110 L2717, 110 L2718, 111 L2719, 110 L2720, 111 L2721, 110 L2722, 110 L2723, 110 L2724, 111 L2725, 111 L2726, 110 L2727, 110 L2728, 110 L2729, 110 L2730, 110 L2731, 110 L2732, 110 L2733, 110 L2734, 110 L2735, 110 L2736, 110 L2737, 110 L2738, 110 L2739, 110 L2740, 111 L2741, 110 L2742, 110 L2743, 110 L2744, 111 L2745, 111 L2746, 111 L2747, 110 L2748, 110 L2749, 110 L2750, 110 L2751, 110 L2752, 110 L2753, 110 L2754, 110 L2755, 110 L2756, 110 L2757, 110 L2758, 110 L2759, 110 L2760, 111 L2761, 110 L2762, 110 L2763, 110 L2764, 111 L2765, 110 L2766, 110 L2767, 110 L2768, 110 L2769, 111 L2770, 110 L2771, 110 L2772, 110 L2773, 110 L2774, 110 L2775, 110 L2776, 111 L2777, 110 L2778, 110 L2779, 110 L2780, 110 L2781, 110 L2782, 110 L2783, 110 L2784, 110 L2785, 110 L2786, 110 L2787, 111 L2788, 110 L2789, 110 L2790, 110 L2791, 110 L2792, 110 L2793, 110 L2794, 110 L2795, 110 L2796, 111 L2797, 110 L2798, 110 L2799, 110 L2800, 111 L2801, 111 L2802, 110 L2803, 110 L2804, 111 L2805, 111 L2806, 110 L2807, 110 L2808, 110 L2809, 110 L2810, 110 L2811, 110 L2812, 111 L2813, 110 L2814, 110 L2815, 111 L2816, 110 L2817, 110 L2818, 110 L2819, 110 L2820, 110 L2821, 110 L2822, 111 L2823, 111 L2824, 110 L2825, 110 L2826, 111 L2827, 110 L2828, 110 L2829, 110 L2830, 110 L2831, 110 L2832, 111 L2833, 110 L2834, 110 L2835, 110 L2836, 110 L2837, 111 L2838, 111 L2839, 110 L2840, 111 L2841, 110 L2842, 111 L2843, 110 L2844, 110 L2845, 111 L2846, 110 L2847, 110 L2848, 110 L2849, 111 L2850, 110 L2851, 110 L2852, 110 L2853, 110 L2854, 110 L2855, 110 L2856, 110 L2857, 110 L2858, 110 L2859, 111 L2860, 110 L2861, 110 L2862, 110 L2863, 110 L2864, 110 L2865, 110 L2866, 110 L2867, 110 L2868, 110 L2869, 110 L2870, 110 L2871, 110 L2872, 110 L2873, 110 L2874, 110 L2875, 111 L2876, 110 L2877, 110 L2878, 110 L2879, 110 L2880, 110 L2881, 110 L2882, 110 L2883, 110 L2884, 110 L2885, 110 L2886, 110 L2887, 110 L2888, 110 L2889, 110 L2890, 110 L2891, 110 L2892, 110 L2893, 110 L2894, 110 L2895, 110 L2896, 111 L2897, 110 L2898, 110 L2899, 110 L2900, 110 L2901, 111 L2902, 110 L2903, 110 L2904, 111 L2905, 110 L2906, 110 L2907, 110 L2908, 110 L2909, 111 L2910, 110 L2911, 110 L2912, 111 L2913, 110 L2914, 110 L2915, 110 L2916, 110 L2917, 110 L2918, 110 L2919, 110 L2920, 110 L2921, 110 L2922, 110 L2923, 110 L2924, 110 L2925, 110 L2926, 110 L2927, 110 L2928, 110 L2929, 110 L2930, 110 L2931, 110 L2932, 110 L2933, 110 L2934, 110 L2935, 110 L2936, 110 L2937, 110 L2938, 111 L2939, 110 L2940, 110 L2941, 110 L2942, 110 L2943, 110 L2944, 110 L2945, 111 L2946, 110 L2947, 110 L2948, 110 L2949, 110 L2950, 110 L2951, 110 L2952, 110 L2953, 110 L2954, 110 L2955, 110 L2956, 110 L2957, 110 L2958, 111 L2959, 110 L2960, 111 L2961, 110 L2962, 110 L2963, 110 L2964, 110 L2965, 110 L2966, 110 L2967, 110 L2968, 110 L2969, 110 L2970, 110 L2971, 111 L2972, 110 L2973, 110 L2974, 110 L2975, 110 L2976, 110 L2977, 110 L2978, 110 L2979, 110 L2980, 110 L2981, 110 L2982, 110 L2983, 110 L2984, 111 L2985, 110 L2986, 110 L2987, 110 L2988, 111 L2989, 111 L2990, 110 L2991, 110 L2992, 111 L2993, 110 L2994, 110 L2995, 111 L2996, 110 L2997, 110 L2998, 110 L2999, 110 L3000, 110 L3001, 110 L3002, 110 L3003, 111 L3004, 111 L3005, 110 L3006, 110 L3007, 110 L3008, 111 L3009, 111 L3010, 110 L3011, 110 L3012, 110 L3013, 111 L3014, 110 L3015, 110 L3016, 111 L3017, 110 L3018, 110 L3019, 110 L3020, 110 L3021, 110 L3022, 110 L3023, 110 L3024, 111 L3025, 111 L3026, 110 L3027, 110 L3028, 110 L3029, 110 L3030, 111 L3031, 110 L3032, 110 L3033, 110 L3034, 110 L3035, 110 L3036, 110 L3037, 110 L3038, 110 L3039, 110 L3040, 110 L3041, 110 L3042, 110 L3043, 110 L3044, 110 L3045, 110 L3046, 110 L3047, 110 L3048, 111 L3049, 110 L3050, 111 L3051, 110 L3052, 110 L3053, 110 L3054, 110 L3055, 110 L3056, 110 L3057, 110 L3058, 110 L3059, 110 L3060, 110 L3061, 110 L3062, 110 L3063, 111 L3064, 110 L3065, 110 L3066, 110 L3067, 111 L3068, 110 L3069, 110 L3070, 110 L3071, 110 L3072, 110 L3073, 110 L3074, 110 L3075, 110 L3076, 110 L3077, 110 L3078, 110 L3079, 111 L3080, 110 L3081, 110 L3082, 110 L3083, 110 L3084, 110 L3085, 110 L3086, 110 L3087, 110 L3088, 110 L3089, 110 L3090, 110 L3091, 111 L3092, 111 L3093, 110 L3094, 110 L3095, 110 L3096, 110 L3097, 110 L3098, 110 L3099, 110 L3100, 110 L3101, 110 L3102, 110 L3103, 110 L3104, 111 L3105, 110 L3106, 110 L3107, 111 L3108, 110 L3109, 111 L3110, 110 L3111, 110 L3112, 111 L3113, 110 L3114, 111 L3115, 110 L3116, 110 L3117, 110 L3118, 111 L3119, 110 L3120, 111 L3121, 110 L3122, 110 L3123, 110 L3124, 110 L3125, 110 L3126, 110 L3127, 110 L3128, 110 L3129, 110 L3130, 110 L3131, 111 L3132, 110 L3133, 111 L3134, 111 L3135, 111 L3136, 110 L3137, 110 L3138, 110 L3139, 110 L3140, 110 L3141, 111 L3142, 110 L3143, 111 L3144, 110 L3145, 110 L3146, 110 L3147, 110 L3148, 111 L3149, 110 L3150, 110 L3151, 110 L3152, 110 L3153, 110 L3154, 110 L3155, 110 L3156, 110 L3157, 110 L3158, 110 L3159, 110 L3160, 110 L3161, 110 L3162, 110 L3163, 110 L3164, 110 L3165, 110 L3166, 110 L3167, 110 L3168, 111 L3169, 111 L3170, 110 L3171, 110 L3172, 110 L3173, 110 L3174, 110 L3175, 110 L3176, 110 L3177, 110 L3178, 110 L3179, 110 L3180, 110 L3181, 110 L3182, 110 L3183, 110 L3184, 110 L3185, 110 L3186, 110 L3187, 111 L3188, 110 L3189, 110 L3190, 110 L3191, 110 L3192, 110 L3193, 110 L3194, 110 L3195, 110 L3196, 110 L3197, 110 L3198, 110 L3199, 110 L3200, 110 L3201, 111 L3202, 110 L3203, 110 L3204, 110 L3205, 111 L3206, 110 L3207, 110 L3208, 110 L3209, 110 L3210, 110 L3211, 111 L3212, 110 L3213, 110 L3214, 110 L3215, 110 L3216, 110 L3217, 110 L3218, 110 L3219, 110 L3220, 110 L3221, 110 L3222, 110 L3223, 110 L3224, 110 L3225, 111 L3226, 110 L3227, 110 L3228, 110 L3229, 110 L3230, 111 L3231, 110 L3232, 110 L3233, 110 L3234, 110 L3235, 110 L3236, 110 L3237, 110 L3238, 111 L3239, 110 L3240, 110 L3241, 110 L3242, 110 L3243, 110 L3244, 110 L3245, 110 L3246, 110 L3247, 110 L3248, 110 L3249, 110 L3250, 111 L3251, 110 L3252, 110 L3253, 110 L3254, 110 L3255, 110 L3256, 110 L3257, 110 L3258, 110 L3259, 110 L3260, 110 L3261, 110 L3262, 110 L3263, 110 L3264, 110 L3265, 110 L3266, 110 L3267, 110 L3268, 110 L3269, 110 L3270, 110 L3271, 110 L3272, 110 L3273, 111 L3274, 110 L3275, 110 L3276, 110 L3277, 110 L3278, 110 L3279, 110 L3280, 110 L3281, 110 L3282, 110 L3283, 110 L3284, 110 L3285, 110 L3286, 110 L3287, 110 L3288, 110 L3289, 110 L3290, 110 L3291, 110 L3292, 110 L3293, 110 L3294, 110 L3295, 110 L3296, 110 L3297, 110 L3298, 110 L3299, 110 L3300, 110 L3301, 110 L3302, 110 L3303, 110 L3304, 110 L3305, 110 L3306, 110 L3307, 110 L3308, 110 L3309, 110 L3310, 110 L3311, 110 L3312, 110 L3313, 110 L3314, 111 L3315, 110 L3316, 110 L3317, 110 L3318, 110 L3319, 110 L3320, 110 L3321, 110 L3322, 110 L3323, 110 L3324, 110 L3325, 110 L3326, 110 L3327, 110 L3328, 111 L3329, 110 L3330, 111 L3331, 110 L3332, 110 L3333, 110 L3334, 110 L3335, 110 L3336, 111 L3337, 110 L3338, 110 L3339, 110 L3340, 110 L3341, 110 L3342, 110 L3343, 110 L3344, 110 L3345, 110 L3346, 110 L3347, 110 L3348, 110 L3349, 110 L3350, 110 L3351, 110 L3352, 110 L3353, 110 L3354, 110 L3355, 111 L3356, 111 L3357, 110 L3358, 110 L3359, 110 L3360, 110 L3361, 110 L3362, 110 L3363, 110 L3364, 110 L3365, 111 L3366, 110 L3367, 110 L3368, 110 L3369, 110 L3370, 110 L3371, 111 L3372, 110 L3373, 110 L3374, 110 L3375, 110 L3376, 111 L3377, 110 L3378, 110 L3379, 110 L3380, 110 L3381, 110 L3382, 110 L3383, 110 L3384, 110 L3385, 110 L3386, 110 L3387, 110 L3388, 110 L3389, 110 L3390, 110 L3391, 110 L3392, 110 L3393, 110 L3394, 111 L3395, 110 L3396, 110 L3397, 110 L3398, 110 L3399, 111 L3400, 110 L3401, 110 L3402, 110 L3403, 110 L3404, 110 L3405, 110 L3406, 111 L3407, 110 L3408, 110 L3409, 110 L3410, 110 L3411, 110 L3412, 110 L3413, 110 L3414, 110 L3415, 110 L3416, 110 L3417, 110 L3418, 110 L3419, 110 L3420, 110 L3421, 110 L3422, 110 L3423, 110 L3424, 110 L3425, 110 L3426, 110 L3427, 110 L3428, 110 L3429, 110 L3430, 110 L3431, 110 L3432, 110 L3433, 110 L3434, 110 L3435, 110 L3436, 110 L3437, 110 L3438, 110 L3439, 110 L3440, 110 L3441, 110 L3442, 110 L3443, 110 L3444, 110 L3445, 111 L3446, 110 L3447, 110 L3448, 110 L3449, 110 L3450, 110 L3451, 110 L3452, 111 L3453, 110 L3454, 110 L3455, 110 L3456, 111 L3457, 110 L3458, 110 L3459, 110 L3460, 111 L3461, 110 L3462, 110 L3463, 110 L3464, 110 L3465, 110 L3466, 110 L3467, 110 L3468, 110 L3469, 110 L3470, 111 L3471, 110 L3472, 110 L3473, 110 L3474, 110 L3475, 110 L3476, 110 L3477, 110 L3478, 110 L3479, 110 L3480, 110 L3481, 110 L3482, 110 L3483, 110 L3484, 110 L3485, 110 L3486, 110 L3487, 110 L3488, 110 L3489, 110 L3490, 110 L3491, 110 L3492, 111 L3493, 110 L3494, 110 L3495, 111 L3496, 110 L3497, 110 L3498, 110 L3499, 110 L3500, 110 L3501, 110 L3502, 110 L3503, 110 L3504, 110 L3505, 110 L3506, 110 L3507, 110 L3508, 110 L3509, 110 L3510, 110 L3511, 110 L3512, 110 L3513, 110 L3514, 110 L3515, 110 L3516, 111 L3517, 110 L3518, 110 L3519, 110 L3520, 110 L3521, 110 L3522, 110 L3523, 110 L3524, 110 L3525, 110 L3526, 111 L3527, 110 L3528, 110 L3529, 110 L3530, 110 L3531, 110 L3532, 110 L3533, 110 L3534, 110 L3535, 110 L3536, 110 L3537, 110 L3538, 110 L3539, 110 L3540, 110 L3541, 110 L3542, 111 L3543, 110 L3544, 110 L3545, 110 L3546, 110 L3547, 110 L3548, 110 L3549, 110 L3550, 110 L3551, 110 L3552, 110 L3553, 110 L3554, 110 L3555, 110 L3556, 110 L3557, 110 L3558, 110 L3559, 110 L3560, 110 L3561, 111 L3562, 110 L3563, 110 L3564, 110 L3565, 110 L3566, 110 L3567, 110 L3568, 110 L3569, 110 L3570, 110 L3571, 111 L3572, 110 L3573, 110 L3574, 110 L3575, 111 L3576, 110 L3577, 110 L3578, 110 L3579, 110 L3580, 110 L3581, 110 L3582, 110 L3583, 110 L3584, 110 L3585, 110 L3586, 110 L3587, 110 L3588, 110 L3589, 110 L3590, 110 L3591, 110 L3592, 110 L3593, 110 L3594, 110 L3595, 110 L3596, 110 L3597, 111 L3598, 110 L3599, 110 L3600, 110 L3601, 110 L3602, 110 L3603, 110 L3604, 110 L3605, 110 L3606, 111 L3607, 110 L3608, 110 L3609, 110 L3610, 110 L3611, 110 L3612, 110 L3613, 110 L3614, 110 L3615, 110 L3616, 110 L3617, 110 L3618, 110 L3619, 110 L3620, 110 L3621, 110 L3622, 111 L3623, 110 L3624, 110 L3625, 110 L3626, 110 L3627, 110 L3628, 110 L3629, 110 L3630, 110 L3631, 110 L3632, 110 L3633, 110 L3634, 110 L3635, 110 L3636, 110 L3637, 110 L3638, 110 L3639, 110 L3640, 110 L3641, 110 L3642, 110 L3643, 110 L3644, 110 L3645, 111 L3646, 110 L3647, 110 L3648, 110 L3649, 110 L3650, 110 L3651, 110 L3652, 110 L3653, 110 L3654, 110 L3655, 110 L3656, 110 L3657, 110 L3658, 110 L3659, 110 L3660, 110 L3661, 110 L3662, 110 L3663, 110 L3664, 110 L3665, 110 L3666, 111 L3667, 110 L3668, 110 L3669, 110 L3670, 110 L3671, 110 L3672, 110 L3673, 110 L3674, 110 L3675, 110 L3676, 110 L3677, 110 L3678, 110 L3679, 110 L3680, 110 L3681, 110 L3682, 110 L3683, 110 L3684, 110 L3685, 110 L3686, 110 L3687, 110 L3688, 110 L3689, 111 L3690, 110 L3691, 110 L3692, 110 L3693, 110 L3694, 111 L3695, 110 L3696, 110 L3697, 110 L3698, 110 L3699, 110 L3700, 110 L3701, 110 L3702, 110 L3703, 110 L3704, 110 L3705, 110 L3706, 110 L3707, 110 L3708, 110 L3709, 110 L3710, 110 L3711, 110 L3712, 110 L3713, 110 L3714, 110 L3715, 110 L3716, 110 L3717, 110 L3718, 110 L3719, 110 L3720, 110 L3721, 110 L3722, 110 L3723, 110 L3724, 110 L3725, 110 L3726, 110 L3727, 110 L3728, 110 L3729, 110 L3730, 110 L3731, 110 L3732, 110 L3733, 110 L3734, 110 L3735, 110 L3736, 110 L3737, 110 L3738, 110 L3739, 110 L3740, 110 L3741, 110 L3742, 110 L3743, 110 L3744, 110 L3745, 110 L3746, 110 L3747, 110 L3748, 111 L3749, 110 L3750, 110 L3751, 110 L3752, 110 L3753, 110 L3754, 110 L3755, 110 L3756, 110 L3757, 111 L3758, 110 L3759, 110 L3760, 110 L3761, 110 L3762, 110 L3763, 110 L3764, 110 L3765, 110 L3766, 110 L3767, 110 L3768, 110 L3769, 110 L3770, 110 L3771, 111 L3772, 110 L3773, 110 L3774, 110 L3775, 110 L3776, 110 L3777, 110 L3778, 110 L3779, 110 L3780, 110 L3781, 110 L3782, 110 L3783, 110 L3784, 110 L3785, 111 L3786, 110 L3787, 110 L3788, 110 L3789, 110 L3790, 110 L3791, 110 L3792, 111 L3793, 110 L3794, 110 L3795, 110 L3796, 110 L3797, 110 L3798, 110 L3799, 110 L3800, 110 L3801, 110 L3802, 110 L3803, 110 L3804, 110 L3805, 110 L3806, 110 L3807, 110 L3808, 110 L3809, 110 L3810, 110 L3811, 110 L3812, 111 L3813, 110 L3814, 110 L3815, 110 L3816, 110 L3817, 110 L3818, 110 L3819, 110 L3820, 110 L3821, 110 L3822, 110 L3823, 110 L3824, 110 L3825, 111 L3826, 110 L3827, 110 L3828, 110 L3829, 110 L3830, 110 L3831, 110 L3832, 110 L3833, 110 L3834, 110 L3835, 110 L3836, 110 L3837, 110 L3838, 110 L3839, 110 L3840, 110 L3841, 111 L3842, 110 L3843, 110 L3844, 111 L3845, 110 L3846, 110 L3847, 111 L3848, 110 L3849, 110 L3850, 110 L3851, 110 L3852, 110 L3853, 110 L3854, 110 L3855, 110 L3856, 110 L3857, 110 L3858, 110 L3859, 110 L3860, 111 L3861, 110 L3862, 110 L3863, 110 L3864, 110 L3865, 110 L3866, 111 L3867, 110 L3868, 110 L3869, 110 L3870, 110 L3871, 110 L3872, 110 L3873, 110 L3874, 110 L3875, 110 L3876, 110 L3877, 110 L3878, 110 L3879, 110 L3880, 110 L3881, 110 L3882, 110 L3883, 110 L3884, 110 L3885, 110 L3886, 111 L3887, 110 L3888, 110 L3889, 110 L3890, 110 L3891, 110 L3892, 110 L3893, 110 L3894, 110 L3895, 110 L3896, 110 L3897, 110 L3898, 110 L3899, 110 L3900, 110 L3901, 110 L3902, 110 L3903, 110 L3904, 110 L3905, 110 L3906, 110 L3907, 111 L3908, 111 L3909, 110 L3910, 110 L3911, 110 L3912, 110 L3913, 110 L3914, 110 L3915, 110 L3916, 110 L3917, 110 L3918, 110 L3919, 110 L3920, 110 L3921, 110 L3922, 110 L3923, 110 L3924, 110 L3925, 110 L3926, 111 L3927, 110 L3928, 110 L3929, 110 L3930, 110 L3931, 110 L3932, 110 L3933, 110 L3934, 111 L3935, 110 L3936, 110 L3937, 110 L3938, 110 L3939, 111 L3940, 110 L3941, 110 L3942, 110 L3943, 110 L3944, 110 L3945, 110 L3946, 110 L3947, 110 L3948, 110 L3949, 110 L3950, 110 L3951, 110 L3952, 110 L3953, 110 L3954, 110 L3955, 110 L3956, 110 L3957, 110 L3958, 110 L3959, 110 L3960, 110 L3961, 111 L3962, 110 L3963, 110 L3964, 110 L3965, 110 L3966, 110 L3967, 110 L3968, 110 L3969, 110 L3970, 110 L3971, 110 L3972, 111 L3973, 111 L3974, 110 L3975, 111 L3976, 110 L3977, 110 L3978, 110 L3979, 111 L3980, 110 L3981, 111 L3982, 110 L3983, 111 L3984, 110 L3985, 110 L3986, 110 L3987, 110 L3988, 110 L3989, 110 L3990, 110 L3991, 110 L3992, 110 L3993, 110 L3994, 111 L3995, 110 L3996, 110 L3997, 110 L3998, 110 L3999, 111 L4000, 110 L4001, 110 L4002, 110 L4003, 110 L4004, 110 L4005, 111 L4006, 110 L4007, 110 L4008, 111 L4009, 110 L4010, 110 L4011, 111 L4012, 110 L4013, 110 L4014, 110 L4015, 110 L4016, 110 L4017, 110 L4018, 110 L4019, 110 L4020, 110 L4021, 110 L4022, 111 L4023, 110 L4024, 110 L4025, 110 L4026, 110 L4027, 110 L4028, 110 L4029, 110 L4030, 110 L4031, 110 L4032, 110 L4033, 110 L4034, 111 L4035, 110 L4036, 110 L4037, 110 L4038, 110 L4039, 110 L4040, 110 L4041, 110 L4042, 110 L4043, 110 L4044, 110 L4045, 110 L4046, 110 L4047, 110 L4048, 110 L4049, 110 L4050, 110 L4051, 110 L4052, 111 L4053, 110 L4054, 110 L4055, 110 L4056, 110 L4057, 111 L4058, 110 L4059, 111 L4060, 110 L4061, 110 L4062, 110 L4063, 110 L4064, 111 L4065, 110 L4066, 110 L4067, 110 L4068, 111 L4069, 110 L4070, 111 L4071, 110 L4072, 110 L4073, 110 L4074, 110 L4075, 111 L4076, 110 L4077, 110 L4078, 110 L4079, 111 L4080, 110 L4081, 110 L4082, 110 L4083, 110 L4084, 110 L4085, 110 L4086, 110 L4087, 111 L4088, 110 L4089, 111 L4090, 111 L4091, 110 L4092, 110 L4093, 110 L4094, 110 L4095, 110 L4096, 200"/>
<text font-family="Arial" x="638" y="170" fill="cyan" font-size="18" text-anchor="end" id="CH1s">CH1:  2.0V  /div (X1) 0.5S /div</text>
<text font-family="Arial" x="2" y="170" fill="cyan" font-size="18" text-anchor="start" id="CH1"> </text>
<text font-family="Arial" x="638" y="195" fill="yellow" font-size="18" text-anchor="end" id="CH2s">CH2:  1.0V  /div (X1) 0.5S /div</text>
<text font-family="Arial" x="2" y="195" fill="yellow" font-size="18" text-anchor="start" id="CH2"> </text>
<script type="text/ecmascript"><![CDATA[
function init(evt) { if ( window.svgDocument == null ) svgDocument = evt.target.ownerDocument; }
function fmtT(val, div) {
if (div > 10000) return Math.floor(val*div/25/1000) + " ms";
if (div > 250) return Math.floor(val*div/25)/1000 + " ms";
return Math.floor(val*div*1000/25)/1000 + " us";
}
function fmtU(val, div, shift) { return Math.floor((shift-val)*div/25) + " mV"; }
function msMove (evt)
{
var x = evt.pageX;
var y = evt.clientY;
if (x < 0 || y < 0 || x >= 4096|| y >= 200)
return;
var hscroll = (document.all ? document.scrollLeft : window.pageXOffset);
var width = window.innerWidth;

svgDocument.getElementById("CH1").setAttribute("x", hscroll+20);
svgDocument.getElementById("CH2").setAttribute("x", hscroll+20);
svgDocument.getElementById("CH1s").setAttribute("x", hscroll+width-20);
svgDocument.getElementById("CH2s").setAttribute("x", hscroll+width-20);

svgDocument.getElementById("CH1").firstChild.data = "CH1: "+fmtU(y, 2000,   99) + " " + fmtT(x, 500000);
svgDocument.getElementById("CH2").firstChild.data = "CH2: "+fmtU(y, 1000,  109) + " " + fmtT(x, 500000);
}
]]></script>
</svg>
