<?xml version="1.0" encoding="iso-8859-1"?>
<!DOCTYPE svg PUBLIC "-//W3C//DTD SVG 1.0//EN" "http://www.w3.org/TR/2001/REC-SVG-20010904/DTD/svg10.dtd">
<svg width="4096" height="200" xmlns="http://www.w3.org/2000/svg" xmlns:xlink="http://www.w3.org/1999/xlink" onload="init(evt)" onmousemove="msMove(evt)">
<path stroke="none" fill="black" d="M0,0 H4096 V200 H0 V0"/>
<path stroke="none" fill="#400040" d="M   0,0 H   0 V200 H 300  V0"/>
<path stroke="#404040" d="M0,   0 H4096"/>
<path stroke="#404040" d="M0,  25 H4096"/>
<path stroke="#404040" d="M0,  50 H4096"/>
<path stroke="#404040" d="M0,  75 H4096"/>
<path stroke="#404040" d="M0, 100 H4096"/>
<path stroke="#404040" d="M0, 125 H4096"/>
<path stroke="#404040" d="M0, 150 H4096"/>
<path stroke="#404040" d="M0, 175 H4096"/>
<path stroke="#404040" d="M0, 200 H4096"/>
<path stroke="#404040" d="M   0,0 V200"/>
<path stroke="#404040" d="M  25,0 V200"/>
<path stroke="#404040" d="M  50,0 V200"/>
<path stroke="#404040" d="M  75,0 V200"/>
<path stroke="#404040" d="M 100,0 V200"/>
<path stroke="#404040" d="M 125,0 V200"/>
<path stroke="#404040" d="M 150,0 V200"/>
<path stroke="#404040" d="M 175,0 V200"/>
<path stroke="#404040" d="M 200,0 V200"/>
<path stroke="#404040" d="M 225,0 V200"/>
<path stroke="#404040" d="M 250,0 V200"/>
<path stroke="#404040" d="M 275,0 V200"/>
<path stroke="#404040" d="M 300,0 V200"/>
<path stroke="#404040" d="M 325,0 V200"/>
<path stroke="#404040" d="M 350,0 V200"/>
<path stroke="#404040" d="M 375,0 V200"/>
<path stroke="#404040" d="M 400,0 V200"/>
<path stroke="#404040" d="M 425,0 V200"/>
<path stroke="#404040" d="M 450,0 V200"/>
<path stroke="#404040" d="M 475,0 V200"/>
<path stroke="#404040" d="M 500,0 V200"/>
<path stroke="#404040" d="M 525,0 V200"/>
<path stroke="#404040" d="M 550,0 V200"/>
<path stroke="#404040" d="M 575,0 V200"/>
<path stroke="#404040" d="M 600,0 V200"/>
<path stroke="#404040" d="M 625,0 V200"/>
<path stroke="#404040" d="M 650,0 V200"/>
<path stroke="#404040" d="M 675,0 V200"/>
<path stroke="#404040" d="M 700,0 V200"/>
<path stroke="#404040" d="M 725,0 V200"/>
<path stroke="#404040" d="M 750,0 V200"/>
<path stroke="#404040" d="M 775,0 V200"/>
<path stroke="#404040" d="M 800,0 V200"/>
<path stroke="#404040" d="M 825,0 V200"/>
<path stroke="#404040" d="M 850,0 V200"/>
<path stroke="#404040" d="M 875,0 V200"/>
<path stroke="#404040" d="M 900,0 V200"/>
<path stroke="#404040" d="M 925,0 V200"/>
<path stroke="#404040" d="M 950,0 V200"/>
<path stroke="#404040" d="M 975,0 V200"/>
<path stroke="#404040" d="M1000,0 V200"/>
<path stroke="#404040" d="M1025,0 V200"/>
<path stroke="#404040" d="M1050,0 V200"/>
<path stroke="#404040" d="M1075,0 V200"/>
<path stroke="#404040" d="M1100,0 V200"/>
<path stroke="#404040" d="M1125,0 V200"/>
<path stroke="#404040" d="M1150,0 V200"/>
<path stroke="#404040" d="M1175,0 V200"/>
<path stroke="#404040" d="M1200,0 V200"/>
<path stroke="#404040" d="M1225,0 V200"/>
<path stroke="#404040" d="M1250,0 V200"/>
<path stroke="#404040" d="M1275,0 V200"/>
<path stroke="#404040" d="M1300,0 V200"/>
<path stroke="#404040" d="M1325,0 V200"/>
<path stroke="#404040" d="M1350,0 V200"/>
<path stroke="#404040" d="M1375,0 V200"/>
<path stroke="#404040" d="M1400,0 V200"/>
<path stroke="#404040" d="M1425,0 V200"/>
<path stroke="#404040" d="M1450,0 V200"/>
<path stroke="#404040" d="M1475,0 V200"/>
<path stroke="#404040" d="M1500,0 V200"/>
<path stroke="#404040" d="M1525,0 V200"/>
<path stroke="#404040" d="M1550,0 V200"/>
<path stroke="#404040" d="M1575,0 V200"/>
<path stroke="#404040" d="M1600,0 V200"/>
<path stroke="#404040" d="M1625,0 V200"/>
<path stroke="#404040" d="M1650,0 V200"/>
<path stroke="#404040" d="M1675,0 V200"/>
<path stroke="#404040" d="M1700,0 V200"/>
<path stroke="#404040" d="M1725,0 V200"/>
<path stroke="#404040" d="M1750,0 V200"/>
<path stroke="#404040" d="M1775,0 V200"/>
<path stroke="#404040" d="M1800,0 V200"/>
<path stroke="#404040" d="M1825,0 V200"/>
<path stroke="#404040" d="M1850,0 V200"/>
<path stroke="#404040" d="M1875,0 V200"/>
<path stroke="#404040" d="M1900,0 V200"/>
<path stroke="#404040" d="M1925,0 V200"/>
<path stroke="#404040" d="M1950,0 V200"/>
<path stroke="#404040" d="M1975,0 V200"/>
<path stroke="#404040" d="M2000,0 V200"/>
<path stroke="#404040" d="M2025,0 V200"/>
<path stroke="#404040" d="M2050,0 V200"/>
<path stroke="#404040" d="M2075,0 V200"/>
<path stroke="#404040" d="M2100,0 V200"/>
<path stroke="#404040" d="M2125,0 V200"/>
<path stroke="#404040" d="M2150,0 V200"/>
<path stroke="#404040" d="M2175,0 V200"/>
<path stroke="#404040" d="M2200,0 V200"/>
<path stroke="#404040" d="M2225,0 V200"/>
<path stroke="#404040" d="M2250,0 V200"/>
<path stroke="#404040" d="M2275,0 V200"/>
<path stroke="#404040" d="M2300,0 V200"/>
<path stroke="#404040" d="M2325,0 V200"/>
<path stroke="#404040" d="M2350,0 V200"/>
<path stroke="#404040" d="M2375,0 V200"/>
<path stroke="#404040" d="M2400,0 V200"/>
<path stroke="#404040" d="M2425,0 V200"/>
<path stroke="#404040" d="M2450,0 V200"/>
<path stroke="#404040" d="M2475,0 V200"/>
<path stroke="#404040" d="M2500,0 V200"/>
<path stroke="#404040" d="M2525,0 V200"/>
<path stroke="#404040" d="M2550,0 V200"/>
<path stroke="#404040" d="M2575,0 V200"/>
<path stroke="#404040" d="M2600,0 V200"/>
<path stroke="#404040" d="M2625,0 V200"/>
<path stroke="#404040" d="M2650,0 V200"/>
<path stroke="#404040" d="M2675,0 V200"/>
<path stroke="#404040" d="M2700,0 V200"/>
<path stroke="#404040" d="M2725,0 V200"/>
<path stroke="#404040" d="M2750,0 V200"/>
<path stroke="#404040" d="M2775,0 V200"/>
<path stroke="#404040" d="M2800,0 V200"/>
<path stroke="#404040" d="M2825,0 V200"/>
<path stroke="#404040" d="M2850,0 V200"/>
<path stroke="#404040" d="M2875,0 V200"/>
<path stroke="#404040" d="M2900,0 V200"/>
<path stroke="#404040" d="M2925,0 V200"/>
<path stroke="#404040" d="M2950,0 V200"/>
<path stroke="#404040" d="M2975,0 V200"/>
<path stroke="#404040" d="M3000,0 V200"/>
<path stroke="#404040" d="M3025,0 V200"/>
<path stroke="#404040" d="M3050,0 V200"/>
<path stroke="#404040" d="M3075,0 V200"/>
<path stroke="#404040" d="M3100,0 V200"/>
<path stroke="#404040" d="M3125,0 V200"/>
<path stroke="#404040" d="M3150,0 V200"/>
<path stroke="#404040" d="M3175,0 V200"/>
<path stroke="#404040" d="M3200,0 V200"/>
<path stroke="#404040" d="M3225,0 V200"/>
<path stroke="#404040" d="M3250,0 V200"/>
<path stroke="#404040" d="M3275,0 V200"/>
<path stroke="#404040" d="M3300,0 V200"/>
<path stroke="#404040" d="M3325,0 V200"/>
<path stroke="#404040" d="M3350,0 V200"/>
<path stroke="#404040" d="M3375,0 V200"/>
<path stroke="#404040" d="M3400,0 V200"/>
<path stroke="#404040" d="M3425,0 V200"/>
<path stroke="#404040" d="M3450,0 V200"/>
<path stroke="#404040" d="M3475,0 V200"/>
<path stroke="#404040" d="M3500,0 V200"/>
<path stroke="#404040" d="M3525,0 V200"/>
<path stroke="#404040" d="M3550,0 V200"/>
<path stroke="#404040" d="M3575,0 V200"/>
<path stroke="#404040" d="M3600,0 V200"/>
<path stroke="#404040" d="M3625,0 V200"/>
<path stroke="#404040" d="M3650,0 V200"/>
<path stroke="#404040" d="M3675,0 V200"/>
<path stroke="#404040" d="M3700,0 V200"/>
<path stroke="#404040" d="M3725,0 V200"/>
<path stroke="#404040" d="M3750,0 V200"/>
<path stroke="#404040" d="M3775,0 V200"/>
<path stroke="#404040" d="M3800,0 V200"/>
<path stroke="#404040" d="M3825,0 V200"/>
<path stroke="#404040" d="M3850,0 V200"/>
<path stroke="#404040" d="M3875,0 V200"/>
<path stroke="#404040" d="M3900,0 V200"/>
<path stroke="#404040" d="M3925,0 V200"/>
<path stroke="#404040" d="M3950,0 V200"/>
<path stroke="#404040" d="M3975,0 V200"/>
<path stroke="#404040" d="M4000,0 V200"/>
<path stroke="#404040" d="M4025,0 V200"/>
<path stroke="#404040" d="M4050,0 V200"/>
<path stroke="#404040" d="M4075,0 V200"/>
<path stroke="cyan" fill="none" stroke-width="1" d="M   0, 100 L   1,  99 L   2, 100 L   3, 100 L   4, 100 L   5, 100 L   6, 100 L   7, 100 L   8, 100 L   9, 100 L  10, 100 L  11,  99 L  12, 100 L  13, 100 L  14, 100 L  15, 100 L  16, 100 L  17, 100 L  18, 100 L  19, 100 L  20, 100 L  21,  99 L  22, 100 L  23, 100 L  24, 100 L  25, 100 L  26, 100 L  27,  99 L  28, 100 L  29, 100 L  30, 100 L  31, 100 L  32, 100 L  33, 100 L  34, 100 L  35,  99 L  36, 100 L  37, 100 L  38, 100 L  39, 100 L  40, 100 L  41, 100 L  42,  99 L  43, 100 L  44, 100 L  45,  99 L  46, 100 L  47, 100 L  48, 100 L  49, 100 L  50, 100 L  51, 100 L  52, 100 L  53,  99 L  54, 100 L  55, 100 L  56, 100 L  57, 100 L  58, 100 L  59, 100 L  60, 100 L  61,  99 L  62, 100 L  63, 100 L  64, 100 L  65, 100 L  66, 101 L  67, 100 L  68, 100 L  69, 100 L  70, 100 L  71, 100 L  72, 100 L  73, 100 L  74, 100 L  75,  99 L  76, 100 L  77, 100 L  78, 100 L  79, 100 L  80, 100 L  81, 100 L  82, 100 L  83, 100 L  84, 100 L  85, 100 L  86, 100 L  87, 100 L  88, 100 L  89, 100 L  90, 100 L  91, 100 L  92, 100 L  93, 100 L  94, 100 L  95,  99 L  96, 100 L  97, 100 L  98, 100 L  99, 100 L 100, 101 L 101, 100 L 102, 100 L 103, 100 L 104, 100 L 105, 100 L 106, 100 L 107, 100 L 108, 100 L 109, 100 L 110, 100 L 111, 100 L 112, 100 L 113, 100 L 114, 100 L 115, 100 L 116, 100 L 117, 100 L 118, 100 L 119, 100 L 120, 100 L 121, 100 L 122, 100 L 123, 100 L 124, 100 L 125,  99 L 126, 100 L 127, 100 L 128, 100 L 129, 100 L 130, 100 L 131, 100 L 132, 100 L 133, 100 L 134, 100 L 135, 100 L 136, 100 L 137, 100 L 138, 100 L 139, 100 L 140, 100 L 141, 100 L 142, 100 L 143, 100 L 144,  99 L 145, 100 L 146, 100 L 147, 100 L 148, 100 L 149, 100 L 150, 100 L 151, 100 L 152, 101 L 153, 100 L 154, 100 L 155, 100 L 156, 100 L 157, 100 L 158, 100 L 159, 100 L 160, 100 L 161, 100 L 162, 100 L 163, 100 L 164, 100 L 165, 100 L 166, 100 L 167, 100 L 168, 100 L 169, 100 L 170, 100 L 171, 100 L 172, 100 L 173, 100 L 174, 100 L 175, 100 L 176, 100 L 177, 100 L 178, 100 L 179, 100 L 180, 100 L 181, 100 L 182, 100 L 183, 100 L 184, 100 L 185, 100 L 186, 100 L 187, 100 L 188, 100 L 189, 100 L 190, 100 L 191, 100 L 192, 100 L 193, 100 L 194, 100 L 195, 100 L 196, 100 L 197, 100 L 198, 100 L 199, 100 L 200, 100 L 201,  99 L 202, 100 L 203,  99 L 204, 100 L 205, 100 L 206, 100 L 207, 100 L 208, 100 L 209, 100 L 210, 100 L 211, 100 L 212, 100 L 213, 100 L 214, 100 L 215, 100 L 216, 100 L 217, 100 L 218, 100 L 219, 100 L 220, 100 L 221, 100 L 222, 100 L 223, 100 L 224, 100 L 225, 100 L 226, 100 L 227, 100 L 228, 100 L 229,  99 L 230, 100 L 231, 100 L 232, 100 L 233, 100 L 234, 100 L 235, 100 L 236, 100 L 237, 100 L 238, 100 L 239, 100 L 240, 100 L 241, 100 L 242, 100 L 243,  99 L 244,  99 L 245,  99 L 246,  99 L 247, 100 L 248, 100 L 249,  98 L 250,  98 L 251,  97 L 252, 100 L 253, 100 L 254,  97 L 255,  97 L 256,  97 L 257, 100 L 258, 100 L 259,  96 L 260,  96 L 261,  96 L 262, 100 L 263, 100 L 264,  95 L 265,  95 L 266,  95 L 267, 100 L 268, 100 L 269,  94 L 270,  94 L 271,  94 L 272, 100 L 273, 100 L 274,  94 L 275,  93 L 276,  93 L 277,  99 L 278,  99 L 279,  93 L 280,  92 L 281,  92 L 282, 100 L 283, 100 L 284,  92 L 285,  91 L 286,  91 L 287,  99 L 288, 100 L 289,  91 L 290,  90 L 291,  90 L 292, 100 L 293,  99 L 294,  90 L 295,  89 L 296,  89 L 297, 100 L 298, 100 L 299,  89 L 300,  88 L 301,  88 L 302, 100 L 303, 100 L 304,  88 L 305,  88 L 306,  87 L 307, 100 L 308, 100 L 309,  87 L 310,  87 L 311,  87 L 312,  99 L 313, 100 L 314,  86 L 315,  86 L 316,  86 L 317, 100 L 318, 100 L 319,  85 L 320,  85 L 321,  85 L 322, 100 L 323, 100 L 324,  84 L 325,  84 L 326,  84 L 327, 100 L 328,  99 L 329,  83 L 330,  83 L 331,  83 L 332, 100 L 333, 100 L 334,  82 L 335,  82 L 336,  81 L 337, 100 L 338, 100 L 339,  81 L 340,  81 L 341,  80 L 342, 100 L 343,  99 L 344,  80 L 345,  80 L 346,  80 L 347, 100 L 348, 100 L 349,  79 L 350,  79 L 351,  79 L 352, 100 L 353, 100 L 354,  79 L 355,  78 L 356,  78 L 357, 100 L 358, 100 L 359,  78 L 360,  77 L 361,  77 L 362,  99 L 363, 100 L 364,  77 L 365,  76 L 366,  76 L 367, 100 L 368, 100 L 369,  76 L 370,  75 L 371,  75 L 372, 100 L 373, 100 L 374,  75 L 375,  74 L 376,  74 L 377, 100 L 378, 100 L 379,  73 L 380,  74 L 381,  73 L 382, 100 L 383, 100 L 384,  73 L 385,  72 L 386,  72 L 387, 100 L 388, 100 L 389,  72 L 390,  72 L 391,  72 L 392, 100 L 393, 100 L 394,  71 L 395,  70 L 396,  70 L 397, 100 L 398, 100 L 399,  70 L 400,  70 L 401,  69 L 402,  99 L 403, 100 L 404,  69 L 405,  69 L 406,  68 L 407, 100 L 408, 100 L 409,  68 L 410,  68 L 411,  67 L 412, 100 L 413, 100 L 414,  67 L 415,  67 L 416,  67 L 417, 100 L 418, 100 L 419,  66 L 420,  66 L 421,  65 L 422, 100 L 423, 100 L 424,  65 L 425,  65 L 426,  64 L 427, 100 L 428, 100 L 429,  64 L 430,  64 L 431,  64 L 432, 100 L 433, 100 L 434,  63 L 435,  63 L 436,  63 L 437, 100 L 438, 100 L 439,  62 L 440,  62 L 441,  62 L 442, 100 L 443, 100 L 444,  61 L 445,  61 L 446,  61 L 447, 100 L 448, 101 L 449,  61 L 450,  60 L 451,  60 L 452, 100 L 453, 100 L 454,  60 L 455,  60 L 456,  60 L 457, 100 L 458, 100 L 459,  59 L 460,  60 L 461,  60 L 462, 100 L 463, 100 L 464,  60 L 465,  60 L 466,  60 L 467,  99 L 468, 100 L 469,  60 L 470,  60 L 471,  60 L 472, 100 L 473, 100 L 474,  60 L 475,  60 L 476,  60 L 477, 100 L 478, 100 L 479,  60 L 480,  60 L 481,  60 L 482, 100 L 483, 100 L 484,  60 L 485,  60 L 486,  60 L 487, 100 L 488, 100 L 489,  60 L 490,  60 L 491,  60 L 492, 100 L 493, 100 L 494,  60 L 495,  60 L 496,  60 L 497, 100 L 498, 100 L 499,  60 L 500,  60 L 501,  60 L 502, 100 L 503, 100 L 504,  60 L 505,  60 L 506,  60 L 507, 100 L 508, 100 L 509,  60 L 510,  60 L 511,  60 L 512, 100 L 513, 100 L 514,  60 L 515,  60 L 516,  60 L 517,  99 L 518, 100 L 519,  60 L 520,  60 L 521,  60 L 522, 100 L 523, 100 L 524,  60 L 525,  60 L 526,  60 L 527, 100 L 528, 100 L 529,  60 L 530,  60 L 531,  60 L 532, 100 L 533, 100 L 534,  60 L 535,  60 L 536,  60 L 537, 100 L 538, 100 L 539,  60 L 540,  60 L 541,  60 L 542, 100 L 543, 100 L 544,  59 L 545,  60 L 546,  60 L 547, 100 L 548, 101 L 549,  60 L 550,  60 L 551,  60 L 552, 100 L 553, 100 L 554,  60 L 555,  60 L 556,  60 L 557, 100 L 558, 100 L 559,  60 L 560,  60 L 561,  60 L 562, 100 L 563, 100 L 564,  60 L 565,  60 L 566,  60 L 567, 100 L 568, 100 L 569,  60 L 570,  60 L 571,  60 L 572, 100 L 573, 100 L 574,  61 L 575,  60 L 576,  60 L 577, 100 L 578,  99 L 579,  60 L 580,  60 L 581,  60 L 582, 100 L 583, 100 L 584,  60 L 585,  60 L 586,  60 L 587, 100 L 588, 100 L 589,  60 L 590,  60 L 591,  60 L 592, 100 L 593, 100 L 594,  60 L 595,  60 L 596,  60 L 597, 100 L 598, 100 L 599,  60 L 600,  60 L 601,  60 L 602, 100 L 603, 100 L 604,  60 L 605,  60 L 606,  60 L 607, 100 L 608, 100 L 609,  60 L 610,  60 L 611,  60 L 612, 100 L 613, 100 L 614,  60 L 615,  60 L 616,  60 L 617, 100 L 618, 100 L 619,  60 L 620,  60 L 621,  60 L 622, 100 L 623, 101 L 624,  60 L 625,  60 L 626,  60 L 627, 100 L 628, 100 L 629,  60 L 630,  60 L 631,  60 L 632, 100 L 633, 100 L 634,  60 L 635,  60 L 636,  60 L 637, 100 L 638, 100 L 639,  60 L 640,  60 L 641,  60 L 642,  99 L 643, 100 L 644,  60 L 645,  60 L 646,  60 L 647, 100 L 648, 100 L 649,  60 L 650,  60 L 651,  60 L 652, 100 L 653, 100 L 654,  60 L 655,  60 L 656,  60 L 657, 100 L 658, 100 L 659,  60 L 660,  60 L 661,  60 L 662, 100 L 663, 100 L 664,  60 L 665,  60 L 666,  60 L 667, 100 L 668, 100 L 669,  60 L 670,  60 L 671,  60 L 672, 100 L 673, 100 L 674,  60 L 675,  60 L 676,  60 L 677,  99 L 678, 100 L 679,  60 L 680,  60 L 681,  60 L 682, 100 L 683, 100 L 684,  60 L 685,  60 L 686,  59 L 687,  99 L 688, 100 L 689,  60 L 690,  60 L 691,  60 L 692,  99 L 693, 100 L 694,  60 L 695,  60 L 696,  60 L 697, 100 L 698, 100 L 699,  60 L 700,  60 L 701,  60 L 702, 100 L 703, 100 L 704,  60 L 705,  60 L 706,  60 L 707, 100 L 708, 100 L 709,  59 L 710,  60 L 711,  60 L 712, 100 L 713, 100 L 714,  60 L 715,  60 L 716,  60 L 717,  99 L 718, 100 L 719,  60 L 720,  59 L 721,  60 L 722, 100 L 723, 100 L 724,  60 L 725,  60 L 726,  60 L 727, 100 L 728,  99 L 729,  60 L 730,  60 L 731,  60 L 732, 100 L 733, 100 L 734,  60 L 735,  60 L 736,  60 L 737, 100 L 738, 100 L 739,  60 L 740,  60 L 741,  60 L 742, 100 L 743, 100 L 744,  68 L 745,  60 L 746,  60 L 747, 100 L 748, 100 L 749, 100 L 750,  60 L 751,  60 L 752, 100 L 753, 100 L 754, 100 L 755,  61 L 756,  60 L 757, 100 L 758, 100 L 759, 100 L 760,  60 L 761,  60 L 762, 100 L 763, 100 L 764, 100 L 765,  60 L 766,  60 L 767, 100 L 768, 100 L 769, 100 L 770,  60 L 771,  60 L 772, 100 L 773, 100 L 774, 100 L 775,  60 L 776,  60 L 777, 100 L 778, 100 L 779, 100 L 780,  60 L 781,  60 L 782, 100 L 783, 100 L 784, 100 L 785,  60 L 786,  60 L 787, 101 L 788, 100 L 789, 100 L 790,  60 L 791,  60 L 792,  99 L 793,  99 L 794, 100 L 795,  60 L 796,  60 L 797, 100 L 798, 100 L 799, 100 L 800,  60 L 801,  60 L 802, 100 L 803, 100 L 804, 100 L 805,  60 L 806,  60 L 807, 100 L 808, 100 L 809, 100 L 810,  60 L 811,  60 L 812, 100 L 813, 100 L 814, 100 L 815,  60 L 816,  60 L 817, 100 L 818, 100 L 819, 100 L 820,  60 L 821,  60 L 822, 100 L 823, 100 L 824, 100 L 825,  60 L 826,  59 L 827, 100 L 828, 100 L 829, 100 L 830,  60 L 831,  60 L 832, 100 L 833, 100 L 834, 100 L 835,  60 L 836,  60 L 837, 100 L 838, 100 L 839, 100 L 840,  60 L 841,  60 L 842, 100 L 843, 100 L 844, 100 L 845,  60 L 846,  60 L 847, 100 L 848, 100 L 849, 100 L 850,  60 L 851,  60 L 852, 100 L 853,  99 L 854, 100 L 855,  60 L 856,  60 L 857, 100 L 858, 100 L 859, 100 L 860,  60 L 861,  60 L 862, 100 L 863, 100 L 864, 100 L 865,  60 L 866,  60 L 867, 100 L 868, 100 L 869, 100 L 870,  60 L 871,  60 L 872, 100 L 873, 100 L 874, 100 L 875,  60 L 876,  60 L 877,  99 L 878, 100 L 879, 100 L 880,  60 L 881,  60 L 882, 100 L 883, 100 L 884,  99 L 885,  60 L 886,  59 L 887, 100 L 888, 100 L 889, 100 L 890,  60 L 891,  60 L 892, 100 L 893, 100 L 894, 100 L 895,  60 L 896,  60 L 897, 100 L 898, 100 L 899, 100 L 900,  60 L 901,  60 L 902, 100 L 903, 100 L 904, 100 L 905,  60 L 906,  60 L 907, 100 L 908, 100 L 909, 100 L 910,  60 L 911,  60 L 912, 100 L 913, 100 L 914,  99 L 915,  60 L 916,  60 L 917, 100 L 918, 100 L 919, 100 L 920,  60 L 921,  60 L 922, 100 L 923, 100 L 924, 100 L 925,  60 L 926,  60 L 927, 100 L 928, 100 L 929, 100 L 930,  60 L 931,  60 L 932, 100 L 933, 100 L 934, 100 L 935,  60 L 936,  60 L 937, 100 L 938, 100 L 939, 100 L 940,  60 L 941,  60 L 942, 100 L 943, 100 L 944, 100 L 945,  59 L 946,  60 L 947, 100 L 948, 100 L 949, 100 L 950,  60 L 951,  60 L 952, 100 L 953, 100 L 954, 100 L 955,  61 L 956,  60 L 957, 100 L 958, 100 L 959, 100 L 960,  60 L 961,  60 L 962, 100 L 963, 100 L 964, 100 L 965,  60 L 966,  60 L 967, 100 L 968, 100 L 969,  99 L 970,  60 L 971,  60 L 972, 100 L 973, 100 L 974, 100 L 975,  60 L 976,  60 L 977, 100 L 978, 100 L 979, 100 L 980,  60 L 981,  60 L 982, 100 L 983, 100 L 984, 100 L 985,  60 L 986,  60 L 987, 100 L 988, 100 L 989, 100 L 990,  60 L 991,  60 L 992, 100 L 993, 100 L 994, 100 L 995,  60 L 996,  60 L 997, 100 L 998, 100 L 999, 100 L1000,  60 L1001,  60 L1002, 100 L1003, 100 L1004, 100 L1005,  60 L1006,  60 L1007, 100 L1008, 100 L1009, 100 L1010,  59 L1011,  60 L1012, 100 L1013, 100 L1014, 100 L1015,  60 L1016,  60 L1017, 100 L1018, 100 L1019, 100 L1020,  60 L1021,  60 L1022, 100 L1023, 100 L1024, 100 L1025,  60 L1026,  60 L1027, 100 L1028, 100 L1029, 100 L1030,  60 L1031,  60 L1032, 100 L1033, 100 L1034, 100 L1035,  60 L1036,  60 L1037, 100 L1038, 100 L1039, 100 L1040,  60 L1041,  60 L1042, 100 L1043, 100 L1044, 100 L1045,  60 L1046,  60 L1047, 100 L1048, 100 L1049, 100 L1050,  60 L1051,  60 L1052, 100 L1053, 100 L1054, 100 L1055,  60 L1056,  60 L1057, 100 L1058, 101 L1059, 100 L1060,  60 L1061,  60 L1062, 100 L1063, 100 L1064, 100 L1065,  61 L1066,  60 L1067, 100 L1068, 100 L1069, 100 L1070,  60 L1071,  60 L1072, 100 L1073, 100 L1074, 100 L1075,  60 L1076,  60 L1077,  99 L1078, 100 L1079, 100 L1080,  61 L1081,  60 L1082, 100 L1083,  99 L1084, 100 L1085,  61 L1086,  61 L1087, 100 L1088, 100 L1089, 100 L1090,  62 L1091,  62 L1092, 100 L1093, 100 L1094, 100 L1095,  63 L1096,  63 L1097, 100 L1098, 100 L1099, 100 L1100,  64 L1101,  64 L1102, 100 L1103, 100 L1104, 100 L1105,  65 L1106,  65 L1107, 100 L1108, 100 L1109, 100 L1110,  66 L1111,  66 L1112,  99 L1113, 100 L1114, 100 L1115,  67 L1116,  67 L1117, 100 L1118, 100 L1119, 100 L1120,  68 L1121,  68 L1122, 100 L1123, 100 L1124, 100 L1125,  69 L1126,  69 L1127, 100 L1128, 100 L1129, 100 L1130,  70 L1131,  70 L1132, 100 L1133, 100 L1134, 100 L1135,  71 L1136,  71 L1137, 100 L1138, 100 L1139, 100 L1140,  72 L1141,  72 L1142, 100 L1143, 100 L1144, 100 L1145,  73 L1146,  73 L1147, 100 L1148, 100 L1149, 100 L1150,  74 L1151,  74 L1152, 100 L1153, 100 L1154, 100 L1155,  75 L1156,  75 L1157, 100 L1158, 100 L1159, 100 L1160,  75 L1161,  76 L1162, 100 L1163, 100 L1164, 100 L1165,  76 L1166,  76 L1167, 100 L1168,  99 L1169, 100 L1170,  78 L1171,  78 L1172, 100 L1173, 100 L1174, 100 L1175,  78 L1176,  78 L1177, 100 L1178, 100 L1179, 100 L1180,  79 L1181,  79 L1182, 100 L1183, 100 L1184, 100 L1185,  80 L1186,  80 L1187, 100 L1188, 100 L1189, 100 L1190,  81 L1191,  81 L1192, 100 L1193, 100 L1194,  99 L1195,  82 L1196,  82 L1197, 100 L1198, 100 L1199, 100 L1200,  83 L1201,  83 L1202, 100 L1203,  99 L1204, 100 L1205,  84 L1206,  84 L1207, 100 L1208, 100 L1209, 100 L1210,  84 L1211,  85 L1212, 100 L1213, 100 L1214, 100 L1215,  86 L1216,  86 L1217, 100 L1218, 100 L1219, 100 L1220,  87 L1221,  87 L1222, 100 L1223, 100 L1224, 100 L1225,  87 L1226,  88 L1227, 100 L1228, 100 L1229, 100 L1230,  89 L1231,  89 L1232, 100 L1233, 100 L1234, 101 L1235,  89 L1236,  90 L1237, 100 L1238, 100 L1239, 100 L1240,  91 L1241,  91 L1242, 100 L1243, 100 L1244, 100 L1245,  91 L1246,  92 L1247, 100 L1248, 100 L1249, 100 L1250,  92 L1251,  92 L1252, 100 L1253, 100 L1254, 101 L1255,  94 L1256,  94 L1257, 100 L1258, 100 L1259,  99 L1260,  94 L1261,  94 L1262, 100 L1263, 100 L1264, 100 L1265,  96 L1266,  96 L1267, 100 L1268, 100 L1269, 100 L1270,  96 L1271,  97 L1272,  99 L1273, 101 L1274, 100 L1275,  97 L1276,  97 L1277, 100 L1278, 100 L1279, 100 L1280,  98 L1281,  99 L1282, 100 L1283, 100 L1284, 100 L1285,  99 L1286,  99 L1287, 100 L1288, 100 L1289, 100 L1290, 100 L1291, 100 L1292, 100 L1293, 100 L1294, 100 L1295, 100 L1296, 100 L1297, 100 L1298, 100 L1299, 100 L1300, 100 L1301, 100 L1302, 100 L1303, 100 L1304, 100 L1305, 100 L1306, 100 L1307, 100 L1308, 100 L1309, 100 L1310, 100 L1311, 100 L1312, 100 L1313, 100 L1314, 100 L1315, 100 L1316, 100 L1317, 100 L1318, 100 L1319, 100 L1320, 100 L1321, 100 L1322, 100 L1323, 100 L1324, 100 L1325, 100 L1326, 100 L1327, 100 L1328,  99 L1329, 100 L1330, 100 L1331, 100 L1332, 100 L1333, 100 L1334, 100 L1335, 100 L1336, 100 L1337, 100 L1338, 100 L1339, 100 L1340, 100 L1341, 100 L1342, 100 L1343, 100 L1344, 100 L1345, 100 L1346, 100 L1347, 100 L1348, 100 L1349, 100 L1350, 100 L1351, 100 L1352, 100 L1353, 100 L1354, 100 L1355, 100 L1356, 100 L1357, 100 L1358, 100 L1359, 100 L1360, 100 L1361, 100 L1362, 100 L1363, 100 L1364, 100 L1365, 100 L1366, 100 L1367, 100 L1368, 100 L1369, 100 L1370, 100 L1371, 100 L1372, 100 L1373, 100 L1374, 100 L1375, 100 L1376, 100 L1377, 100 L1378, 100 L1379, 100 L1380, 100 L1381, 100 L1382, 100 L1383, 100 L1384, 100 L1385, 100 L1386, 100 L1387, 100 L1388, 100 L1389, 100 L1390, 100 L1391, 100 L1392, 100 L1393, 100 L1394, 100 L1395, 100 L1396, 100 L1397, 100 L1398, 100 L1399, 100 L1400, 100 L1401, 100 L1402, 100 L1403, 100 L1404, 100 L1405, 100 L1406, 100 L1407, 101 L1408, 100 L1409, 100 L1410, 100 L1411,  99 L1412, 100 L1413, 100 L1414, 100 L1415, 100 L1416, 100 L1417, 100 L1418, 100 L1419,  99 L1420, 100 L1421, 100 L1422, 100 L1423, 100 L1424, 100 L1425, 100 L1426, 100 L1427, 100 L1428, 100 L1429, 100 L1430, 100 L1431, 100 L1432, 100 L1433, 100 L1434, 100 L1435, 100 L1436, 100 L1437, 100 L1438, 100 L1439, 100 L1440, 100 L1441, 100 L1442, 100 L1443, 100 L1444, 100 L1445, 100 L1446, 100 L1447, 100 L1448, 100 L1449, 100 L1450, 100 L1451, 100 L1452, 100 L1453, 100 L1454, 100 L1455, 100 L1456, 100 L1457, 100 L1458, 100 L1459, 100 L1460, 100 L1461,  99 L1462, 100 L1463, 100 L1464, 100 L1465, 100 L1466, 100 L1467, 100 L1468, 100 L1469, 100 L1470, 100 L1471, 100 L1472, 100 L1473, 100 L1474, 100 L1475, 100 L1476, 100 L1477, 100 L1478, 100 L1479, 100 L1480, 100 L1481, 100 L1482, 100 L1483, 100 L1484, 100 L1485, 100 L1486, 100 L1487, 100 L1488, 100 L1489, 100 L1490, 100 L1491, 100 L1492, 100 L1493,  99 L1494, 100 L1495, 100 L1496, 100 L1497, 100 L1498, 100 L1499, 100 L1500, 100 L1501, 100 L1502, 100 L1503, 100 L1504, 100 L1505, 100 L1506, 100 L1507, 100 L1508, 100 L1509, 100 L1510, 100 L1511, 100 L1512, 100 L1513, 100 L1514, 100 L1515, 100 L1516, 100 L1517, 100 L1518, 100 L1519, 100 L1520, 100 L1521, 100 L1522, 100 L1523, 100 L1524, 100 L1525, 100 L1526, 100 L1527, 100 L1528, 100 L1529, 100 L1530, 100 L1531, 100 L1532, 100 L1533, 100 L1534, 100 L1535, 100 L1536, 100 L1537, 100 L1538, 100 L1539, 100 L1540, 100 L1541, 100 L1542, 100 L1543, 100 L1544, 100 L1545, 100 L1546, 100 L1547, 100 L1548, 100 L1549, 100 L1550, 100 L1551, 100 L1552, 100 L1553, 100 L1554, 100 L1555, 100 L1556, 100 L1557, 100 L1558, 100 L1559, 100 L1560, 100 L1561, 100 L1562, 100 L1563, 100 L1564, 100 L1565, 100 L1566, 100 L1567, 100 L1568, 100 L1569, 100 L1570, 100 L1571, 100 L1572, 100 L1573,  99 L1574, 100 L1575, 100 L1576, 100 L1577, 100 L1578, 100 L1579, 100 L1580, 100 L1581, 100 L1582, 100 L1583, 101 L1584, 100 L1585, 100 L1586, 100 L1587, 100 L1588, 100 L1589, 100 L1590, 100 L1591, 100 L1592, 100 L1593, 100 L1594, 100 L1595, 100 L1596, 100 L1597, 100 L1598,  99 L1599, 101 L1600, 100 L1601, 100 L1602, 100 L1603, 100 L1604, 100 L1605, 100 L1606, 100 L1607, 100 L1608, 100 L1609, 100 L1610, 100 L1611, 100 L1612, 100 L1613, 100 L1614, 100 L1615, 100 L1616, 100 L1617, 100 L1618, 100 L1619, 100 L1620, 100 L1621, 100 L1622, 100 L1623, 100 L1624, 100 L1625, 100 L1626, 100 L1627, 100 L1628, 100 L1629, 100 L1630, 100 L1631, 100 L1632, 100 L1633, 100 L1634, 100 L1635, 100 L1636, 100 L1637, 100 L1638, 100 L1639, 100 L1640, 100 L1641, 100 L1642, 100 L1643, 100 L1644,  99 L1645, 100 L1646, 100 L1647, 100 L1648, 100 L1649, 100 L1650, 100 L1651, 100 L1652, 100 L1653, 100 L1654, 100 L1655, 100 L1656, 100 L1657, 100 L1658, 100 L1659, 100 L1660, 100 L1661, 100 L1662, 100 L1663, 100 L1664, 100 L1665, 100 L1666, 100 L1667,  99 L1668, 100 L1669, 100 L1670, 100 L1671, 100 L1672, 100 L1673, 100 L1674, 100 L1675, 100 L1676, 100 L1677, 100 L1678, 100 L1679, 100 L1680,  99 L1681, 100 L1682, 100 L1683, 100 L1684, 100 L1685, 100 L1686, 100 L1687, 100 L1688, 100 L1689, 101 L1690, 100 L1691, 100 L1692, 100 L1693, 100 L1694, 100 L1695, 100 L1696, 100 L1697, 100 L1698, 100 L1699, 100 L1700, 100 L1701, 100 L1702, 100 L1703, 100 L1704, 100 L1705, 100 L1706, 100 L1707, 100 L1708, 100 L1709, 100 L1710, 100 L1711, 100 L1712, 100 L1713, 100 L1714, 100 L1715, 100 L1716, 100 L1717, 100 L1718, 100 L1719, 100 L1720, 100 L1721, 100 L1722, 100 L1723, 100 L1724, 100 L1725, 100 L1726, 100 L1727, 100 L1728, 100 L1729, 100 L1730, 100 L1731, 100 L1732, 100 L1733, 100 L1734, 100 L1735, 100 L1736,  99 L1737, 100 L1738, 100 L1739, 100 L1740, 100 L1741, 100 L1742, 100 L1743, 100 L1744, 100 L1745, 100 L1746, 100 L1747, 100 L1748, 100 L1749, 100 L1750, 100 L1751, 100 L1752, 100 L1753, 100 L1754, 100 L1755, 100 L1756, 100 L1757, 100 L1758, 100 L1759, 100 L1760, 100 L1761, 100 L1762, 100 L1763, 100 L1764, 100 L1765, 100 L1766, 100 L1767, 100 L1768, 100 L1769, 100 L1770, 100 L1771, 100 L1772, 100 L1773, 100 L1774, 100 L1775, 100 L1776, 100 L1777, 100 L1778, 100 L1779, 100 L1780, 100 L1781, 100 L1782, 100 L1783, 100 L1784, 100 L1785, 100 L1786, 100 L1787, 100 L1788, 100 L1789, 100 L1790, 100 L1791, 100 L1792, 100 L1793, 100 L1794, 100 L1795, 100 L1796,  99 L1797, 100 L1798, 100 L1799, 101 L1800,  99 L1801, 100 L1802, 100 L1803, 100 L1804, 100 L1805, 100 L1806, 100 L1807, 100 L1808, 100 L1809, 100 L1810, 100 L1811, 100 L1812, 100 L1813, 100 L1814, 100 L1815, 100 L1816, 100 L1817, 100 L1818, 100 L1819, 100 L1820, 100 L1821, 100 L1822, 100 L1823, 100 L1824, 100 L1825, 100 L1826, 100 L1827, 100 L1828, 100 L1829, 100 L1830, 100 L1831, 101 L1832, 100 L1833, 100 L1834, 100 L1835, 100 L1836, 100 L1837, 100 L1838, 100 L1839, 100 L1840, 100 L1841, 100 L1842, 100 L1843, 100 L1844, 100 L1845, 100 L1846, 100 L1847, 100 L1848, 100 L1849, 100 L1850, 100 L1851, 100 L1852, 100 L1853, 100 L1854, 100 L1855, 100 L1856, 100 L1857, 100 L1858, 100 L1859, 100 L1860, 100 L1861, 100 L1862, 100 L1863, 101 L1864, 100 L1865, 100 L1866, 100 L1867, 100 L1868, 100 L1869, 100 L1870, 100 L1871, 100 L1872, 100 L1873, 100 L1874, 100 L1875, 100 L1876, 100 L1877, 100 L1878, 100 L1879, 100 L1880, 100 L1881, 100 L1882, 100 L1883, 100 L1884, 100 L1885, 100 L1886, 100 L1887, 100 L1888, 100 L1889, 100 L1890, 100 L1891, 100 L1892, 100 L1893, 100 L1894,  99 L1895, 100 L1896, 100 L1897, 100 L1898, 100 L1899, 100 L1900, 100 L1901, 100 L1902, 100 L1903, 100 L1904, 100 L1905, 100 L1906,  99 L1907, 100 L1908, 100 L1909, 100 L1910, 100 L1911, 100 L1912, 100 L1913, 100 L1914, 100 L1915, 100 L1916, 100 L1917, 100 L1918, 100 L1919, 100 L1920, 100 L1921, 100 L1922, 100 L1923, 100 L1924, 100 L1925,  99 L1926, 100 L1927, 100 L1928, 100 L1929, 100 L1930, 100 L1931, 100 L1932, 100 L1933, 100 L1934, 100 L1935, 100 L1936, 100 L1937, 100 L1938, 100 L1939, 100 L1940, 100 L1941, 100 L1942, 100 L1943, 100 L1944, 100 L1945, 100 L1946, 100 L1947, 100 L1948, 100 L1949, 100 L1950, 100 L1951, 100 L1952, 100 L1953, 100 L1954, 100 L1955, 100 L1956, 100 L1957, 100 L1958, 100 L1959, 100 L1960, 100 L1961, 100 L1962, 100 L1963, 100 L1964, 101 L1965, 100 L1966, 100 L1967, 100 L1968, 100 L1969, 100 L1970, 100 L1971, 100 L1972, 100 L1973, 100 L1974, 100 L1975, 100 L1976, 100 L1977, 100 L1978, 100 L1979, 100 L1980, 100 L1981, 100 L1982, 100 L1983, 100 L1984, 100 L1985, 100 L1986, 100 L1987, 100 L1988, 100 L1989, 100 L1990, 100 L1991, 100 L1992, 100 L1993, 100 L1994, 100 L1995, 100 L1996, 100 L1997, 100 L1998, 100 L1999, 100 L2000, 100 L2001, 100 L2002,  99 L2003, 100 L2004, 100 L2005, 100 L2006, 100 L2007, 100 L2008, 100 L2009, 100 L2010, 100 L2011, 100 L2012, 100 L2013, 100 L2014, 100 L2015, 100 L2016, 100 L2017, 100 L2018, 100 L2019, 100 L2020, 100 L2021, 100 L2022, 100 L2023, 101 L2024, 101 L2025, 100 L2026, 100 L2027, 100 L2028, 100 L2029, 100 L2030, 100 L2031, 100 L2032, 101 L2033, 100 L2034, 100 L2035, 100 L2036, 100 L2037, 100 L2038, 100 L2039, 100 L2040, 100 L2041,  99 L2042,  99 L2043, 100 L2044, 100 L2045, 100 L2046,  99 L2047,  98 L2048, 100 L2049, 100 L2050,  99 L2051,  97 L2052,  97 L2053, 100 L2054, 100 L2055, 100 L2056,  97 L2057,  96 L2058, 100 L2059, 100 L2060, 100 L2061,  96 L2062,  95 L2063, 101 L2064, 100 L2065, 100 L2066,  95 L2067,  95 L2068, 100 L2069, 100 L2070, 100 L2071,  94 L2072,  94 L2073, 100 L2074, 100 L2075, 100 L2076,  93 L2077,  93 L2078, 100 L2079, 100 L2080, 100 L2081,  92 L2082,  92 L2083, 100 L2084, 100 L2085, 100 L2086,  91 L2087,  91 L2088, 100 L2089, 100 L2090, 100 L2091,  90 L2092,  90 L2093, 100 L2094, 100 L2095, 100 L2096,  89 L2097,  89 L2098, 100 L2099, 101 L2100, 100 L2101,  88 L2102,  88 L2103, 100 L2104, 100 L2105, 100 L2106,  87 L2107,  87 L2108, 100 L2109, 100 L2110, 100 L2111,  86 L2112,  86 L2113, 100 L2114, 100 L2115, 100 L2116,  85 L2117,  85 L2118, 100 L2119, 100 L2120, 100 L2121,  84 L2122,  84 L2123, 100 L2124, 100 L2125,  99 L2126,  84 L2127,  83 L2128, 100 L2129, 100 L2130, 100 L2131,  82 L2132,  82 L2133, 100 L2134, 100 L2135, 100 L2136,  81 L2137,  81 L2138, 100 L2139, 100 L2140, 100 L2141,  81 L2142,  80 L2143, 100 L2144, 100 L2145, 100 L2146,  80 L2147,  80 L2148, 100 L2149, 100 L2150, 100 L2151,  79 L2152,  79 L2153, 100 L2154, 100 L2155, 100 L2156,  78 L2157,  78 L2158, 100 L2159, 100 L2160, 100 L2161,  76 L2162,  77 L2163, 100 L2164, 100 L2165, 100 L2166,  76 L2167,  76 L2168, 100 L2169, 100 L2170, 100 L2171,  75 L2172,  75 L2173,  99 L2174, 100 L2175, 100 L2176,  74 L2177,  74 L2178, 100 L2179, 100 L2180, 100 L2181,  73 L2182,  73 L2183, 100 L2184, 100 L2185, 100 L2186,  72 L2187,  72 L2188, 100 L2189, 100 L2190, 100 L2191,  72 L2192,  71 L2193, 100 L2194, 100 L2195, 100 L2196,  70 L2197,  70 L2198, 100 L2199, 100 L2200, 100 L2201,  69 L2202,  69 L2203, 100 L2204, 100 L2205, 100 L2206,  69 L2207,  69 L2208, 100 L2209, 100 L2210, 100 L2211,  68 L2212,  67 L2213, 100 L2214, 101 L2215, 101 L2216,  67 L2217,  67 L2218, 100 L2219, 100 L2220, 100 L2221,  66 L2222,  66 L2223, 100 L2224, 100 L2225, 100 L2226,  65 L2227,  65 L2228, 100 L2229, 100 L2230, 100 L2231,  64 L2232,  64 L2233, 100 L2234, 100 L2235, 100 L2236,  63 L2237,  63 L2238, 100 L2239, 100 L2240, 100 L2241,  62 L2242,  62 L2243, 100 L2244, 100 L2245, 100 L2246,  61 L2247,  61 L2248, 100 L2249, 100 L2250, 100 L2251,  60 L2252,  60 L2253, 100 L2254, 100 L2255, 100 L2256,  60 L2257,  60 L2258, 100 L2259, 100 L2260,  99 L2261,  60 L2262,  60 L2263, 100 L2264, 100 L2265, 100 L2266,  60 L2267,  60 L2268, 100 L2269, 100 L2270, 100 L2271,  60 L2272,  60 L2273, 100 L2274, 100 L2275, 100 L2276,  60 L2277,  60 L2278, 100 L2279, 100 L2280, 100 L2281,  60 L2282,  60 L2283, 100 L2284, 100 L2285, 100 L2286,  59 L2287,  60 L2288, 100 L2289, 100 L2290, 100 L2291,  60 L2292,  60 L2293, 100 L2294, 100 L2295, 100 L2296,  60 L2297,  60 L2298, 100 L2299, 100 L2300, 100 L2301,  59 L2302,  60 L2303, 100 L2304, 100 L2305, 100 L2306,  60 L2307,  60 L2308, 100 L2309, 100 L2310, 100 L2311,  60 L2312,  60 L2313, 100 L2314, 100 L2315, 100 L2316,  60 L2317,  60 L2318, 100 L2319, 100 L2320, 100 L2321,  60 L2322,  60 L2323, 100 L2324, 100 L2325, 100 L2326,  60 L2327,  60 L2328,  99 L2329, 100 L2330, 100 L2331,  60 L2332,  60 L2333, 100 L2334, 100 L2335, 100 L2336,  60 L2337,  60 L2338, 100 L2339, 100 L2340, 100 L2341,  60 L2342,  60 L2343, 100 L2344, 100 L2345, 100 L2346,  60 L2347,  60 L2348, 100 L2349, 100 L2350, 100 L2351,  60 L2352,  60 L2353, 100 L2354, 100 L2355, 100 L2356,  60 L2357,  60 L2358, 100 L2359, 100 L2360,  99 L2361,  60 L2362,  60 L2363, 100 L2364, 100 L2365, 100 L2366,  60 L2367,  60 L2368,  99 L2369, 100 L2370,  99 L2371,  60 L2372,  60 L2373, 100 L2374, 100 L2375, 100 L2376,  60 L2377,  60 L2378, 100 L2379, 100 L2380, 100 L2381,  60 L2382,  60 L2383, 100 L2384, 100 L2385, 100 L2386,  60 L2387,  60 L2388, 100 L2389, 100 L2390, 100 L2391,  60 L2392,  60 L2393, 100 L2394, 100 L2395, 100 L2396,  60 L2397,  60 L2398, 100 L2399, 100 L2400, 100 L2401,  60 L2402,  60 L2403, 100 L2404, 100 L2405, 100 L2406,  60 L2407,  60 L2408, 100 L2409, 100 L2410, 100 L2411,  60 L2412,  60 L2413, 100 L2414, 100 L2415, 100 L2416,  60 L2417,  60 L2418, 100 L2419, 100 L2420, 100 L2421,  60 L2422,  60 L2423, 100 L2424, 100 L2425, 100 L2426,  60 L2427,  60 L2428, 100 L2429, 100 L2430, 100 L2431,  60 L2432,  60 L2433, 100 L2434, 100 L2435, 100 L2436,  60 L2437,  60 L2438, 100 L2439, 100 L2440, 100 L2441,  60 L2442,  60 L2443, 100 L2444, 100 L2445, 100 L2446,  60 L2447,  60 L2448, 100 L2449, 100 L2450, 100 L2451,  60 L2452,  60 L2453, 100 L2454, 100 L2455, 100 L2456,  60 L2457,  60 L2458, 100 L2459, 100 L2460, 100 L2461,  60 L2462,  60 L2463, 100 L2464, 100 L2465, 100 L2466,  60 L2467,  60 L2468, 100 L2469, 100 L2470, 100 L2471,  60 L2472,  60 L2473, 100 L2474, 100 L2475,  99 L2476,  60 L2477,  60 L2478, 100 L2479, 100 L2480, 100 L2481,  60 L2482,  60 L2483, 100 L2484, 100 L2485, 100 L2486,  60 L2487,  60 L2488, 100 L2489, 100 L2490, 100 L2491,  60 L2492,  58 L2493, 100 L2494, 100 L2495, 100 L2496,  60 L2497,  60 L2498, 100 L2499, 100 L2500, 100 L2501,  60 L2502,  59 L2503, 100 L2504, 100 L2505, 100 L2506,  60 L2507,  60 L2508, 100 L2509, 100 L2510, 100 L2511,  60 L2512,  60 L2513, 100 L2514, 100 L2515, 100 L2516,  60 L2517,  60 L2518, 100 L2519, 100 L2520,  99 L2521,  60 L2522,  60 L2523, 100 L2524,  99 L2525, 100 L2526,  59 L2527,  60 L2528,  99 L2529, 100 L2530, 100 L2531,  60 L2532,  60 L2533, 100 L2534, 100 L2535, 100 L2536,  60 L2537,  60 L2538, 100 L2539,  99 L2540, 100 L2541,  60 L2542,  60 L2543, 100 L2544, 100 L2545, 100 L2546,  60 L2547,  60 L2548,  60 L2549, 100 L2550, 100 L2551,  60 L2552,  60 L2553,  60 L2554, 100 L2555, 100 L2556,  60 L2557,  60 L2558,  60 L2559, 100 L2560, 100 L2561,  60 L2562,  60 L2563,  60 L2564, 100 L2565, 100 L2566,  60 L2567,  60 L2568,  59 L2569, 100 L2570, 100 L2571,  60 L2572,  60 L2573,  60 L2574, 100 L2575, 100 L2576,  60 L2577,  60 L2578,  60 L2579, 100 L2580, 100 L2581,  60 L2582,  60 L2583,  60 L2584, 100 L2585, 100 L2586,  60 L2587,  60 L2588,  60 L2589, 100 L2590, 100 L2591,  60 L2592,  60 L2593,  60 L2594, 100 L2595, 100 L2596,  60 L2597,  60 L2598,  60 L2599, 100 L2600, 100 L2601,  60 L2602,  60 L2603,  60 L2604, 100 L2605, 100 L2606,  60 L2607,  60 L2608,  60 L2609, 100 L2610, 100 L2611,  60 L2612,  60 L2613,  60 L2614, 100 L2615, 100 L2616,  60 L2617,  60 L2618,  60 L2619, 100 L2620, 100 L2621,  60 L2622,  60 L2623,  60 L2624, 100 L2625, 100 L2626,  60 L2627,  60 L2628,  60 L2629, 100 L2630, 100 L2631,  60 L2632,  60 L2633,  60 L2634, 100 L2635,  99 L2636,  60 L2637,  60 L2638,  60 L2639, 100 L2640, 100 L2641,  60 L2642,  60 L2643,  60 L2644, 100 L2645,  80 L2646,  60 L2647,  60 L2648,  60 L2649, 100 L2650, 100 L2651,  60 L2652,  60 L2653,  60 L2654, 100 L2655, 100 L2656,  60 L2657,  60 L2658,  60 L2659, 100 L2660, 100 L2661,  60 L2662,  60 L2663,  60 L2664, 100 L2665,  76 L2666,  76 L2667, 100 L2668, 100 L2669, 100 L2670,  75 L2671,  75 L2672, 100 L2673, 100 L2674, 100 L2675,  74 L2676,  74 L2677, 100 L2678, 100 L2679, 100 L2680,  73 L2681,  73 L2682, 100 L2683, 100 L2684, 100 L2685,  72 L2686,  72 L2687, 100 L2688, 100 L2689, 100 L2690,  71 L2691,  71 L2692, 100 L2693, 100 L2694, 100 L2695,  71 L2696,  70 L2697, 100 L2698, 100 L2699, 100 L2700,  69 L2701,  69 L2702, 100 L2703, 100 L2704, 100 L2705,  68 L2706,  68 L2707, 100 L2708, 100 L2709, 100 L2710,  68 L2711,  67 L2712, 100 L2713, 100 L2714, 100 L2715,  66 L2716,  66 L2717, 100 L2718, 100 L2719, 100 L2720,  65 L2721,  65 L2722, 100 L2723, 100 L2724, 100 L2725,  64 L2726,  64 L2727, 100 L2728, 100 L2729, 100 L2730,  64 L2731,  63 L2732, 100 L2733, 100 L2734, 100 L2735,  63 L2736,  62 L2737, 100 L2738,  99 L2739, 100 L2740,  62 L2741,  62 L2742, 100 L2743, 100 L2744, 100 L2745,  61 L2746,  60 L2747, 100 L2748, 100 L2749, 100 L2750,  60 L2751,  60 L2752, 100 L2753, 100 L2754, 100 L2755,  60 L2756,  60 L2757, 100 L2758, 100 L2759, 100 L2760,  60 L2761,  60 L2762, 100 L2763, 100 L2764, 100 L2765,  60 L2766,  60 L2767, 100 L2768, 100 L2769, 100 L2770,  60 L2771,  60 L2772, 100 L2773, 100 L2774, 100 L2775,  60 L2776,  60 L2777, 100 L2778, 100 L2779, 100 L2780,  60 L2781,  60 L2782, 100 L2783, 100 L2784, 100 L2785,  60 L2786,  60 L2787, 100 L2788, 100 L2789,  99 L2790,  60 L2791,  60 L2792, 100 L2793, 100 L2794, 100 L2795,  60 L2796,  61 L2797, 100 L2798, 100 L2799, 100 L2800,  60 L2801,  60 L2802, 100 L2803, 100 L2804, 100 L2805,  60 L2806,  60 L2807, 100 L2808, 100 L2809, 100 L2810,  60 L2811,  60 L2812, 100 L2813, 101 L2814, 100 L2815,  60 L2816,  60 L2817, 100 L2818, 100 L2819, 100 L2820,  60 L2821,  60 L2822,  99 L2823,  99 L2824, 100 L2825,  60 L2826,  60 L2827, 100 L2828, 100 L2829, 100 L2830,  60 L2831,  60 L2832, 100 L2833, 100 L2834, 100 L2835,  60 L2836,  60 L2837, 100 L2838, 100 L2839, 100 L2840,  60 L2841,  60 L2842, 100 L2843, 100 L2844, 100 L2845,  60 L2846,  60 L2847, 100 L2848, 100 L2849, 100 L2850,  60 L2851,  60 L2852, 100 L2853, 100 L2854, 100 L2855,  60 L2856,  60 L2857, 100 L2858, 100 L2859, 100 L2860,  60 L2861,  60 L2862, 100 L2863, 100 L2864, 100 L2865,  60 L2866,  60 L2867, 100 L2868, 100 L2869, 100 L2870,  60 L2871,  60 L2872, 100 L2873, 100 L2874, 100 L2875,  60 L2876,  60 L2877, 100 L2878, 100 L2879, 100 L2880,  60 L2881,  60 L2882, 100 L2883, 100 L2884, 100 L2885,  60 L2886,  60 L2887, 100 L2888, 100 L2889, 100 L2890,  60 L2891,  60 L2892, 100 L2893, 100 L2894, 100 L2895,  60 L2896,  60 L2897,  99 L2898, 100 L2899,  99 L2900,  59 L2901,  60 L2902, 100 L2903, 100 L2904, 100 L2905,  60 L2906,  60 L2907, 100 L2908,  99 L2909, 100 L2910,  60 L2911,  60 L2912, 100 L2913, 100 L2914, 100 L2915,  60 L2916,  60 L2917, 100 L2918, 100 L2919, 100 L2920,  60 L2921,  60 L2922, 100 L2923, 100 L2924, 100 L2925,  60 L2926,  60 L2927, 100 L2928, 100 L2929, 100 L2930,  60 L2931,  60 L2932, 100 L2933, 100 L2934, 100 L2935,  60 L2936,  60 L2937, 100 L2938, 100 L2939, 100 L2940,  60 L2941,  60 L2942, 100 L2943, 100 L2944, 100 L2945,  60 L2946,  60 L2947, 100 L2948, 100 L2949, 100 L2950,  60 L2951,  60 L2952, 100 L2953, 100 L2954, 100 L2955,  60 L2956,  60 L2957, 100 L2958, 100 L2959, 100 L2960,  60 L2961,  60 L2962, 100 L2963, 100 L2964, 100 L2965,  60 L2966,  60 L2967, 100 L2968, 100 L2969, 100 L2970,  60 L2971,  60 L2972, 100 L2973, 100 L2974, 100 L2975,  59 L2976,  60 L2977, 100 L2978, 100 L2979, 100 L2980,  60 L2981,  60 L2982, 100 L2983, 100 L2984, 100 L2985,  60 L2986,  60 L2987, 100 L2988, 100 L2989, 100 L2990,  60 L2991,  60 L2992, 100 L2993, 100 L2994, 100 L2995,  60 L2996,  60 L2997,  99 L2998, 100 L2999, 100 L3000,  60 L3001,  60 L3002, 100 L3003, 100 L3004, 100 L3005,  60 L3006,  60 L3007, 100 L3008, 100 L3009, 100 L3010,  60 L3011,  60 L3012, 100 L3013, 100 L3014,  99 L3015,  60 L3016,  59 L3017, 100 L3018, 100 L3019, 100 L3020,  60 L3021,  60 L3022,  99 L3023, 100 L3024, 100 L3025,  59 L3026,  60 L3027, 100 L3028, 100 L3029, 100 L3030,  60 L3031,  60 L3032, 100 L3033, 100 L3034, 100 L3035,  60 L3036,  60 L3037,  96 L3038, 100 L3039,  99 L3040,  60 L3041,  60 L3042,  60 L3043, 100 L3044, 100 L3045,  60 L3046,  60 L3047,  60 L3048, 100 L3049, 100 L3050,  60 L3051,  60 L3052,  60 L3053, 100 L3054, 100 L3055,  60 L3056,  60 L3057,  60 L3058, 100 L3059, 100 L3060,  60 L3061,  60 L3062,  60 L3063, 100 L3064, 100 L3065,  60 L3066,  60 L3067,  60 L3068, 100 L3069, 100 L3070,  60 L3071,  60 L3072,  60 L3073, 100 L3074, 100 L3075,  60 L3076,  60 L3077,  60 L3078, 101 L3079, 100 L3080,  60 L3081,  60 L3082,  60 L3083, 100 L3084,  99 L3085,  60 L3086,  60 L3087,  60 L3088, 100 L3089, 100 L3090,  60 L3091,  60 L3092,  60 L3093, 100 L3094, 100 L3095,  60 L3096,  60 L3097,  60 L3098, 100 L3099,  99 L3100,  60 L3101,  60 L3102,  60 L3103, 100 L3104, 100 L3105,  60 L3106,  60 L3107,  60 L3108, 100 L3109, 100 L3110,  60 L3111,  60 L3112,  60 L3113, 100 L3114, 100 L3115,  60 L3116,  60 L3117,  60 L3118, 100 L3119, 100 L3120,  60 L3121,  60 L3122,  60 L3123,  99 L3124,  99 L3125,  60 L3126,  60 L3127,  60 L3128, 100 L3129, 100 L3130,  60 L3131,  60 L3132,  60 L3133, 100 L3134, 100 L3135,  60 L3136,  60 L3137,  60 L3138, 100 L3139, 100 L3140,  60 L3141,  60 L3142,  60 L3143, 100 L3144, 100 L3145,  60 L3146,  60 L3147,  60 L3148, 100 L3149, 100 L3150,  60 L3151,  60 L3152,  60 L3153, 100 L3154, 100 L3155,  60 L3156,  60 L3157,  60 L3158, 100 L3159, 100 L3160,  60 L3161,  60 L3162,  60 L3163, 100 L3164, 100 L3165,  60 L3166,  60 L3167,  60 L3168, 100 L3169, 100 L3170,  60 L3171,  60 L3172,  60 L3173, 100 L3174, 100 L3175,  60 L3176,  60 L3177,  60 L3178, 100 L3179, 100 L3180,  60 L3181,  60 L3182,  60 L3183, 100 L3184, 100 L3185,  60 L3186,  60 L3187,  60 L3188, 100 L3189, 100 L3190,  60 L3191,  60 L3192,  60 L3193, 100 L3194, 100 L3195,  60 L3196,  60 L3197,  60 L3198,  99 L3199, 100 L3200,  60 L3201,  60 L3202,  60 L3203, 100 L3204, 100 L3205,  60 L3206,  60 L3207,  60 L3208, 100 L3209,  99 L3210,  60 L3211,  61 L3212,  60 L3213, 100 L3214, 100 L3215,  60 L3216,  60 L3217,  60 L3218, 100 L3219, 100 L3220,  60 L3221,  60 L3222,  60 L3223,  99 L3224, 100 L3225,  60 L3226,  60 L3227,  60 L3228, 100 L3229, 100 L3230,  60 L3231,  60 L3232,  60 L3233, 100 L3234, 100 L3235,  60 L3236,  60 L3237,  60 L3238, 100 L3239, 100 L3240,  60 L3241,  60 L3242,  60 L3243, 100 L3244, 100 L3245,  60 L3246,  60 L3247,  60 L3248, 100 L3249, 100 L3250,  60 L3251,  60 L3252,  60 L3253, 100 L3254,  99 L3255,  60 L3256,  60 L3257,  60 L3258, 100 L3259, 100 L3260,  60 L3261,  60 L3262,  60 L3263, 100 L3264, 100 L3265,  60 L3266,  60 L3267,  60 L3268, 100 L3269, 100 L3270,  60 L3271,  60 L3272,  60 L3273, 100 L3274, 100 L3275,  60 L3276,  60 L3277,  60 L3278, 100 L3279, 100 L3280,  59 L3281,  60 L3282,  60 L3283, 100 L3284, 100 L3285,  60 L3286,  60 L3287,  60 L3288, 100 L3289, 100 L3290,  60 L3291,  60 L3292,  60 L3293, 100 L3294, 100 L3295,  60 L3296,  60 L3297,  60 L3298, 100 L3299, 100 L3300,  60 L3301,  60 L3302,  60 L3303, 100 L3304, 100 L3305,  60 L3306,  60 L3307,  60 L3308,  99 L3309, 100 L3310,  60 L3311,  60 L3312,  60 L3313, 100 L3314, 100 L3315,  60 L3316,  60 L3317,  60 L3318, 100 L3319, 100 L3320,  60 L3321,  60 L3322,  60 L3323, 100 L3324, 100 L3325,  60 L3326,  60 L3327,  60 L3328, 100 L3329, 100 L3330,  60 L3331,  60 L3332,  60 L3333, 100 L3334, 100 L3335,  60 L3336,  60 L3337,  60 L3338, 100 L3339, 100 L3340,  60 L3341,  60 L3342,  60 L3343, 100 L3344, 100 L3345,  60 L3346,  60 L3347,  59 L3348, 100 L3349, 100 L3350,  60 L3351,  60 L3352,  60 L3353, 100 L3354, 100 L3355,  60 L3356,  60 L3357,  60 L3358, 100 L3359, 100 L3360,  60 L3361,  60 L3362,  60 L3363, 100 L3364, 100 L3365,  60 L3366,  60 L3367,  60 L3368, 100 L3369, 100 L3370,  60 L3371,  60 L3372,  60 L3373, 100 L3374, 100 L3375,  60 L3376,  60 L3377,  60 L3378, 101 L3379, 100 L3380,  61 L3381,  61 L3382,  61 L3383, 100 L3384, 100 L3385,  62 L3386,  62 L3387,  62 L3388, 100 L3389, 100 L3390,  62 L3391,  63 L3392,  63 L3393, 100 L3394, 100 L3395,  64 L3396,  64 L3397,  64 L3398, 100 L3399, 100 L3400,  65 L3401,  65 L3402,  65 L3403, 100 L3404, 100 L3405,  65 L3406,  65 L3407,  66 L3408, 100 L3409, 100 L3410,  67 L3411,  67 L3412,  67 L3413, 100 L3414, 100 L3415,  68 L3416,  68 L3417,  68 L3418, 100 L3419, 100 L3420,  68 L3421,  69 L3422,  69 L3423, 100 L3424, 100 L3425,  69 L3426,  69 L3427,  70 L3428, 100 L3429, 100 L3430,  70 L3431,  70 L3432,  70 L3433, 100 L3434, 100 L3435,  71 L3436,  72 L3437,  72 L3438, 100 L3439, 100 L3440,  72 L3441,  72 L3442,  73 L3443, 100 L3444, 100 L3445,  73 L3446,  73 L3447,  73 L3448, 100 L3449, 100 L3450,  74 L3451,  74 L3452,  75 L3453, 100 L3454, 100 L3455,  75 L3456,  75 L3457,  75 L3458, 100 L3459, 100 L3460,  75 L3461,  76 L3462,  76 L3463, 100 L3464, 100 L3465,  77 L3466,  77 L3467,  77 L3468, 100 L3469, 100 L3470,  78 L3471,  78 L3472,  78 L3473, 100 L3474,  99 L3475,  79 L3476,  79 L3477,  79 L3478, 100 L3479, 100 L3480,  80 L3481,  79 L3482,  80 L3483, 100 L3484, 100 L3485,  81 L3486,  81 L3487,  81 L3488, 100 L3489, 100 L3490,  81 L3491,  82 L3492,  82 L3493, 100 L3494,  99 L3495,  83 L3496,  83 L3497,  83 L3498, 100 L3499, 100 L3500,  83 L3501,  84 L3502,  84 L3503, 100 L3504, 100 L3505,  84 L3506,  85 L3507,  85 L3508, 100 L3509, 100 L3510,  85 L3511,  85 L3512,  86 L3513, 100 L3514, 100 L3515,  86 L3516,  87 L3517,  87 L3518, 100 L3519, 100 L3520,  87 L3521,  87 L3522,  88 L3523, 100 L3524, 100 L3525,  88 L3526,  88 L3527,  88 L3528, 100 L3529, 100 L3530,  89 L3531,  89 L3532,  89 L3533, 100 L3534, 100 L3535,  90 L3536,  90 L3537,  90 L3538, 100 L3539,  99 L3540,  91 L3541,  91 L3542,  91 L3543, 100 L3544, 100 L3545,  92 L3546,  92 L3547,  92 L3548,  99 L3549, 100 L3550,  93 L3551,  93 L3552,  93 L3553, 100 L3554, 100 L3555,  94 L3556,  94 L3557,  94 L3558, 100 L3559, 100 L3560,  95 L3561,  95 L3562,  95 L3563, 100 L3564, 100 L3565,  96 L3566,  96 L3567,  96 L3568, 100 L3569, 100 L3570,  97 L3571,  97 L3572,  97 L3573,  99 L3574, 100 L3575,  97 L3576,  98 L3577,  98 L3578, 100 L3579, 100 L3580,  99 L3581,  99 L3582,  99 L3583, 100 L3584, 100 L3585,  99 L3586, 100 L3587, 100 L3588, 100 L3589, 100 L3590, 100 L3591, 100 L3592, 100 L3593, 100 L3594, 100 L3595, 100 L3596, 100 L3597, 100 L3598, 100 L3599, 100 L3600, 100 L3601, 100 L3602, 100 L3603, 100 L3604, 100 L3605, 100 L3606, 100 L3607, 100 L3608, 100 L3609, 100 L3610, 100 L3611, 100 L3612, 100 L3613, 100 L3614,  99 L3615,  99 L3616, 100 L3617, 100 L3618, 100 L3619, 100 L3620, 100 L3621, 100 L3622, 100 L3623, 100 L3624, 100 L3625, 100 L3626, 100 L3627, 100 L3628, 100 L3629, 100 L3630, 100 L3631, 100 L3632, 100 L3633, 100 L3634, 100 L3635, 100 L3636, 100 L3637, 101 L3638, 100 L3639, 100 L3640, 100 L3641, 100 L3642, 100 L3643, 100 L3644, 100 L3645, 100 L3646, 100 L3647, 100 L3648, 100 L3649, 100 L3650, 100 L3651, 100 L3652, 100 L3653, 100 L3654, 100 L3655, 100 L3656, 100 L3657,  99 L3658, 100 L3659, 100 L3660, 100 L3661, 100 L3662, 100 L3663, 101 L3664, 100 L3665,  99 L3666, 100 L3667,  99 L3668, 100 L3669, 100 L3670, 100 L3671, 100 L3672, 100 L3673, 100 L3674, 100 L3675, 100 L3676, 100 L3677, 100 L3678, 100 L3679, 100 L3680, 100 L3681, 100 L3682, 100 L3683, 100 L3684, 100 L3685, 100 L3686, 100 L3687, 100 L3688, 100 L3689, 100 L3690, 100 L3691, 100 L3692, 100 L3693, 100 L3694, 100 L3695, 100 L3696, 100 L3697, 100 L3698, 100 L3699, 100 L3700, 100 L3701, 100 L3702, 100 L3703, 100 L3704, 100 L3705, 100 L3706, 100 L3707, 100 L3708, 100 L3709, 100 L3710, 100 L3711, 100 L3712, 100 L3713, 100 L3714, 100 L3715, 100 L3716, 100 L3717, 100 L3718,  99 L3719, 100 L3720, 100 L3721, 100 L3722, 100 L3723, 100 L3724, 100 L3725, 100 L3726, 100 L3727, 100 L3728, 100 L3729, 100 L3730, 100 L3731, 100 L3732, 100 L3733, 100 L3734, 100 L3735, 100 L3736, 100 L3737, 100 L3738, 100 L3739, 100 L3740, 100 L3741, 100 L3742, 100 L3743, 100 L3744, 100 L3745, 100 L3746, 100 L3747, 100 L3748, 100 L3749, 100 L3750, 100 L3751, 100 L3752, 100 L3753, 100 L3754, 101 L3755, 100 L3756, 100 L3757, 100 L3758, 100 L3759, 100 L3760, 100 L3761, 100 L3762, 100 L3763, 100 L3764, 100 L3765, 100 L3766,  99 L3767, 100 L3768, 100 L3769, 100 L3770, 100 L3771, 100 L3772, 100 L3773, 100 L3774,  99 L3775, 100 L3776, 100 L3777, 100 L3778, 100 L3779, 100 L3780, 100 L3781, 100 L3782,  99 L3783, 100 L3784,  99 L3785, 100 L3786, 100 L3787, 100 L3788, 100 L3789, 100 L3790,  99 L3791, 100 L3792, 100 L3793, 100 L3794, 100 L3795, 100 L3796, 100 L3797, 100 L3798, 100 L3799, 100 L3800, 100 L3801, 100 L3802, 100 L3803, 100 L3804, 100 L3805, 100 L3806, 100 L3807, 100 L3808, 100 L3809, 100 L3810, 100 L3811, 100 L3812, 100 L3813, 100 L3814, 100 L3815,  99 L3816, 101 L3817, 100 L3818, 100 L3819, 100 L3820, 100 L3821, 101 L3822, 100 L3823, 100 L3824, 100 L3825, 100 L3826, 100 L3827, 100 L3828, 100 L3829, 101 L3830, 100 L3831, 100 L3832, 100 L3833, 100 L3834, 100 L3835, 100 L3836, 100 L3837, 100 L3838, 100 L3839, 100 L3840, 100 L3841, 100 L3842, 100 L3843, 100 L3844, 100 L3845, 100 L3846, 100 L3847, 100 L3848, 100 L3849, 100 L3850, 100 L3851, 100 L3852, 100 L3853, 100 L3854, 100 L3855, 100 L3856, 100 L3857, 100 L3858, 100 L3859, 100 L3860, 100 L3861, 100 L3862, 100 L3863, 100 L3864, 100 L3865, 100 L3866, 100 L3867, 100 L3868, 100 L3869, 100 L3870, 100 L3871, 100 L3872, 100 L3873, 100 L3874, 100 L3875, 100 L3876, 100 L3877, 100 L3878, 100 L3879, 100 L3880, 100 L3881, 100 L3882, 100 L3883, 100 L3884, 100 L3885, 100 L3886, 100 L3887, 100 L3888, 100 L3889, 100 L3890, 100 L3891, 100 L3892, 100 L3893, 100 L3894, 100 L3895, 100 L3896, 100 L3897, 100 L3898, 100 L3899,  99 L3900, 100 L3901, 100 L3902, 100 L3903, 100 L3904, 100 L3905, 100 L3906, 100 L3907, 100 L3908, 100 L3909, 100 L3910, 100 L3911, 100 L3912, 100 L3913, 100 L3914,  99 L3915, 100 L3916, 100 L3917, 100 L3918, 100 L3919, 100 L3920, 100 L3921, 100 L3922, 100 L3923, 100 L3924, 100 L3925, 100 L3926, 100 L3927, 100 L3928, 100 L3929, 100 L3930, 100 L3931, 100 L3932,  99 L3933, 100 L3934,  99 L3935, 100 L3936, 100 L3937, 100 L3938, 100 L3939,  99 L3940, 100 L3941, 100 L3942, 100 L3943, 100 L3944, 100 L3945, 100 L3946, 100 L3947, 100 L3948, 100 L3949, 100 L3950, 100 L3951, 100 L3952, 100 L3953, 100 L3954, 101 L3955, 100 L3956, 100 L3957, 100 L3958, 100 L3959, 100 L3960, 100 L3961, 100 L3962, 100 L3963, 100 L3964, 100 L3965, 100 L3966, 100 L3967, 100 L3968, 100 L3969, 100 L3970, 100 L3971, 100 L3972, 100 L3973, 100 L3974, 100 L3975, 100 L3976, 100 L3977, 100 L3978, 100 L3979, 100 L3980, 100 L3981, 100 L3982, 100 L3983, 100 L3984, 100 L3985, 100 L3986, 100 L3987, 100 L3988, 100 L3989, 100 L3990, 100 L3991, 100 L3992, 100 L3993, 100 L3994, 100 L3995, 100 L3996, 100 L3997,  99 L3998, 100 L3999, 100 L4000, 100 L4001, 100 L4002, 100 L4003, 100 L4004, 100 L4005, 100 L4006,  99 L4007, 100 L4008, 100 L4009, 100 L4010, 100 L4011, 100 L4012, 100 L4013, 100 L4014,  99 L4015,  99 L4016, 100 L4017, 100 L4018, 100 L4019, 100 L4020, 100 L4021, 100 L4022, 100 L4023, 100 L4024, 100 L4025, 100 L4026, 100 L4027, 100 L4028, 100 L4029, 100 L4030, 100 L4031, 100 L4032, 100 L4033,  99 L4034, 100 L4035, 100 L4036, 100 L4037, 100 L4038, 100 L4039, 100 L4040, 100 L4041, 100 L4042, 100 L4043, 100 L4044, 100 L4045, 100 L4046, 100 L4047, 100 L4048, 100 L4049, 100 L4050, 100 L4051, 100 L4052, 100 L4053, 100 L4054, 100 L4055, 100 L4056, 100 L4057, 100 L4058, 100 L4059, 100 L4060, 100 L4061, 100 L4062, 100 L4063, 100 L4064, 100 L4065, 100 L4066, 100 L4067, 100 L4068, 100 L4069, 100 L4070, 100 L4071, 100 L4072, 100 L4073, 100 L4074, 100 L4075, 100 L4076, 100 L4077, 100 L4078, 100 L4079, 100 L4080, 100 L4081, 100 L4082, 100 L4083, 100 L4084, 100 L4085, 100 L4086, 100 L4087,  99 L4088, 100 L4089,  99 L4090, 100 L4091, 100 L4092,  99 L4093, 100 L4094, 100 L4095, 100 L4096, 200"/>
<path stroke="yellow" fill="none" stroke-width="1" d="M   0, 110 L   1, 110 L   2, 110 L   3, 110 L   4, 110 L   5, 110 L   6, 110 L   7, 110 L   8, 110 L   9, 110 L  10, 110 L  11, 110 L  12, 110 L  13, 110 L  14, 110 L  15, 110 L  16, 110 L  17, 110 L  18, 111 L  19, 110 L  20, 110 L  21, 110 L  22, 110 L  23, 110 L  24, 110 L  25, 110 L  26, 110 L  27, 110 L  28, 110 L  29, 110 L  30, 110 L  31, 110 L  32, 110 L  33, 110 L  34, 110 L  35, 110 L  36, 110 L  37, 110 L  38, 110 L  39, 110 L  40, 110 L  41, 110 L  42, 110 L  43, 110 L  44, 110 L  45, 110 L  46, 110 L  47, 110 L  48, 110 L  49, 110 L  50, 110 L  51, 110 L  52, 110 L  53, 110 L  54, 110 L  55, 110 L  56, 110 L  57, 110 L  58, 110 L  59, 110 L  60, 110 L  61, 110 L  62, 110 L  63, 110 L  64, 110 L  65, 110 L  66, 110 L  67, 110 L  68, 110 L  69, 110 L  70, 110 L  71, 110 L  72, 110 L  73, 110 L  74, 110 L  75, 110 L  76, 110 L  77, 110 L  78, 110 L  79, 110 L  80, 110 L  81, 110 L  82, 110 L  83, 110 L  84, 110 L  85, 110 L  86, 110 L  87, 110 L  88, 110 L  89, 110 L  90, 110 L  91, 110 L  92, 110 L  93, 110 L  94, 110 L  95, 110 L  96, 110 L  97, 110 L  98, 110 L  99, 110 L 100, 111 L 101, 110 L 102, 110 L 103, 110 L 104, 110 L 105, 110 L 106, 110 L 107, 110 L 108, 110 L 109, 110 L 110, 110 L 111, 110 L 112, 110 L 113, 110 L 114, 110 L 115, 110 L 116, 110 L 117, 110 L 118, 110 L 119, 110 L 120, 110 L 121, 110 L 122, 110 L 123, 110 L 124, 110 L 125, 110 L 126, 110 L 127, 110 L 128, 110 L 129, 110 L 130, 110 L 131, 110 L 132, 110 L 133, 110 L 134, 110 L 135, 110 L 136, 110 L 137, 110 L 138, 110 L 139, 110 L 140, 110 L 141, 110 L 142, 110 L 143, 110 L 144, 110 L 145, 110 L 146, 110 L 147, 110 L 148, 110 L 149, 110 L 150, 110 L 151, 110 L 152, 111 L 153, 110 L 154, 110 L 155, 110 L 156, 110 L 157, 110 L 158, 110 L 159, 110 L 160, 110 L 161, 110 L 162, 110 L 163, 110 L 164, 110 L 165, 110 L 166, 110 L 167, 110 L 168, 110 L 169, 110 L 170, 110 L 171, 110 L 172, 110 L 173, 110 L 174, 110 L 175, 110 L 176, 110 L 177, 110 L 178, 110 L 179, 110 L 180, 110 L 181, 110 L 182, 110 L 183, 110 L 184, 110 L 185, 110 L 186, 110 L 187, 110 L 188, 110 L 189, 110 L 190, 110 L 191, 110 L 192, 110 L 193, 110 L 194, 110 L 195, 110 L 196, 110 L 197, 110 L 198, 110 L 199, 110 L 200, 110 L 201, 110 L 202, 110 L 203, 110 L 204, 110 L 205, 110 L 206, 110 L 207, 110 L 208, 110 L 209, 110 L 210, 110 L 211, 110 L 212, 110 L 213, 110 L 214, 110 L 215, 110 L 216, 110 L 217, 110 L 218, 110 L 219, 110 L 220, 110 L 221, 110 L 222, 110 L 223, 110 L 224, 110 L 225, 110 L 226, 110 L 227, 110 L 228, 110 L 229, 110 L 230, 110 L 231, 110 L 232, 110 L 233, 110 L 234, 110 L 235, 110 L 236, 110 L 237, 111 L 238, 110 L 239, 110 L 240, 110 L 241, 110 L 242, 110 L 243, 110 L 244, 110 L 245, 110 L 246, 110 L 247, 110 L 248, 110 L 249, 110 L 250, 110 L 251, 110 L 252, 110 L 253, 110 L 254, 110 L 255, 110 L 256, 110 L 257, 110 L 258, 110 L 259, 110 L 260, 110 L 261, 110 L 262, 110 L 263, 110 L 264, 110 L 265, 110 L 266, 110 L 267, 110 L 268, 110 L 269, 110 L 270, 110 L 271, 110 L 272, 110 L 273, 110 L 274, 110 L 275, 110 L 276, 110 L 277, 110 L 278, 110 L 279, 110 L 280, 110 L 281, 110 L 282, 110 L 283, 110 L 284, 110 L 285, 110 L 286, 110 L 287, 110 L 288, 110 L 289, 110 L 290, 110 L 291, 110 L 292, 110 L 293, 110 L 294, 110 L 295, 110 L 296, 110 L 297, 110 L 298, 110 L 299, 110 L 300, 110 L 301, 110 L 302, 110 L 303, 110 L 304, 110 L 305, 110 L 306, 110 L 307, 110 L 308, 110 L 309, 110 L 310, 110 L 311, 110 L 312, 110 L 313, 110 L 314, 110 L 315, 110 L 316, 110 L 317, 110 L 318, 110 L 319, 110 L 320, 110 L 321, 110 L 322, 110 L 323, 110 L 324, 110 L 325, 110 L 326, 110 L 327, 110 L 328, 110 L 329, 110 L 330, 110 L 331, 110 L 332, 110 L 333, 110 L 334, 110 L 335, 110 L 336, 110 L 337, 110 L 338, 110 L 339, 110 L 340, 110 L 341, 110 L 342, 110 L 343, 110 L 344, 110 L 345, 110 L 346, 110 L 347, 110 L 348, 110 L 349, 110 L 350, 110 L 351, 110 L 352, 110 L 353, 110 L 354, 110 L 355, 110 L 356, 110 L 357, 110 L 358, 110 L 359, 110 L 360, 110 L 361, 110 L 362, 110 L 363, 110 L 364, 110 L 365, 110 L 366, 110 L 367, 110 L 368, 110 L 369, 110 L 370, 110 L 371, 110 L 372, 110 L 373, 110 L 374, 110 L 375, 110 L 376, 110 L 377, 110 L 378, 110 L 379, 110 L 380, 110 L 381, 110 L 382, 110 L 383, 110 L 384, 110 L 385, 110 L 386, 110 L 387, 110 L 388, 110 L 389, 110 L 390, 110 L 391, 110 L 392, 110 L 393, 110 L 394, 110 L 395, 110 L 396, 110 L 397, 110 L 398, 110 L 399, 110 L 400, 110 L 401, 110 L 402, 110 L 403, 110 L 404, 110 L 405, 110 L 406, 110 L 407, 110 L 408, 110 L 409, 110 L 410, 110 L 411, 110 L 412, 110 L 413, 110 L 414, 110 L 415, 110 L 416, 110 L 417, 110 L 418, 110 L 419, 110 L 420, 110 L 421, 110 L 422, 110 L 423, 110 L 424, 110 L 425, 110 L 426, 110 L 427, 110 L 428, 110 L 429, 110 L 430, 110 L 431, 110 L 432, 110 L 433, 110 L 434, 110 L 435, 110 L 436, 110 L 437, 110 L 438, 110 L 439, 110 L 440, 110 L 441, 110 L 442, 110 L 443, 110 L 444, 110 L 445, 110 L 446, 110 L 447, 110 L 448, 111 L 449, 110 L 450, 110 L 451, 110 L 452, 110 L 453, 110 L 454, 110 L 455, 110 L 456, 110 L 457, 110 L 458, 110 L 459, 110 L 460, 110 L 461, 110 L 462, 110 L 463, 110 L 464, 110 L 465, 110 L 466, 110 L 467, 110 L 468, 110 L 469, 110 L 470, 110 L 471, 110 L 472, 110 L 473, 110 L 474, 110 L 475, 110 L 476, 110 L 477, 110 L 478, 110 L 479, 110 L 480, 110 L 481, 110 L 482, 110 L 483, 110 L 484, 110 L 485, 110 L 486, 110 L 487, 110 L 488, 110 L 489, 110 L 490, 110 L 491, 110 L 492, 110 L 493, 110 L 494, 110 L 495, 110 L 496, 110 L 497, 110 L 498, 110 L 499, 110 L 500, 110 L 501, 110 L 502, 110 L 503, 110 L 504, 110 L 505, 110 L 506, 110 L 507, 110 L 508, 110 L 509, 110 L 510, 110 L 511, 110 L 512, 110 L 513, 110 L 514, 110 L 515, 110 L 516, 110 L 517, 110 L 518, 110 L 519, 110 L 520, 110 L 521, 110 L 522, 110 L 523, 110 L 524, 110 L 525, 110 L 526, 110 L 527, 110 L 528, 110 L 529, 110 L 530, 110 L 531, 110 L 532, 110 L 533, 110 L 534, 110 L 535, 110 L 536, 110 L 537, 110 L 538, 110 L 539, 110 L 540, 110 L 541, 110 L 542, 110 L 543, 110 L 544, 110 L 545, 110 L 546, 110 L 547, 110 L 548, 110 L 549, 110 L 550, 110 L 551, 110 L 552, 110 L 553, 110 L 554, 110 L 555, 110 L 556, 110 L 557, 110 L 558, 110 L 559, 110 L 560, 110 L 561, 110 L 562, 110 L 563, 110 L 564, 110 L 565, 110 L 566, 110 L 567, 111 L 568, 110 L 569, 110 L 570, 110 L 571, 110 L 572, 110 L 573, 110 L 574, 111 L 575, 110 L 576, 110 L 577, 110 L 578, 110 L 579, 110 L 580, 110 L 581, 110 L 582, 110 L 583, 110 L 584, 110 L 585, 110 L 586, 110 L 587, 110 L 588, 110 L 589, 110 L 590, 110 L 591, 110 L 592, 110 L 593, 110 L 594, 110 L 595, 110 L 596, 110 L 597, 110 L 598, 110 L 599, 110 L 600, 110 L 601, 110 L 602, 110 L 603, 110 L 604, 110 L 605, 110 L 606, 110 L 607, 110 L 608, 110 L 609, 110 L 610, 110 L 611, 110 L 612, 110 L 613, 110 L 614, 110 L 615, 110 L 616, 110 L 617, 110 L 618, 110 L 619, 110 L 620, 110 L 621, 110 L 622, 110 L 623, 111 L 624, 110 L 625, 110 L 626, 110 L 627, 110 L 628, 110 L 629, 110 L 630, 110 L 631, 110 L 632, 110 L 633, 110 L 634, 110 L 635, 110 L 636, 110 L 637, 110 L 638, 110 L 639, 110 L 640, 110 L 641, 110 L 642, 110 L 643, 110 L 644, 110 L 645, 110 L 646, 110 L 647, 110 L 648, 110 L 649, 110 L 650, 110 L 651, 110 L 652, 110 L 653, 110 L 654, 110 L 655, 110 L 656, 110 L 657, 110 L 658, 110 L 659, 110 L 660, 110 L 661, 110 L 662, 110 L 663, 110 L 664, 110 L 665, 110 L 666, 110 L 667, 110 L 668, 110 L 669, 110 L 670, 110 L 671, 110 L 672, 110 L 673, 110 L 674, 110 L 675, 110 L 676, 110 L 677, 110 L 678, 110 L 679, 110 L 680, 110 L 681, 110 L 682, 110 L 683, 110 L 684, 111 L 685, 110 L 686, 110 L 687, 110 L 688, 110 L 689, 110 L 690, 110 L 691, 110 L 692, 110 L 693, 110 L 694, 110 L 695, 110 L 696, 110 L 697, 110 L 698, 110 L 699, 110 L 700, 110 L 701, 110 L 702, 110 L 703, 110 L 704, 110 L 705, 110 L 706, 110 L 707, 110 L 708, 110 L 709, 110 L 710, 110 L 711, 110 L 712, 110 L 713, 110 L 714, 110 L 715, 110 L 716, 110 L 717, 110 L 718, 110 L 719, 110 L 720, 110 L 721, 110 L 722, 110 L 723, 110 L 724, 110 L 725, 110 L 726, 110 L 727, 110 L 728, 110 L 729, 110 L 730, 110 L 731, 110 L 732, 110 L 733, 110 L 734, 110 L 735, 110 L 736, 110 L 737, 110 L 738, 110 L 739, 110 L 740, 110 L 741, 110 L 742, 110 L 743, 110 L 744, 110 L 745, 110 L 746, 110 L 747, 110 L 748, 110 L 749, 110 L 750, 110 L 751, 110 L 752, 110 L 753, 110 L 754, 110 L 755, 111 L 756, 110 L 757, 110 L 758, 110 L 759, 110 L 760, 110 L 761, 110 L 762, 110 L 763, 110 L 764, 110 L 765, 110 L 766, 110 L 767, 110 L 768, 110 L 769, 110 L 770, 110 L 771, 110 L 772, 110 L 773, 110 L 774, 110 L 775, 110 L 776, 110 L 777, 110 L 778, 110 L 779, 110 L 780, 110 L 781, 110 L 782, 110 L 783, 110 L 784, 110 L 785, 110 L 786, 110 L 787, 111 L 788, 110 L 789, 110 L 790, 110 L 791, 110 L 792, 110 L 793, 110 L 794, 110 L 795, 110 L 796, 110 L 797, 110 L 798, 110 L 799, 110 L 800, 110 L 801, 110 L 802, 110 L 803, 110 L 804, 110 L 805, 110 L 806, 110 L 807, 110 L 808, 110 L 809, 110 L 810, 110 L 811, 110 L 812, 110 L 813, 110 L 814, 110 L 815, 111 L 816, 110 L 817, 110 L 818, 110 L 819, 110 L 820, 111 L 821, 110 L 822, 110 L 823, 110 L 824, 110 L 825, 110 L 826, 110 L 827, 110 L 828, 110 L 829, 110 L 830, 110 L 831, 110 L 832, 110 L 833, 110 L 834, 110 L 835, 110 L 836, 110 L 837, 111 L 838, 111 L 839, 110 L 840, 110 L 841, 110 L 842, 110 L 843, 110 L 844, 110 L 845, 110 L 846, 110 L 847, 110 L 848, 110 L 849, 110 L 850, 110 L 851, 110 L 852, 110 L 853, 110 L 854, 110 L 855, 110 L 856, 110 L 857, 110 L 858, 110 L 859, 110 L 860, 110 L 861, 110 L 862, 110 L 863, 110 L 864, 110 L 865, 110 L 866, 110 L 867, 110 L 868, 110 L 869, 110 L 870, 110 L 871, 110 L 872, 110 L 873, 110 L 874, 110 L 875, 110 L 876, 110 L 877, 110 L 878, 110 L 879, 110 L 880, 110 L 881, 110 L 882, 110 L 883, 110 L 884, 110 L 885, 110 L 886, 110 L 887, 110 L 888, 110 L 889, 110 L 890, 110 L 891, 110 L 892, 110 L 893, 110 L 894, 110 L 895, 110 L 896, 110 L 897, 110 L 898, 110 L 899, 110 L 900, 110 L 901, 110 L 902, 110 L 903, 110 L 904, 110 L 905, 110 L 906, 110 L 907, 110 L 908, 110 L 909, 110 L 910, 110 L 911, 110 L 912, 110 L 913, 110 L 914, 110 L 915, 110 L 916, 110 L 917, 110 L 918, 110 L 919, 110 L 920, 110 L 921, 110 L 922, 110 L 923, 110 L 924, 110 L 925, 110 L 926, 110 L 927, 110 L 928, 110 L 929, 110 L 930, 110 L 931, 110 L 932, 110 L 933, 110 L 934, 110 L 935, 110 L 936, 110 L 937, 110 L 938, 110 L 939, 110 L 940, 110 L 941, 110 L 942, 110 L 943, 110 L 944, 110 L 945, 110 L 946, 110 L 947, 110 L 948, 110 L 949, 110 L 950, 110 L 951, 110 L 952, 110 L 953, 110 L 954, 110 L 955, 110 L 956, 110 L 957, 110 L 958, 110 L 959, 110 L 960, 110 L 961, 110 L 962, 110 L 963, 110 L 964, 110 L 965, 110 L 966, 110 L 967, 110 L 968, 110 L 969, 110 L 970, 110 L 971, 110 L 972, 110 L 973, 110 L 974, 110 L 975, 110 L 976, 110 L 977, 110 L 978, 110 L 979, 110 L 980, 110 L 981, 110 L 982, 110 L 983, 110 L 984, 110 L 985, 110 L 986, 110 L 987, 110 L 988, 110 L 989, 110 L 990, 110 L 991, 110 L 992, 110 L 993, 110 L 994, 110 L 995, 110 L 996, 110 L 997, 110 L 998, 110 L 999, 110 L1000, 110 L1001, 110 L1002, 110 L1003, 110 L1004, 110 L1005, 110 L1006, 110 L1007, 110 L1008, 110 L1009, 110 L1010, 110 L1011, 110 L1012, 110 L1013, 110 L1014, 110 L1015, 110 L1016, 110 L1017, 110 L1018, 110 L1019, 110 L1020, 110 L1021, 110 L1022, 110 L1023, 110 L1024, 110 L1025, 110 L1026, 110 L1027, 110 L1028, 110 L1029, 110 L1030, 110 L1031, 110 L1032, 110 L1033, 110 L1034, 110 L1035, 110 L1036, 110 L1037, 110 L1038, 110 L1039, 110 L1040, 110 L1041, 110 L1042, 110 L1043, 110 L1044, 110 L1045, 110 L1046, 110 L1047, 110 L1048, 110 L1049, 110 L1050, 110 L1051, 110 L1052, 110 L1053, 110 L1054, 110 L1055, 110 L1056, 110 L1057, 110 L1058, 110 L1059, 110 L1060, 110 L1061, 110 L1062, 110 L1063, 110 L1064, 110 L1065, 110 L1066, 110 L1067, 110 L1068, 110 L1069, 110 L1070, 110 L1071, 110 L1072, 110 L1073, 110 L1074, 110 L1075, 110 L1076, 110 L1077, 110 L1078, 110 L1079, 110 L1080, 110 L1081, 110 L1082, 110 L1083, 110 L1084, 110 L1085, 110 L1086, 110 L1087, 110 L1088, 110 L1089, 110 L1090, 110 L1091, 110 L1092, 110 L1093, 110 L1094, 110 L1095, 110 L1096, 110 L1097, 110 L1098, 110 L1099, 110 L1100, 110 L1101, 110 L1102, 110 L1103, 110 L1104, 110 L1105, 110 L1106, 110 L1107, 110 L1108, 110 L1109, 110 L1110, 110 L1111, 110 L1112, 110 L1113, 110 L1114, 110 L1115, 110 L1116, 110 L1117, 110 L1118, 110 L1119, 110 L1120, 110 L1121, 110 L1122, 110 L1123, 110 L1124, 110 L1125, 110 L1126, 110 L1127, 110 L1128, 110 L1129, 110 L1130, 110 L1131, 110 L1132, 110 L1133, 110 L1134, 110 L1135, 110 L1136, 110 L1137, 110 L1138, 110 L1139, 110 L1140, 110 L1141, 110 L1142, 110 L1143, 110 L1144, 110 L1145, 110 L1146, 110 L1147, 110 L1148, 110 L1149, 110 L1150, 110 L1151, 110 L1152, 110 L1153, 110 L1154, 110 L1155, 110 L1156, 110 L1157, 110 L1158, 110 L1159, 110 L1160, 110 L1161, 110 L1162, 110 L1163, 110 L1164, 110 L1165, 110 L1166, 110 L1167, 110 L1168, 110 L1169, 110 L1170, 110 L1171, 110 L1172, 110 L1173, 110 L1174, 110 L1175, 110 L1176, 110 L1177, 110 L1178, 110 L1179, 110 L1180, 110 L1181, 110 L1182, 110 L1183, 110 L1184, 110 L1185, 110 L1186, 110 L1187, 110 L1188, 110 L1189, 110 L1190, 110 L1191, 110 L1192, 110 L1193, 110 L1194, 110 L1195, 110 L1196, 110 L1197, 110 L1198, 110 L1199, 110 L1200, 110 L1201, 110 L1202, 110 L1203, 110 L1204, 110 L1205, 110 L1206, 110 L1207, 110 L1208, 110 L1209, 110 L1210, 110 L1211, 110 L1212, 110 L1213, 110 L1214, 110 L1215, 110 L1216, 110 L1217, 110 L1218, 111 L1219, 110 L1220, 110 L1221, 110 L1222, 110 L1223, 110 L1224, 110 L1225, 110 L1226, 110 L1227, 110 L1228, 110 L1229, 110 L1230, 110 L1231, 110 L1232, 110 L1233, 110 L1234, 110 L1235, 110 L1236, 110 L1237, 110 L1238, 110 L1239, 110 L1240, 110 L1241, 110 L1242, 110 L1243, 110 L1244, 110 L1245, 110 L1246, 110 L1247, 110 L1248, 110 L1249, 110 L1250, 110 L1251, 110 L1252, 110 L1253, 110 L1254, 111 L1255, 110 L1256, 110 L1257, 110 L1258, 110 L1259, 110 L1260, 110 L1261, 110 L1262, 110 L1263, 110 L1264, 110 L1265, 110 L1266, 110 L1267, 110 L1268, 110 L1269, 110 L1270, 110 L1271, 111 L1272, 110 L1273, 110 L1274, 110 L1275, 110 L1276, 110 L1277, 110 L1278, 110 L1279, 110 L1280, 110 L1281, 110 L1282, 110 L1283, 110 L1284, 110 L1285, 110 L1286, 110 L1287, 110 L1288, 110 L1289, 110 L1290, 110 L1291, 110 L1292, 110 L1293, 110 L1294, 110 L1295, 110 L1296, 110 L1297, 110 L1298, 110 L1299, 110 L1300, 110 L1301, 110 L1302, 110 L1303, 110 L1304, 110 L1305, 110 L1306, 110 L1307, 110 L1308, 110 L1309, 110 L1310, 110 L1311, 110 L1312, 110 L1313, 111 L1314, 110 L1315, 110 L1316, 110 L1317, 110 L1318, 110 L1319, 110 L1320, 110 L1321, 110 L1322, 110 L1323, 110 L1324, 110 L1325, 110 L1326, 110 L1327, 110 L1328, 110 L1329, 110 L1330, 110 L1331, 110 L1332, 110 L1333, 110 L1334, 110 L1335, 110 L1336, 110 L1337, 110 L1338, 110 L1339, 110 L1340, 110 L1341, 110 L1342, 110 L1343, 110 L1344, 110 L1345, 110 L1346, 110 L1347, 110 L1348, 110 L1349, 110 L1350, 110 L1351, 110 L1352, 110 L1353, 110 L1354, 110 L1355, 110 L1356, 110 L1357, 110 L1358, 110 L1359, 110 L1360, 110 L1361, 110 L1362, 110 L1363, 110 L1364, 110 L1365, 110 L1366, 110 L1367, 110 L1368, 110 L1369, 110 L1370, 110 L1371, 110 L1372, 110 L1373, 110 L1374, 110 L1375, 110 L1376, 110 L1377, 110 L1378, 110 L1379, 110 L1380, 110 L1381, 110 L1382, 110 L1383, 110 L1384, 110 L1385, 110 L1386, 110 L1387, 110 L1388, 110 L1389, 110 L1390, 110 L1391, 110 L1392, 110 L1393, 110 L1394, 110 L1395, 110 L1396, 110 L1397, 110 L1398, 110 L1399, 110 L1400, 110 L1401, 110 L1402, 110 L1403, 110 L1404, 110 L1405, 110 L1406, 110 L1407, 111 L1408, 110 L1409, 110 L1410, 110 L1411, 110 L1412, 110 L1413, 110 L1414, 110 L1415, 110 L1416, 110 L1417, 110 L1418, 110 L1419, 110 L1420, 110 L1421, 110 L1422, 110 L1423, 110 L1424, 110 L1425, 110 L1426, 110 L1427, 110 L1428, 110 L1429, 110 L1430, 110 L1431, 110 L1432, 110 L1433, 110 L1434, 110 L1435, 110 L1436, 110 L1437, 110 L1438, 110 L1439, 110 L1440, 110 L1441, 110 L1442, 110 L1443, 110 L1444, 110 L1445, 110 L1446, 110 L1447, 110 L1448, 110 L1449, 110 L1450, 110 L1451, 110 L1452, 110 L1453, 110 L1454, 110 L1455, 110 L1456, 110 L1457, 110 L1458, 110 L1459, 110 L1460, 110 L1461, 110 L1462, 110 L1463, 110 L1464, 110 L1465, 110 L1466, 110 L1467, 110 L1468, 110 L1469, 110 L1470, 110 L1471, 110 L1472, 110 L1473, 110 L1474, 110 L1475, 110 L1476, 110 L1477, 110 L1478, 110 L1479, 110 L1480, 110 L1481, 110 L1482, 110 L1483, 110 L1484, 110 L1485, 110 L1486, 110 L1487, 110 L1488, 110 L1489, 110 L1490, 110 L1491, 110 L1492, 110 L1493, 110 L1494, 110 L1495, 110 L1496, 110 L1497, 110 L1498, 110 L1499, 110 L1500, 110 L1501, 110 L1502, 110 L1503, 110 L1504, 110 L1505, 110 L1506, 110 L1507, 110 L1508, 110 L1509, 110 L1510, 110 L1511, 110 L1512, 110 L1513, 110 L1514, 110 L1515, 110 L1516, 110 L1517, 110 L1518, 110 L1519, 110 L1520, 110 L1521, 110 L1522, 110 L1523, 110 L1524, 110 L1525, 110 L1526, 110 L1527, 110 L1528, 110 L1529, 110 L1530, 110 L1531, 110 L1532, 110 L1533, 110 L1534, 110 L1535, 110 L1536, 110 L1537, 110 L1538, 110 L1539, 110 L1540, 110 L1541, 110 L1542, 110 L1543, 110 L1544, 110 L1545, 111 L1546, 110 L1547, 110 L1548, 110 L1549, 110 L1550, 110 L1551, 110 L1552, 110 L1553, 110 L1554, 110 L1555, 110 L1556, 110 L1557, 110 L1558, 110 L1559, 110 L1560, 110 L1561, 110 L1562, 110 L1563, 110 L1564, 110 L1565, 110 L1566, 110 L1567, 110 L1568, 110 L1569, 110 L1570, 110 L1571, 110 L1572, 110 L1573, 110 L1574, 110 L1575, 110 L1576, 110 L1577, 110 L1578, 110 L1579, 110 L1580, 110 L1581, 110 L1582, 110 L1583, 110 L1584, 110 L1585, 110 L1586, 110 L1587, 110 L1588, 110 L1589, 110 L1590, 110 L1591, 110 L1592, 110 L1593, 110 L1594, 110 L1595, 110 L1596, 110 L1597, 110 L1598, 110 L1599, 110 L1600, 110 L1601, 110 L1602, 110 L1603, 110 L1604, 110 L1605, 110 L1606, 110 L1607, 110 L1608, 110 L1609, 110 L1610, 110 L1611, 110 L1612, 110 L1613, 110 L1614, 110 L1615, 110 L1616, 110 L1617, 110 L1618, 110 L1619, 110 L1620, 110 L1621, 110 L1622, 110 L1623, 110 L1624, 110 L1625, 110 L1626, 110 L1627, 110 L1628, 110 L1629, 110 L1630, 110 L1631, 110 L1632, 110 L1633, 110 L1634, 111 L1635, 110 L1636, 110 L1637, 110 L1638, 110 L1639, 110 L1640, 110 L1641, 110 L1642, 110 L1643, 110 L1644, 110 L1645, 110 L1646, 110 L1647, 110 L1648, 110 L1649, 110 L1650, 110 L1651, 110 L1652, 110 L1653, 110 L1654, 110 L1655, 110 L1656, 110 L1657, 110 L1658, 110 L1659, 110 L1660, 110 L1661, 110 L1662, 110 L1663, 111 L1664, 110 L1665, 110 L1666, 110 L1667, 110 L1668, 110 L1669, 110 L1670, 110 L1671, 110 L1672, 110 L1673, 110 L1674, 110 L1675, 110 L1676, 110 L1677, 110 L1678, 110 L1679, 110 L1680, 110 L1681, 110 L1682, 110 L1683, 110 L1684, 110 L1685, 110 L1686, 110 L1687, 110 L1688, 110 L1689, 110 L1690, 110 L1691, 110 L1692, 110 L1693, 110 L1694, 110 L1695, 110 L1696, 110 L1697, 110 L1698, 110 L1699, 110 L1700, 110 L1701, 110 L1702, 110 L1703, 110 L1704, 110 L1705, 110 L1706, 110 L1707, 110 L1708, 110 L1709, 110 L1710, 110 L1711, 110 L1712, 110 L1713, 110 L1714, 110 L1715, 110 L1716, 110 L1717, 110 L1718, 110 L1719, 110 L1720, 110 L1721, 110 L1722, 110 L1723, 110 L1724, 110 L1725, 110 L1726, 110 L1727, 110 L1728, 110 L1729, 110 L1730, 110 L1731, 110 L1732, 110 L1733, 110 L1734, 110 L1735, 110 L1736, 110 L1737, 110 L1738, 110 L1739, 110 L1740, 110 L1741, 110 L1742, 110 L1743, 110 L1744, 110 L1745, 110 L1746, 110 L1747, 110 L1748, 110 L1749, 110 L1750, 110 L1751, 110 L1752, 110 L1753, 110 L1754, 110 L1755, 110 L1756, 110 L1757, 110 L1758, 110 L1759, 110 L1760, 110 L1761, 110 L1762, 110 L1763, 110 L1764, 110 L1765, 110 L1766, 110 L1767, 110 L1768, 110 L1769, 110 L1770, 110 L1771, 110 L1772, 110 L1773, 110 L1774, 111 L1775, 110 L1776, 110 L1777, 110 L1778, 110 L1779, 110 L1780, 110 L1781, 110 L1782, 110 L1783, 110 L1784, 110 L1785, 110 L1786, 110 L1787, 110 L1788, 110 L1789, 110 L1790, 110 L1791, 110 L1792, 110 L1793, 110 L1794, 110 L1795, 110 L1796, 110 L1797, 110 L1798, 110 L1799, 111 L1800, 110 L1801, 110 L1802, 110 L1803, 110 L1804, 110 L1805, 110 L1806, 110 L1807, 110 L1808, 110 L1809, 110 L1810, 110 L1811, 110 L1812, 110 L1813, 110 L1814, 110 L1815, 110 L1816, 110 L1817, 110 L1818, 110 L1819, 110 L1820, 110 L1821, 110 L1822, 110 L1823, 110 L1824, 110 L1825, 110 L1826, 110 L1827, 110 L1828, 110 L1829, 110 L1830, 110 L1831, 110 L1832, 110 L1833, 110 L1834, 110 L1835, 110 L1836, 110 L1837, 110 L1838, 110 L1839, 110 L1840, 110 L1841, 110 L1842, 110 L1843, 110 L1844, 110 L1845, 110 L1846, 110 L1847, 110 L1848, 110 L1849, 110 L1850, 110 L1851, 110 L1852, 110 L1853, 110 L1854, 110 L1855, 110 L1856, 110 L1857, 110 L1858, 110 L1859, 110 L1860, 110 L1861, 110 L1862, 110 L1863, 110 L1864, 110 L1865, 110 L1866, 110 L1867, 110 L1868, 110 L1869, 110 L1870, 110 L1871, 110 L1872, 110 L1873, 110 L1874, 110 L1875, 110 L1876, 110 L1877, 110 L1878, 110 L1879, 110 L1880, 110 L1881, 110 L1882, 110 L1883, 110 L1884, 110 L1885, 110 L1886, 110 L1887, 110 L1888, 110 L1889, 110 L1890, 110 L1891, 110 L1892, 110 L1893, 110 L1894, 110 L1895, 110 L1896, 110 L1897, 110 L1898, 110 L1899, 110 L1900, 110 L1901, 110 L1902, 110 L1903, 110 L1904, 110 L1905, 110 L1906, 110 L1907, 110 L1908, 110 L1909, 110 L1910, 110 L1911, 110 L1912, 110 L1913, 110 L1914, 110 L1915, 110 L1916, 110 L1917, 110 L1918, 110 L1919, 110 L1920, 110 L1921, 110 L1922, 110 L1923, 110 L1924, 110 L1925, 110 L1926, 110 L1927, 110 L1928, 110 L1929, 110 L1930, 110 L1931, 110 L1932, 110 L1933, 110 L1934, 110 L1935, 110 L1936, 110 L1937, 110 L1938, 110 L1939, 110 L1940, 110 L1941, 110 L1942, 110 L1943, 110 L1944, 110 L1945, 110 L1946, 110 L1947, 110 L1948, 110 L1949, 110 L1950, 110 L1951, 110 L1952, 110 L1953, 110 L1954, 110 L1955, 110 L1956, 111 L1957, 110 L1958, 110 L1959, 110 L1960, 110 L1961, 110 L1962, 110 L1963, 110 L1964, 110 L1965, 110 L1966, 110 L1967, 110 L1968, 110 L1969, 111 L1970, 110 L1971, 110 L1972, 110 L1973, 110 L1974, 110 L1975, 110 L1976, 110 L1977, 110 L1978, 110 L1979, 110 L1980, 110 L1981, 110 L1982, 110 L1983, 110 L1984, 110 L1985, 110 L1986, 110 L1987, 110 L1988, 110 L1989, 110 L1990, 110 L1991, 110 L1992, 110 L1993, 110 L1994, 110 L1995, 110 L1996, 110 L1997, 110 L1998, 110 L1999, 110 L2000, 110 L2001, 110 L2002, 110 L2003, 110 L2004, 110 L2005, 110 L2006, 110 L2007, 110 L2008, 110 L2009, 110 L2010, 110 L2011, 110 L2012, 110 L2013, 110 L2014, 110 L2015, 110 L2016, 110 L2017, 110 L2018, 110 L2019, 110 L2020, 110 L2021, 110 L2022, 110 L2023, 110 L2024, 110 L2025, 110 L2026, 110 L2027, 110 L2028, 110 L2029, 110 L2030, 110 L2031, 110 L2032, 111 L2033, 110 L2034, 110 L2035, 110 L2036, 110 L2037, 110 L2038, 110 L2039, 110 L2040, 110 L2041, 110 L2042, 110 L2043, 110 L2044, 110 L2045, 110 L2046, 110 L2047, 110 L2048, 110 L2049, 110 L2050, 110 L2051, 110 L2052, 110 L2053, 110 L2054, 110 L2055, 110 L2056, 110 L2057, 110 L2058, 110 L2059, 110 L2060, 110 L2061, 110 L2062, 110 L2063, 110 L2064, 110 L2065, 110 L2066, 110 L2067, 110 L2068, 110 L2069, 110 L2070, 110 L2071, 110 L2072, 110 L2073, 110 L2074, 110 L2075, 110 L2076, 110 L2077, 110 L2078, 110 L2079, 110 L2080, 110 L2081, 110 L2082, 110 L2083, 110 L2084, 110 L2085, 110 L2086, 110 L2087, 110 L2088, 110 L2089, 110 L2090, 110 L2091, 110 L2092, 110 L2093, 110 L2094, 110 L2095, 110 L2096, 110 L2097, 110 L2098, 110 L2099, 110 L2100, 110 L2101, 110 L2102, 110 L2103, 110 L2104, 110 L2105, 110 L2106, 110 L2107, 110 L2108, 110 L2109, 110 L2110, 110 L2111, 110 L2112, 110 L2113, 110 L2114, 110 L2115, 110 L2116, 111 L2117, 110 L2118, 110 L2119, 110 L2120, 110 L2121, 110 L2122, 110 L2123, 110 L2124, 110 L2125, 110 L2126, 110 L2127, 110 L2128, 110 L2129, 110 L2130, 110 L2131, 110 L2132, 110 L2133, 110 L2134, 110 L2135, 110 L2136, 110 L2137, 110 L2138, 110 L2139, 110 L2140, 110 L2141, 110 L2142, 110 L2143, 110 L2144, 110 L2145, 110 L2146, 110 L2147, 110 L2148, 110 L2149, 110 L2150, 110 L2151, 110 L2152, 110 L2153, 110 L2154, 110 L2155, 110 L2156, 110 L2157, 110 L2158, 110 L2159, 110 L2160, 110 L2161, 110 L2162, 110 L2163, 110 L2164, 110 L2165, 110 L2166, 110 L2167, 110 L2168, 110 L2169, 110 L2170, 110 L2171, 110 L2172, 110 L2173, 110 L2174, 110 L2175, 110 L2176, 110 L2177, 110 L2178, 110 L2179, 110 L2180, 110 L2181, 110 L2182, 110 L2183, 110 L2184, 110 L2185, 110 L2186, 110 L2187, 110 L2188, 110 L2189, 110 L2190, 110 L2191, 111 L2192, 110 L2193, 110 L2194, 110 L2195, 110 L2196, 110 L2197, 110 L2198, 110 L2199, 110 L2200, 110 L2201, 110 L2202, 110 L2203, 110 L2204, 110 L2205, 110 L2206, 110 L2207, 110 L2208, 110 L2209, 110 L2210, 110 L2211, 110 L2212, 110 L2213, 110 L2214, 110 L2215, 110 L2216, 110 L2217, 110 L2218, 110 L2219, 110 L2220, 110 L2221, 110 L2222, 110 L2223, 110 L2224, 110 L2225, 110 L2226, 110 L2227, 110 L2228, 110 L2229, 110 L2230, 110 L2231, 110 L2232, 110 L2233, 110 L2234, 110 L2235, 110 L2236, 111 L2237, 110 L2238, 110 L2239, 110 L2240, 110 L2241, 110 L2242, 110 L2243, 110 L2244, 110 L2245, 110 L2246, 110 L2247, 110 L2248, 110 L2249, 110 L2250, 110 L2251, 110 L2252, 110 L2253, 110 L2254, 110 L2255, 110 L2256, 110 L2257, 110 L2258, 110 L2259, 110 L2260, 110 L2261, 110 L2262, 110 L2263, 110 L2264, 110 L2265, 110 L2266, 110 L2267, 110 L2268, 110 L2269, 110 L2270, 110 L2271, 110 L2272, 110 L2273, 110 L2274, 110 L2275, 110 L2276, 110 L2277, 110 L2278, 110 L2279, 110 L2280, 110 L2281, 110 L2282, 110 L2283, 110 L2284, 110 L2285, 110 L2286, 110 L2287, 110 L2288, 110 L2289, 110 L2290, 110 L2291, 110 L2292, 110 L2293, 110 L2294, 110 L2295, 110 L2296, 110 L2297, 110 L2298, 110 L2299, 110 L2300, 110 L2301, 110 L2302, 110 L2303, 110 L2304, 110 L2305, 110 L2306, 110 L2307, 110 L2308, 110 L2309, 110 L2310, 110 L2311, 110 L2312, 110 L2313, 110 L2314, 110 L2315, 110 L2316, 110 L2317, 110 L2318, 110 L2319, 110 L2320, 110 L2321, 110 L2322, 111 L2323, 110 L2324, 110 L2325, 110 L2326, 110 L2327, 110 L2328, 110 L2329, 110 L2330, 110 L2331, 110 L2332, 110 L2333, 110 L2334, 110 L2335, 110 L2336, 110 L2337, 110 L2338, 110 L2339, 110 L2340, 110 L2341, 110 L2342, 110 L2343, 110 L2344, 110 L2345, 110 L2346, 110 L2347, 110 L2348, 110 L2349, 110 L2350, 110 L2351, 110 L2352, 110 L2353, 110 L2354, 110 L2355, 110 L2356, 110 L2357, 110 L2358, 110 L2359, 110 L2360, 110 L2361, 110 L2362, 110 L2363, 110 L2364, 110 L2365, 110 L2366, 110 L2367, 110 L2368, 110 L2369, 110 L2370, 110 L2371, 110 L2372, 110 L2373, 110 L2374, 110 L2375, 110 L2376, 110 L2377, 110 L2378, 110 L2379, 110 L2380, 110 L2381, 110 L2382, 110 L2383, 110 L2384, 110 L2385, 110 L2386, 110 L2387, 110 L2388, 110 L2389, 110 L2390, 110 L2391, 110 L2392, 110 L2393, 110 L2394, 110 L2395, 110 L2396, 110 L2397, 110 L2398, 110 L2399, 110 L2400, 110 L2401, 110 L2402, 110 L2403, 110 L2404, 111 L2405, 110 L2406, 110 L2407, 110 L2408, 110 L2409, 110 L2410, 110 L2411, 110 L2412, 110 L2413, 110 L2414, 110 L2415, 110 L2416, 110 L2417, 110 L2418, 110 L2419, 110 L2420, 110 L2421, 110 L2422, 110 L2423, 110 L2424, 110 L2425, 110 L2426, 110 L2427, 110 L2428, 110 L2429, 110 L2430, 110 L2431, 110 L2432, 110 L2433, 111 L2434, 110 L2435, 110 L2436, 110 L2437, 110 L2438, 110 L2439, 110 L2440, 110 L2441, 110 L2442, 110 L2443, 110 L2444, 110 L2445, 110 L2446, 110 L2447, 110 L2448, 110 L2449, 110 L2450, 110 L2451, 110 L2452, 110 L2453, 110 L2454, 110 L2455, 110 L2456, 110 L2457, 110 L2458, 110 L2459, 110 L2460, 110 L2461, 110 L2462, 110 L2463, 110 L2464, 110 L2465, 110 L2466, 110 L2467, 110 L2468, 110 L2469, 110 L2470, 110 L2471, 110 L2472, 110 L2473, 110 L2474, 110 L2475, 110 L2476, 110 L2477, 110 L2478, 110 L2479, 110 L2480, 110 L2481, 110 L2482, 110 L2483, 110 L2484, 110 L2485, 110 L2486, 110 L2487, 110 L2488, 110 L2489, 110 L2490, 110 L2491, 110 L2492, 110 L2493, 110 L2494, 110 L2495, 110 L2496, 110 L2497, 110 L2498, 110 L2499, 110 L2500, 110 L2501, 110 L2502, 110 L2503, 110 L2504, 110 L2505, 110 L2506, 110 L2507, 110 L2508, 110 L2509, 110 L2510, 110 L2511, 110 L2512, 110 L2513, 110 L2514, 110 L2515, 110 L2516, 110 L2517, 110 L2518, 110 L2519, 110 L2520, 110 L2521, 110 L2522, 110 L2523, 110 L2524, 110 L2525, 110 L2526, 110 L2527, 110 L2528, 110 L2529, 110 L2530, 110 L2531, 110 L2532, 110 L2533, 110 L2534, 110 L2535, 110 L2536, 110 L2537, 110 L2538, 110 L2539, 110 L2540, 110 L2541, 110 L2542, 110 L2543, 110 L2544, 110 L2545, 110 L2546, 110 L2547, 110 L2548, 110 L2549, 110 L2550, 110 L2551, 110 L2552, 110 L2553, 110 L2554, 110 L2555, 110 L2556, 110 L2557, 110 L2558, 110 L2559, 110 L2560, 110 L2561, 110 L2562, 110 L2563, 110 L2564, 110 L2565, 110 L2566, 110 L2567, 110 L2568, 110 L2569, 110 L2570, 110 L2571, 110 L2572, 110 L2573, 110 L2574, 110 L2575, 110 L2576, 110 L2577, 110 L2578, 110 L2579, 110 L2580, 110 L2581, 110 L2582, 110 L2583, 110 L2584, 110 L2585, 110 L2586, 110 L2587, 110 L2588, 110 L2589, 110 L2590, 110 L2591, 110 L2592, 110 L2593, 110 L2594, 110 L2595, 110 L2596, 110 L2597, 110 L2598, 110 L2599, 110 L2600, 110 L2601, 110 L2602, 110 L2603, 110 L2604, 110 L2605, 110 L2606, 110 L2607, 110 L2608, 110 L2609, 110 L2610, 110 L2611, 110 L2612, 110 L2613, 110 L2614, 110 L2615, 110 L2616, 110 L2617, 110 L2618, 110 L2619, 110 L2620, 110 L2621, 110 L2622, 110 L2623, 110 L2624, 110 L2625, 110 L2626, 110 L2627, 110 L2628, 110 L2629, 110 L2630, 110 L2631, 110 L2632, 110 L2633, 110 L2634, 110 L2635, 110 L2636, 110 L2637, 110 L2638, 110 L2639, 110 L2640, 110 L2641, 110 L2642, 110 L2643, 110 L2644, 110 L2645, 110 L2646, 110 L2647, 110 L2648, 110 L2649, 110 L2650, 110 L2651, 110 L2652, 110 L2653, 110 L2654, 110 L2655, 110 L2656, 110 L2657, 110 L2658, 110 L2659, 110 L2660, 110 L2661, 110 L2662, 110 L2663, 110 L2664, 110 L2665, 110 L2666, 110 L2667, 110 L2668, 110 L2669, 110 L2670, 110 L2671, 110 L2672, 110 L2673, 110 L2674, 110 L2675, 110 L2676, 110 L2677, 110 L2678, 110 L2679, 110 L2680, 110 L2681, 110 L2682, 110 L2683, 110 L2684, 110 L2685, 110 L2686, 110 L2687, 110 L2688, 110 L2689, 110 L2690, 110 L2691, 110 L2692, 110 L2693, 110 L2694, 110 L2695, 110 L2696, 110 L2697, 110 L2698, 110 L2699, 110 L2700, 110 L2701, 110 L2702, 110 L2703, 110 L2704, 110 L2705, 110 L2706, 110 L2707, 110 L2708, 110 L2709, 110 L2710, 110 L2711, 110 L2712, 110 L2713, 110 L2714, 110 L2715, 110 L2716, 110 L2717, 110 L2718, 110 L2719, 110 L2720, 110 L2721, 110 L2722, 110 L2723, 110 L2724, 110 L2725, 110 L2726, 110 L2727, 110 L2728, 110 L2729, 110 L2730, 110 L2731, 110 L2732, 110 L2733, 110 L2734, 110 L2735, 110 L2736, 110 L2737, 110 L2738, 110 L2739, 110 L2740, 110 L2741, 110 L2742, 110 L2743, 110 L2744, 110 L2745, 110 L2746, 110 L2747, 110 L2748, 110 L2749, 110 L2750, 110 L2751, 110 L2752, 110 L2753, 110 L2754, 110 L2755, 110 L2756, 110 L2757, 110 L2758, 110 L2759, 110 L2760, 110 L2761, 110 L2762, 110 L2763, 110 L2764, 110 L2765, 110 L2766, 110 L2767, 110 L2768, 110 L2769, 110 L2770, 110 L2771, 110 L2772, 110 L2773, 110 L2774, 110 L2775, 110 L2776, 110 L2777, 110 L2778, 110 L2779, 110 L2780, 110 L2781, 110 L2782, 110 L2783, 110 L2784, 110 L2785, 110 L2786, 110 L2787, 110 L2788, 110 L2789, 110 L2790, 110 L2791, 110 L2792, 110 L2793, 110 L2794, 110 L2795, 110 L2796, 110 L2797, 110 L2798, 110 L2799, 110 L2800, 110 L2801, 110 L2802, 110 L2803, 110 L2804, 110 L2805, 110 L2806, 110 L2807, 110 L2808, 110 L2809, 110 L2810, 110 L2811, 110 L2812, 110 L2813, 110 L2814, 110 L2815, 110 L2816, 110 L2817, 110 L2818, 110 L2819, 110 L2820, 110 L2821, 110 L2822, 110 L2823, 110 L2824, 110 L2825, 110 L2826, 110 L2827, 110 L2828, 110 L2829, 110 L2830, 110 L2831, 110 L2832, 110 L2833, 110 L2834, 110 L2835, 110 L2836, 110 L2837, 110 L2838, 110 L2839, 110 L2840, 110 L2841, 110 L2842, 110 L2843, 110 L2844, 110 L2845, 110 L2846, 110 L2847, 110 L2848, 110 L2849, 110 L2850, 110 L2851, 110 L2852, 110 L2853, 110 L2854, 110 L2855, 110 L2856, 110 L2857, 110 L2858, 110 L2859, 110 L2860, 110 L2861, 110 L2862, 110 L2863, 110 L2864, 110 L2865, 110 L2866, 110 L2867, 110 L2868, 110 L2869, 110 L2870, 110 L2871, 110 L2872, 110 L2873, 110 L2874, 110 L2875, 110 L2876, 110 L2877, 110 L2878, 110 L2879, 110 L2880, 110 L2881, 110 L2882, 110 L2883, 110 L2884, 110 L2885, 110 L2886, 110 L2887, 110 L2888, 110 L2889, 110 L2890, 110 L2891, 110 L2892, 110 L2893, 110 L2894, 110 L2895, 110 L2896, 110 L2897, 110 L2898, 110 L2899, 110 L2900, 110 L2901, 110 L2902, 110 L2903, 110 L2904, 110 L2905, 110 L2906, 110 L2907, 110 L2908, 110 L2909, 110 L2910, 110 L2911, 110 L2912, 110 L2913, 110 L2914, 110 L2915, 110 L2916, 110 L2917, 110 L2918, 110 L2919, 110 L2920, 110 L2921, 110 L2922, 110 L2923, 110 L2924, 110 L2925, 110 L2926, 110 L2927, 110 L2928, 110 L2929, 110 L2930, 110 L2931, 110 L2932, 110 L2933, 110 L2934, 110 L2935, 110 L2936, 110 L2937, 110 L2938, 110 L2939, 110 L2940, 110 L2941, 110 L2942, 110 L2943, 111 L2944, 110 L2945, 110 L2946, 110 L2947, 110 L2948, 110 L2949, 110 L2950, 110 L2951, 110 L2952, 110 L2953, 110 L2954, 110 L2955, 110 L2956, 110 L2957, 110 L2958, 110 L2959, 110 L2960, 110 L2961, 110 L2962, 110 L2963, 110 L2964, 110 L2965, 110 L2966, 110 L2967, 110 L2968, 110 L2969, 110 L2970, 110 L2971, 110 L2972, 110 L2973, 110 L2974, 110 L2975, 110 L2976, 110 L2977, 110 L2978, 110 L2979, 110 L2980, 110 L2981, 110 L2982, 110 L2983, 110 L2984, 110 L2985, 110 L2986, 110 L2987, 110 L2988, 110 L2989, 110 L2990, 110 L2991, 110 L2992, 110 L2993, 110 L2994, 110 L2995, 110 L2996, 110 L2997, 110 L2998, 110 L2999, 110 L3000, 110 L3001, 110 L3002, 110 L3003, 110 L3004, 110 L3005, 110 L3006, 110 L3007, 110 L3008, 110 L3009, 110 L3010, 110 L3011, 110 L3012, 110 L3013, 110 L3014, 110 L3015, 110 L3016, 110 L3017, 110 L3018, 110 L3019, 110 L3020, 110 L3021, 110 L3022, 110 L3023, 110 L3024, 110 L3025, 110 L3026, 110 L3027, 110 L3028, 110 L3029, 110 L3030, 110 L3031, 110 L3032, 110 L3033, 110 L3034, 110 L3035, 110 L3036, 110 L3037, 110 L3038, 111 L3039, 110 L3040, 110 L3041, 110 L3042, 110 L3043, 110 L3044, 110 L3045, 110 L3046, 110 L3047, 110 L3048, 110 L3049, 110 L3050, 110 L3051, 110 L3052, 110 L3053, 110 L3054, 110 L3055, 110 L3056, 110 L3057, 110 L3058, 110 L3059, 110 L3060, 110 L3061, 110 L3062, 110 L3063, 110 L3064, 110 L3065, 110 L3066, 110 L3067, 110 L3068, 110 L3069, 110 L3070, 110 L3071, 110 L3072, 110 L3073, 110 L3074, 110 L3075, 110 L3076, 110 L3077, 110 L3078, 110 L3079, 110 L3080, 110 L3081, 110 L3082, 110 L3083, 110 L3084, 110 L3085, 110 L3086, 110 L3087, 110 L3088, 110 L3089, 110 L3090, 110 L3091, 110 L3092, 110 L3093, 110 L3094, 110 L3095, 110 L3096, 110 L3097, 110 L3098, 110 L3099, 110 L3100, 110 L3101, 110 L3102, 110 L3103, 110 L3104, 110 L3105, 110 L3106, 110 L3107, 110 L3108, 110 L3109, 110 L3110, 110 L3111, 110 L3112, 110 L3113, 110 L3114, 110 L3115, 110 L3116, 110 L3117, 110 L3118, 110 L3119, 110 L3120, 110 L3121, 110 L3122, 110 L3123, 110 L3124, 110 L3125, 110 L3126, 110 L3127, 110 L3128, 110 L3129, 110 L3130, 110 L3131, 110 L3132, 110 L3133, 110 L3134, 110 L3135, 110 L3136, 110 L3137, 110 L3138, 110 L3139, 110 L3140, 110 L3141, 110 L3142, 110 L3143, 110 L3144, 111 L3145, 110 L3146, 110 L3147, 110 L3148, 110 L3149, 110 L3150, 110 L3151, 110 L3152, 110 L3153, 110 L3154, 110 L3155, 110 L3156, 110 L3157, 110 L3158, 110 L3159, 110 L3160, 110 L3161, 110 L3162, 110 L3163, 110 L3164, 110 L3165, 110 L3166, 110 L3167, 110 L3168, 110 L3169, 110 L3170, 110 L3171, 110 L3172, 110 L3173, 110 L3174, 110 L3175, 110 L3176, 110 L3177, 110 L3178, 110 L3179, 110 L3180, 110 L3181, 110 L3182, 110 L3183, 110 L3184, 110 L3185, 110 L3186, 110 L3187, 110 L3188, 110 L3189, 110 L3190, 110 L3191, 110 L3192, 110 L3193, 110 L3194, 110 L3195, 110 L3196, 110 L3197, 110 L3198, 110 L3199, 110 L3200, 110 L3201, 110 L3202, 110 L3203, 110 L3204, 110 L3205, 110 L3206, 110 L3207, 110 L3208, 110 L3209, 110 L3210, 110 L3211, 110 L3212, 110 L3213, 110 L3214, 110 L3215, 110 L3216, 110 L3217, 110 L3218, 110 L3219, 110 L3220, 110 L3221, 110 L3222, 110 L3223, 110 L3224, 110 L3225, 110 L3226, 110 L3227, 110 L3228, 110 L3229, 110 L3230, 110 L3231, 110 L3232, 110 L3233, 110 L3234, 110 L3235, 110 L3236, 110 L3237, 110 L3238, 110 L3239, 110 L3240, 110 L3241, 110 L3242, 110 L3243, 110 L3244, 110 L3245, 110 L3246, 110 L3247, 110 L3248, 110 L3249, 110 L3250, 110 L3251, 110 L3252, 110 L3253, 110 L3254, 110 L3255, 110 L3256, 110 L3257, 110 L3258, 110 L3259, 110 L3260, 110 L3261, 110 L3262, 110 L3263, 110 L3264, 110 L3265, 110 L3266, 110 L3267, 110 L3268, 110 L3269, 110 L3270, 110 L3271, 110 L3272, 110 L3273, 110 L3274, 110 L3275, 110 L3276, 110 L3277, 110 L3278, 110 L3279, 110 L3280, 110 L3281, 110 L3282, 110 L3283, 110 L3284, 110 L3285, 110 L3286, 110 L3287, 110 L3288, 110 L3289, 110 L3290, 110 L3291, 110 L3292, 110 L3293, 110 L3294, 110 L3295, 110 L3296, 110 L3297, 110 L3298, 110 L3299, 110 L3300, 110 L3301, 110 L3302, 110 L3303, 110 L3304, 110 L3305, 110 L3306, 110 L3307, 110 L3308, 110 L3309, 110 L3310, 110 L3311, 110 L3312, 110 L3313, 110 L3314, 110 L3315, 110 L3316, 110 L3317, 110 L3318, 110 L3319, 110 L3320, 110 L3321, 110 L3322, 110 L3323, 110 L3324, 110 L3325, 110 L3326, 110 L3327, 110 L3328, 110 L3329, 110 L3330, 110 L3331, 110 L3332, 110 L3333, 110 L3334, 110 L3335, 110 L3336, 110 L3337, 110 L3338, 110 L3339, 110 L3340, 110 L3341, 110 L3342, 110 L3343, 110 L3344, 110 L3345, 110 L3346, 110 L3347, 110 L3348, 110 L3349, 110 L3350, 110 L3351, 110 L3352, 110 L3353, 110 L3354, 110 L3355, 110 L3356, 110 L3357, 110 L3358, 110 L3359, 110 L3360, 110 L3361, 110 L3362, 110 L3363, 110 L3364, 110 L3365, 110 L3366, 110 L3367, 110 L3368, 110 L3369, 110 L3370, 110 L3371, 110 L3372, 110 L3373, 110 L3374, 110 L3375, 110 L3376, 110 L3377, 110 L3378, 110 L3379, 110 L3380, 110 L3381, 110 L3382, 110 L3383, 110 L3384, 110 L3385, 110 L3386, 110 L3387, 110 L3388, 110 L3389, 110 L3390, 110 L3391, 110 L3392, 110 L3393, 110 L3394, 110 L3395, 110 L3396, 110 L3397, 110 L3398, 110 L3399, 110 L3400, 110 L3401, 110 L3402, 110 L3403, 110 L3404, 110 L3405, 110 L3406, 110 L3407, 110 L3408, 110 L3409, 110 L3410, 110 L3411, 110 L3412, 110 L3413, 110 L3414, 110 L3415, 110 L3416, 110 L3417, 110 L3418, 110 L3419, 110 L3420, 110 L3421, 110 L3422, 110 L3423, 110 L3424, 110 L3425, 110 L3426, 110 L3427, 110 L3428, 110 L3429, 110 L3430, 110 L3431, 110 L3432, 110 L3433, 110 L3434, 110 L3435, 110 L3436, 110 L3437, 110 L3438, 110 L3439, 110 L3440, 110 L3441, 110 L3442, 110 L3443, 110 L3444, 110 L3445, 110 L3446, 110 L3447, 110 L3448, 110 L3449, 110 L3450, 110 L3451, 110 L3452, 110 L3453, 110 L3454, 110 L3455, 110 L3456, 110 L3457, 110 L3458, 110 L3459, 110 L3460, 110 L3461, 110 L3462, 110 L3463, 110 L3464, 110 L3465, 110 L3466, 110 L3467, 110 L3468, 110 L3469, 110 L3470, 110 L3471, 110 L3472, 110 L3473, 110 L3474, 110 L3475, 110 L3476, 110 L3477, 110 L3478, 110 L3479, 110 L3480, 110 L3481, 110 L3482, 110 L3483, 110 L3484, 110 L3485, 110 L3486, 110 L3487, 110 L3488, 110 L3489, 110 L3490, 110 L3491, 110 L3492, 110 L3493, 110 L3494, 110 L3495, 110 L3496, 110 L3497, 110 L3498, 110 L3499, 110 L3500, 110 L3501, 110 L3502, 110 L3503, 110 L3504, 110 L3505, 110 L3506, 110 L3507, 110 L3508, 110 L3509, 110 L3510, 110 L3511, 110 L3512, 110 L3513, 110 L3514, 110 L3515, 110 L3516, 110 L3517, 110 L3518, 110 L3519, 110 L3520, 110 L3521, 110 L3522, 110 L3523, 110 L3524, 110 L3525, 110 L3526, 110 L3527, 110 L3528, 110 L3529, 110 L3530, 110 L3531, 110 L3532, 110 L3533, 110 L3534, 110 L3535, 110 L3536, 110 L3537, 110 L3538, 110 L3539, 110 L3540, 110 L3541, 110 L3542, 110 L3543, 110 L3544, 110 L3545, 110 L3546, 110 L3547, 110 L3548, 110 L3549, 110 L3550, 110 L3551, 110 L3552, 110 L3553, 110 L3554, 110 L3555, 110 L3556, 110 L3557, 110 L3558, 110 L3559, 110 L3560, 110 L3561, 110 L3562, 110 L3563, 110 L3564, 110 L3565, 110 L3566, 110 L3567, 110 L3568, 110 L3569, 110 L3570, 110 L3571, 110 L3572, 110 L3573, 110 L3574, 110 L3575, 110 L3576, 110 L3577, 110 L3578, 110 L3579, 110 L3580, 110 L3581, 110 L3582, 110 L3583, 110 L3584, 110 L3585, 110 L3586, 110 L3587, 110 L3588, 110 L3589, 110 L3590, 110 L3591, 110 L3592, 110 L3593, 110 L3594, 110 L3595, 110 L3596, 110 L3597, 110 L3598, 110 L3599, 110 L3600, 110 L3601, 110 L3602, 110 L3603, 110 L3604, 110 L3605, 110 L3606, 110 L3607, 110 L3608, 110 L3609, 110 L3610, 110 L3611, 110 L3612, 110 L3613, 110 L3614, 110 L3615, 110 L3616, 110 L3617, 110 L3618, 110 L3619, 110 L3620, 110 L3621, 110 L3622, 110 L3623, 110 L3624, 110 L3625, 110 L3626, 110 L3627, 110 L3628, 110 L3629, 110 L3630, 110 L3631, 110 L3632, 110 L3633, 110 L3634, 110 L3635, 110 L3636, 110 L3637, 110 L3638, 110 L3639, 110 L3640, 110 L3641, 110 L3642, 110 L3643, 110 L3644, 110 L3645, 110 L3646, 110 L3647, 110 L3648, 110 L3649, 110 L3650, 110 L3651, 110 L3652, 110 L3653, 110 L3654, 110 L3655, 110 L3656, 110 L3657, 110 L3658, 110 L3659, 110 L3660, 110 L3661, 110 L3662, 110 L3663, 110 L3664, 110 L3665, 110 L3666, 110 L3667, 110 L3668, 110 L3669, 110 L3670, 110 L3671, 110 L3672, 110 L3673, 110 L3674, 110 L3675, 110 L3676, 110 L3677, 110 L3678, 110 L3679, 110 L3680, 110 L3681, 110 L3682, 110 L3683, 110 L3684, 110 L3685, 110 L3686, 110 L3687, 110 L3688, 110 L3689, 110 L3690, 110 L3691, 110 L3692, 110 L3693, 110 L3694, 110 L3695, 110 L3696, 110 L3697, 110 L3698, 110 L3699, 110 L3700, 110 L3701, 110 L3702, 110 L3703, 110 L3704, 110 L3705, 110 L3706, 110 L3707, 110 L3708, 110 L3709, 110 L3710, 110 L3711, 110 L3712, 110 L3713, 110 L3714, 110 L3715, 110 L3716, 110 L3717, 110 L3718, 110 L3719, 110 L3720, 110 L3721, 110 L3722, 110 L3723, 110 L3724, 110 L3725, 110 L3726, 110 L3727, 110 L3728, 110 L3729, 110 L3730, 110 L3731, 110 L3732, 110 L3733, 110 L3734, 110 L3735, 110 L3736, 110 L3737, 110 L3738, 110 L3739, 110 L3740, 110 L3741, 110 L3742, 110 L3743, 110 L3744, 110 L3745, 110 L3746, 110 L3747, 110 L3748, 110 L3749, 110 L3750, 110 L3751, 110 L3752, 110 L3753, 110 L3754, 110 L3755, 110 L3756, 110 L3757, 110 L3758, 110 L3759, 110 L3760, 110 L3761, 110 L3762, 110 L3763, 110 L3764, 110 L3765, 110 L3766, 110 L3767, 110 L3768, 110 L3769, 110 L3770, 110 L3771, 110 L3772, 110 L3773, 110 L3774, 110 L3775, 110 L3776, 110 L3777, 110 L3778, 110 L3779, 110 L3780, 110 L3781, 110 L3782, 110 L3783, 110 L3784, 110 L3785, 110 L3786, 110 L3787, 110 L3788, 110 L3789, 110 L3790, 110 L3791, 110 L3792, 110 L3793, 110 L3794, 110 L3795, 110 L3796, 110 L3797, 110 L3798, 110 L3799, 110 L3800, 110 L3801, 110 L3802, 110 L3803, 110 L3804, 110 L3805, 110 L3806, 110 L3807, 110 L3808, 110 L3809, 110 L3810, 110 L3811, 110 L3812, 110 L3813, 110 L3814, 110 L3815, 110 L3816, 110 L3817, 110 L3818, 110 L3819, 110 L3820, 110 L3821, 110 L3822, 110 L3823, 110 L3824, 110 L3825, 110 L3826, 110 L3827, 110 L3828, 110 L3829, 110 L3830, 110 L3831, 110 L3832, 110 L3833, 110 L3834, 110 L3835, 110 L3836, 110 L3837, 110 L3838, 110 L3839, 110 L3840, 110 L3841, 110 L3842, 110 L3843, 110 L3844, 110 L3845, 110 L3846, 110 L3847, 110 L3848, 110 L3849, 110 L3850, 110 L3851, 110 L3852, 110 L3853, 110 L3854, 110 L3855, 110 L3856, 110 L3857, 110 L3858, 110 L3859, 110 L3860, 110 L3861, 110 L3862, 110 L3863, 110 L3864, 110 L3865, 110 L3866, 110 L3867, 110 L3868, 110 L3869, 110 L3870, 110 L3871, 110 L3872, 110 L3873, 110 L3874, 110 L3875, 110 L3876, 110 L3877, 110 L3878, 110 L3879, 110 L3880, 110 L3881, 110 L3882, 110 L3883, 110 L3884, 110 L3885, 110 L3886, 110 L3887, 110 L3888, 110 L3889, 110 L3890, 110 L3891, 110 L3892, 110 L3893, 110 L3894, 110 L3895, 110 L3896, 110 L3897, 110 L3898, 110 L3899, 110 L3900, 110 L3901, 110 L3902, 110 L3903, 110 L3904, 110 L3905, 110 L3906, 110 L3907, 110 L3908, 110 L3909, 110 L3910, 110 L3911, 110 L3912, 110 L3913, 110 L3914, 110 L3915, 110 L3916, 110 L3917, 110 L3918, 110 L3919, 110 L3920, 110 L3921, 110 L3922, 110 L3923, 110 L3924, 110 L3925, 110 L3926, 110 L3927, 110 L3928, 110 L3929, 110 L3930, 110 L3931, 110 L3932, 110 L3933, 110 L3934, 110 L3935, 110 L3936, 110 L3937, 110 L3938, 110 L3939, 110 L3940, 110 L3941, 110 L3942, 110 L3943, 110 L3944, 110 L3945, 110 L3946, 110 L3947, 110 L3948, 110 L3949, 110 L3950, 110 L3951, 110 L3952, 110 L3953, 110 L3954, 110 L3955, 110 L3956, 110 L3957, 110 L3958, 110 L3959, 110 L3960, 110 L3961, 110 L3962, 110 L3963, 110 L3964, 110 L3965, 110 L3966, 110 L3967, 110 L3968, 110 L3969, 110 L3970, 110 L3971, 110 L3972, 110 L3973, 110 L3974, 110 L3975, 110 L3976, 110 L3977, 110 L3978, 110 L3979, 110 L3980, 110 L3981, 110 L3982, 110 L3983, 110 L3984, 110 L3985, 110 L3986, 110 L3987, 110 L3988, 110 L3989, 110 L3990, 110 L3991, 110 L3992, 110 L3993, 110 L3994, 110 L3995, 110 L3996, 110 L3997, 110 L3998, 110 L3999, 110 L4000, 110 L4001, 110 L4002, 110 L4003, 110 L4004, 110 L4005, 110 L4006, 110 L4007, 110 L4008, 110 L4009, 110 L4010, 110 L4011, 110 L4012, 110 L4013, 110 L4014, 110 L4015, 110 L4016, 110 L4017, 110 L4018, 110 L4019, 110 L4020, 110 L4021, 110 L4022, 110 L4023, 110 L4024, 110 L4025, 110 L4026, 110 L4027, 110 L4028, 110 L4029, 110 L4030, 110 L4031, 110 L4032, 110 L4033, 110 L4034, 110 L4035, 110 L4036, 110 L4037, 110 L4038, 110 L4039, 110 L4040, 110 L4041, 110 L4042, 110 L4043, 110 L4044, 110 L4045, 110 L4046, 110 L4047, 110 L4048, 110 L4049, 110 L4050, 110 L4051, 110 L4052, 110 L4053, 110 L4054, 110 L4055, 110 L4056, 110 L4057, 110 L4058, 110 L4059, 110 L4060, 110 L4061, 110 L4062, 110 L4063, 110 L4064, 110 L4065, 110 L4066, 110 L4067, 110 L4068, 110 L4069, 110 L4070, 110 L4071, 110 L4072, 110 L4073, 110 L4074, 110 L4075, 110 L4076, 110 L4077, 110 L4078, 110 L4079, 110 L4080, 110 L4081, 110 L4082, 110 L4083, 110 L4084, 110 L4085, 110 L4086, 110 L4087, 110 L4088, 110 L4089, 110 L4090, 110 L4091, 110 L4092, 110 L4093, 110 L4094, 110 L4095, 110 L4096, 200"/>
<text font-family="Arial" x="638" y="170" fill="cyan" font-size="18" text-anchor="end" id="CH1s">CH1:  2.0V  /div (X1) 0.2S /div</text>
<text font-family="Arial" x="2" y="170" fill="cyan" font-size="18" text-anchor="start" id="CH1"> </text>
<text font-family="Arial" x="638" y="195" fill="yellow" font-size="18" text-anchor="end" id="CH2s">CH2:  1.0V  /div (X1) 0.2S /div</text>
<text font-family="Arial" x="2" y="195" fill="yellow" font-size="18" text-anchor="start" id="CH2"> </text>
<script type="text/ecmascript"><![CDATA[
function init(evt) { if ( window.svgDocument == null ) svgDocument = evt.target.ownerDocument; }
function fmtT(val, div) {
if (div > 10000) return Math.floor(val*div/25/1000) + " ms";
if (div > 250) return Math.floor(val*div/25)/1000 + " ms";
return Math.floor(val*div*1000/25)/1000 + " us";
}
function fmtU(val, div, shift) { return Math.floor((shift-val)*div/25) + " mV"; }
function msMove (evt)
{
var x = evt.pageX;
var y = evt.clientY;
if (x < 0 || y < 0 || x >= 4096|| y >= 200)
return;
var hscroll = (document.all ? document.scrollLeft : window.pageXOffset);
var width = window.innerWidth;

svgDocument.getElementById("CH1").setAttribute("x", hscroll+20);
svgDocument.getElementById("CH2").setAttribute("x", hscroll+20);
svgDocument.getElementById("CH1s").setAttribute("x", hscroll+width-20);
svgDocument.getElementById("CH2s").setAttribute("x", hscroll+width-20);

svgDocument.getElementById("CH1").firstChild.data = "CH1: "+fmtU(y, 2000,   99) + " " + fmtT(x, 200000);
svgDocument.getElementById("CH2").firstChild.data = "CH2: "+fmtU(y, 1000,  109) + " " + fmtT(x, 200000);
}
]]></script>
</svg>
